<?xml version="1.0" encoding="utf-8" standalone="no"?>
<!DOCTYPE svg PUBLIC "-//W3C//DTD SVG 1.1//EN"
  "http://www.w3.org/Graphics/SVG/1.1/DTD/svg11.dtd">
<!-- Created with matplotlib (https://matplotlib.org/) -->
<svg height="153.47625pt" version="1.1" viewBox="0 0 502.582812 153.47625" width="502.582812pt" xmlns="http://www.w3.org/2000/svg" xmlns:xlink="http://www.w3.org/1999/xlink">
 <metadata>
  <rdf:RDF xmlns:cc="http://creativecommons.org/ns#" xmlns:dc="http://purl.org/dc/elements/1.1/" xmlns:rdf="http://www.w3.org/1999/02/22-rdf-syntax-ns#">
   <cc:Work>
    <dc:type rdf:resource="http://purl.org/dc/dcmitype/StillImage"/>
    <dc:date>2023-01-13T11:07:39.362724</dc:date>
    <dc:format>image/svg+xml</dc:format>
    <dc:creator>
     <cc:Agent>
      <dc:title>Matplotlib v3.3.2, https://matplotlib.org/</dc:title>
     </cc:Agent>
    </dc:creator>
   </cc:Work>
  </rdf:RDF>
 </metadata>
 <defs>
  <style type="text/css">*{stroke-linecap:butt;stroke-linejoin:round;}</style>
 </defs>
 <g id="figure_1">
  <g id="patch_1">
   <path d="M 0 153.47625 
L 502.582812 153.47625 
L 502.582812 0 
L 0 0 
z
" style="fill:#ffffff;"/>
  </g>
  <g id="axes_1">
   <g id="patch_2">
    <path d="M 48.982813 115.92 
L 495.382812 115.92 
L 495.382812 7.2 
L 48.982813 7.2 
z
" style="fill:#ffffff;"/>
   </g>
   <g id="PolyCollection_1">
    <defs>
     <path d="M 69.273722 -91.91625 
L 69.273722 -91.91625 
L 69.783543 -91.91625 
L 70.293365 -91.91625 
L 70.803187 -91.91625 
L 71.313009 -91.91625 
L 71.822831 -91.91625 
L 72.332653 -91.91625 
L 72.842474 -91.91625 
L 73.352296 -91.91625 
L 73.862118 -91.91625 
L 74.37194 -91.91625 
L 74.881762 -91.91625 
L 75.391584 -91.91625 
L 75.901405 -91.91625 
L 76.411227 -91.91625 
L 76.921049 -91.91625 
L 77.430871 -91.91625 
L 77.940693 -91.91625 
L 78.450515 -91.91625 
L 78.960336 -91.91625 
L 79.470158 -91.91625 
L 79.97998 -91.91625 
L 80.489802 -91.91625 
L 80.999624 -91.91625 
L 81.509446 -91.91625 
L 82.019268 -91.91625 
L 82.529089 -91.91625 
L 83.038911 -91.91625 
L 83.548733 -91.91625 
L 84.058555 -91.91625 
L 84.568377 -91.91625 
L 85.078199 -91.91625 
L 85.58802 -91.91625 
L 86.097842 -91.91625 
L 86.607664 -91.91625 
L 87.117486 -91.91625 
L 87.627308 -91.91625 
L 88.13713 -91.91625 
L 88.646951 -91.91625 
L 89.156773 -91.91625 
L 89.666595 -91.91625 
L 90.176417 -91.91625 
L 90.686239 -91.91625 
L 91.196061 -91.91625 
L 91.705882 -91.91625 
L 92.215704 -91.91625 
L 92.725526 -91.91625 
L 93.235348 -91.91625 
L 93.74517 -91.91625 
L 94.254992 -91.91625 
L 94.764813 -91.91625 
L 95.274635 -91.91625 
L 95.784457 -91.91625 
L 96.294279 -91.91625 
L 96.804101 -91.91625 
L 97.313923 -91.91625 
L 97.823744 -91.91625 
L 98.333566 -91.91625 
L 98.843388 -91.91625 
L 99.35321 -91.91625 
L 99.863032 -91.91625 
L 100.372854 -91.91625 
L 100.882675 -91.91625 
L 101.392497 -91.91625 
L 101.902319 -91.91625 
L 102.412141 -91.91625 
L 102.921963 -91.91625 
L 103.431785 -91.91625 
L 103.941606 -91.91625 
L 104.451428 -91.91625 
L 104.96125 -91.91625 
L 105.471072 -91.91625 
L 105.980894 -91.91625 
L 106.490716 -91.91625 
L 107.000537 -91.91625 
L 107.510359 -91.91625 
L 108.020181 -91.91625 
L 108.530003 -91.91625 
L 109.039825 -91.91625 
L 109.549647 -91.91625 
L 110.059469 -91.91625 
L 110.56929 -91.91625 
L 111.079112 -91.91625 
L 111.588934 -91.91625 
L 112.098756 -91.91625 
L 112.608578 -91.91625 
L 113.1184 -91.91625 
L 113.628221 -91.91625 
L 114.138043 -91.91625 
L 114.647865 -91.91625 
L 115.157687 -91.91625 
L 115.667509 -91.91625 
L 116.177331 -91.91625 
L 116.687152 -91.91625 
L 117.196974 -91.91625 
L 117.706796 -91.91625 
L 118.216618 -91.91625 
L 118.72644 -91.91625 
L 119.236262 -91.91625 
L 119.746083 -91.91625 
L 120.255905 -91.91625 
L 120.765727 -91.91625 
L 121.275549 -91.91625 
L 121.785371 -91.91625 
L 122.295193 -91.91625 
L 122.805014 -91.91625 
L 123.314836 -91.91625 
L 123.824658 -91.91625 
L 124.33448 -91.91625 
L 124.844302 -91.91625 
L 125.354124 -91.91625 
L 125.863945 -91.91625 
L 126.373767 -91.91625 
L 126.883589 -91.91625 
L 127.393411 -91.91625 
L 127.903233 -91.91625 
L 128.413055 -91.91625 
L 128.922876 -91.91625 
L 129.432698 -91.91625 
L 129.94252 -91.91625 
L 130.452342 -91.91625 
L 130.962164 -91.91625 
L 131.471986 -91.91625 
L 131.981807 -91.91625 
L 132.491629 -91.91625 
L 133.001451 -91.91625 
L 133.511273 -91.91625 
L 134.021095 -91.91625 
L 134.530917 -91.91625 
L 135.040738 -91.91625 
L 135.55056 -91.91625 
L 136.060382 -91.91625 
L 136.570204 -91.91625 
L 137.080026 -91.91625 
L 137.589848 -91.91625 
L 138.09967 -91.91625 
L 138.609491 -91.91625 
L 139.119313 -91.91625 
L 139.629135 -91.91625 
L 140.138957 -91.91625 
L 140.648779 -91.91625 
L 141.158601 -91.91625 
L 141.668422 -91.91625 
L 142.178244 -91.91625 
L 142.688066 -91.91625 
L 143.197888 -91.91625 
L 143.70771 -91.91625 
L 144.217532 -91.91625 
L 144.727353 -91.91625 
L 145.237175 -91.91625 
L 145.746997 -91.91625 
L 146.256819 -91.91625 
L 146.766641 -91.91625 
L 147.276463 -91.91625 
L 147.786284 -91.91625 
L 148.296106 -91.91625 
L 148.805928 -91.91625 
L 149.31575 -91.91625 
L 149.825572 -91.91625 
L 150.335394 -91.91625 
L 150.845215 -91.91625 
L 151.355037 -91.91625 
L 151.864859 -91.91625 
L 152.374681 -91.91625 
L 152.884503 -91.91625 
L 153.394325 -91.91625 
L 153.904146 -91.91625 
L 154.413968 -91.91625 
L 154.92379 -91.91625 
L 155.433612 -91.91625 
L 155.943434 -91.91625 
L 156.453256 -91.91625 
L 156.963077 -91.91625 
L 157.472899 -91.91625 
L 157.982721 -91.91625 
L 158.492543 -91.91625 
L 159.002365 -91.91625 
L 159.512187 -91.91625 
L 160.022008 -91.91625 
L 160.53183 -91.91625 
L 161.041652 -91.91625 
L 161.551474 -91.91625 
L 162.061296 -91.91625 
L 162.571118 -91.91625 
L 163.080939 -91.91625 
L 163.590761 -91.91625 
L 164.100583 -91.91625 
L 164.610405 -91.91625 
L 165.120227 -91.91625 
L 165.630049 -91.91625 
L 166.139871 -91.91625 
L 166.649692 -91.91625 
L 167.159514 -91.91625 
L 167.669336 -91.91625 
L 168.179158 -91.91625 
L 168.68898 -91.91625 
L 169.198802 -91.91625 
L 169.708623 -91.91625 
L 170.218445 -91.91625 
L 170.728267 -91.91625 
L 171.238089 -91.91625 
L 171.747911 -91.91625 
L 172.257733 -91.91625 
L 172.767554 -91.91625 
L 173.277376 -91.91625 
L 173.787198 -91.91625 
L 174.29702 -91.91625 
L 174.806842 -91.91625 
L 175.316664 -91.91625 
L 175.826485 -91.91625 
L 176.336307 -91.91625 
L 176.846129 -91.91625 
L 177.355951 -91.91625 
L 177.865773 -91.91625 
L 178.375595 -91.91625 
L 178.885416 -91.91625 
L 179.395238 -91.91625 
L 179.90506 -91.91625 
L 180.414882 -91.91625 
L 180.924704 -91.91625 
L 181.434526 -91.91625 
L 181.944347 -91.91625 
L 182.454169 -91.91625 
L 182.963991 -91.91625 
L 183.473813 -91.91625 
L 183.983635 -91.91625 
L 184.493457 -91.91625 
L 185.003278 -91.91625 
L 185.5131 -91.91625 
L 186.022922 -91.91625 
L 186.532744 -91.91625 
L 187.042566 -91.91625 
L 187.552388 -91.91625 
L 188.062209 -91.91625 
L 188.572031 -91.91625 
L 189.081853 -91.91625 
L 189.591675 -91.91625 
L 190.101497 -91.91625 
L 190.611319 -91.91625 
L 191.121141 -91.91625 
L 191.630962 -91.91625 
L 192.140784 -91.91625 
L 192.650606 -91.91625 
L 193.160428 -91.91625 
L 193.67025 -91.91625 
L 194.180072 -91.91625 
L 194.689893 -91.91625 
L 195.199715 -91.91625 
L 195.709537 -91.91625 
L 196.219359 -91.91625 
L 196.729181 -91.91625 
L 197.239003 -91.91625 
L 197.748824 -91.91625 
L 198.258646 -91.91625 
L 198.768468 -91.91625 
L 199.27829 -91.91625 
L 199.788112 -91.91625 
L 200.297934 -91.91625 
L 200.807755 -91.91625 
L 201.317577 -91.91625 
L 201.827399 -91.91625 
L 202.337221 -91.91625 
L 202.847043 -91.91625 
L 203.356865 -91.91625 
L 203.866686 -91.91625 
L 204.376508 -91.91625 
L 204.88633 -91.91625 
L 205.396152 -91.91625 
L 205.905974 -91.91625 
L 206.415796 -91.91625 
L 206.925617 -91.91625 
L 207.435439 -91.91625 
L 207.945261 -91.91625 
L 208.455083 -91.91625 
L 208.964905 -91.91625 
L 209.474727 -91.91625 
L 209.984548 -91.91625 
L 210.49437 -91.91625 
L 211.004192 -91.91625 
L 211.514014 -91.91625 
L 212.023836 -91.91625 
L 212.533658 -91.91625 
L 213.043479 -91.91625 
L 213.553301 -91.91625 
L 214.063123 -91.91625 
L 214.572945 -91.91625 
L 215.082767 -91.91625 
L 215.592589 -91.91625 
L 216.10241 -91.91625 
L 216.612232 -91.91625 
L 217.122054 -91.91625 
L 217.631876 -91.91625 
L 218.141698 -91.91625 
L 218.65152 -91.91625 
L 219.161342 -91.91625 
L 219.671163 -91.91625 
L 220.180985 -91.91625 
L 220.690807 -91.91625 
L 221.200629 -91.91625 
L 221.710451 -91.91625 
L 222.220273 -91.91625 
L 222.730094 -91.91625 
L 223.239916 -91.91625 
L 223.749738 -91.91625 
L 224.25956 -91.91625 
L 224.769382 -91.91625 
L 225.279204 -91.91625 
L 225.789025 -91.91625 
L 226.298847 -91.91625 
L 226.808669 -91.91625 
L 227.318491 -91.91625 
L 227.828313 -91.91625 
L 228.338135 -91.91625 
L 228.847956 -91.91625 
L 229.357778 -91.91625 
L 229.8676 -91.91625 
L 230.377422 -91.91625 
L 230.887244 -91.91625 
L 231.397066 -91.91625 
L 231.906887 -91.91625 
L 232.416709 -91.91625 
L 232.926531 -91.91625 
L 233.436353 -91.91625 
L 233.946175 -91.91625 
L 234.455997 -91.91625 
L 234.965818 -91.91625 
L 235.47564 -91.91625 
L 235.985462 -91.91625 
L 236.495284 -91.91625 
L 237.005106 -91.91625 
L 237.514928 -91.91625 
L 238.024749 -91.91625 
L 238.534571 -91.91625 
L 239.044393 -91.91625 
L 239.554215 -91.91625 
L 240.064037 -91.91625 
L 240.573859 -91.91625 
L 241.08368 -91.91625 
L 241.593502 -91.91625 
L 242.103324 -91.91625 
L 242.613146 -91.91625 
L 243.122968 -91.91625 
L 243.63279 -91.91625 
L 244.142611 -91.91625 
L 244.652433 -91.91625 
L 245.162255 -91.91625 
L 245.672077 -91.91625 
L 246.181899 -91.91625 
L 246.691721 -91.91625 
L 247.201543 -91.91625 
L 247.711364 -91.91625 
L 248.221186 -91.91625 
L 248.731008 -91.91625 
L 249.24083 -91.91625 
L 249.750652 -91.91625 
L 250.260474 -91.91625 
L 250.770295 -91.91625 
L 251.280117 -91.91625 
L 251.789939 -91.91625 
L 252.299761 -91.91625 
L 252.809583 -91.91625 
L 253.319405 -91.91625 
L 253.829226 -91.91625 
L 254.339048 -91.91625 
L 254.84887 -91.91625 
L 255.358692 -91.91625 
L 255.868514 -91.91625 
L 256.378336 -91.91625 
L 256.888157 -91.91625 
L 257.397979 -91.91625 
L 257.907801 -91.91625 
L 258.417623 -91.91625 
L 258.927445 -91.91625 
L 259.437267 -91.91625 
L 259.947088 -91.91625 
L 260.45691 -91.91625 
L 260.966732 -91.91625 
L 261.476554 -91.91625 
L 261.986376 -91.91625 
L 262.496198 -91.91625 
L 263.006019 -91.91625 
L 263.515841 -91.91625 
L 264.025663 -91.91625 
L 264.535485 -91.91625 
L 265.045307 -91.91625 
L 265.555129 -91.91625 
L 266.06495 -91.91625 
L 266.574772 -91.91625 
L 267.084594 -91.91625 
L 267.594416 -91.91625 
L 268.104238 -91.91625 
L 268.61406 -91.91625 
L 269.123881 -91.91625 
L 269.633703 -91.91625 
L 270.143525 -91.91625 
L 270.653347 -91.91625 
L 271.163169 -91.91625 
L 271.672991 -91.91625 
L 272.182813 -91.91625 
L 272.692634 -91.91625 
L 273.202456 -91.91625 
L 273.712278 -91.91625 
L 274.2221 -91.91625 
L 274.731922 -91.91625 
L 275.241744 -91.91625 
L 275.751565 -91.91625 
L 276.261387 -91.91625 
L 276.771209 -91.91625 
L 277.281031 -91.91625 
L 277.790853 -91.91625 
L 278.300675 -91.91625 
L 278.810496 -91.91625 
L 279.320318 -91.91625 
L 279.83014 -91.91625 
L 280.339962 -91.91625 
L 280.849784 -91.91625 
L 281.359606 -91.91625 
L 281.869427 -91.91625 
L 282.379249 -91.91625 
L 282.889071 -91.91625 
L 283.398893 -91.91625 
L 283.908715 -91.91625 
L 284.418537 -91.91625 
L 284.928358 -91.91625 
L 285.43818 -91.91625 
L 285.948002 -91.91625 
L 286.457824 -91.91625 
L 286.967646 -91.91625 
L 287.477468 -91.91625 
L 287.987289 -91.91625 
L 288.497111 -91.91625 
L 289.006933 -91.91625 
L 289.516755 -91.91625 
L 290.026577 -91.91625 
L 290.536399 -91.91625 
L 291.04622 -91.91625 
L 291.556042 -91.91625 
L 292.065864 -91.91625 
L 292.575686 -91.91625 
L 293.085508 -91.91625 
L 293.59533 -91.91625 
L 294.105151 -91.91625 
L 294.614973 -91.91625 
L 295.124795 -91.91625 
L 295.634617 -91.91625 
L 296.144439 -91.91625 
L 296.654261 -91.91625 
L 297.164082 -91.91625 
L 297.673904 -91.91625 
L 298.183726 -91.91625 
L 298.693548 -91.91625 
L 299.20337 -91.91625 
L 299.713192 -91.91625 
L 300.223014 -91.91625 
L 300.732835 -91.91625 
L 301.242657 -91.91625 
L 301.752479 -91.91625 
L 302.262301 -91.91625 
L 302.772123 -91.91625 
L 303.281945 -91.91625 
L 303.791766 -91.91625 
L 304.301588 -91.91625 
L 304.81141 -91.91625 
L 305.321232 -91.91625 
L 305.831054 -91.91625 
L 306.340876 -91.91625 
L 306.850697 -91.91625 
L 307.360519 -91.91625 
L 307.870341 -91.91625 
L 308.380163 -91.91625 
L 308.889985 -91.91625 
L 309.399807 -91.91625 
L 309.909628 -91.91625 
L 310.41945 -91.91625 
L 310.929272 -91.91625 
L 311.439094 -91.91625 
L 311.948916 -91.91625 
L 312.458738 -91.91625 
L 312.968559 -91.91625 
L 313.478381 -91.91625 
L 313.988203 -91.91625 
L 314.498025 -91.91625 
L 315.007847 -91.91625 
L 315.517669 -91.91625 
L 316.02749 -91.91625 
L 316.537312 -91.91625 
L 317.047134 -91.91625 
L 317.556956 -91.91625 
L 318.066778 -91.91625 
L 318.5766 -91.91625 
L 319.086421 -91.91625 
L 319.596243 -91.91625 
L 320.106065 -91.91625 
L 320.615887 -91.91625 
L 321.125709 -91.91625 
L 321.635531 -91.91625 
L 322.145352 -91.91625 
L 322.655174 -91.91625 
L 323.164996 -91.91625 
L 323.674818 -91.91625 
L 324.18464 -91.91625 
L 324.694462 -91.91625 
L 325.204283 -91.91625 
L 325.714105 -91.91625 
L 326.223927 -91.91625 
L 326.733749 -91.91625 
L 327.243571 -91.91625 
L 327.753393 -91.91625 
L 328.263215 -91.91625 
L 328.773036 -91.91625 
L 329.282858 -91.91625 
L 329.79268 -91.91625 
L 330.302502 -91.91625 
L 330.812324 -91.91625 
L 331.322146 -91.91625 
L 331.831967 -91.91625 
L 332.341789 -91.91625 
L 332.851611 -91.91625 
L 333.361433 -91.91625 
L 333.871255 -91.91625 
L 334.381077 -91.91625 
L 334.890898 -91.91625 
L 335.40072 -91.91625 
L 335.910542 -91.91625 
L 336.420364 -91.91625 
L 336.930186 -91.91625 
L 337.440008 -91.91625 
L 337.949829 -91.91625 
L 338.459651 -90.268977 
L 338.969473 -88.621705 
L 339.479295 -86.974432 
L 339.989117 -85.327159 
L 340.498939 -85.327159 
L 341.00876 -85.327159 
L 341.518582 -85.327159 
L 342.028404 -85.327159 
L 342.538226 -85.327159 
L 343.048048 -85.327159 
L 343.55787 -85.327159 
L 344.067691 -85.327159 
L 344.577513 -85.327159 
L 345.087335 -85.327159 
L 345.597157 -85.327159 
L 346.106979 -85.327159 
L 346.616801 -85.327159 
L 347.126622 -85.327159 
L 347.636444 -85.327159 
L 348.146266 -85.327159 
L 348.656088 -85.327159 
L 349.16591 -83.679886 
L 349.675732 -82.032614 
L 350.185553 -80.385341 
L 350.695375 -78.738068 
L 351.205197 -78.738068 
L 351.715019 -78.738068 
L 352.224841 -78.738068 
L 352.734663 -78.738068 
L 353.244484 -77.090795 
L 353.754306 -77.090795 
L 354.264128 -77.090795 
L 354.77395 -77.090795 
L 355.283772 -77.090795 
L 355.793594 -75.443523 
L 356.303416 -73.79625 
L 356.813237 -72.148977 
L 357.323059 -70.501705 
L 357.832881 -70.501705 
L 358.342703 -70.501705 
L 358.852525 -70.501705 
L 359.362347 -68.854432 
L 359.872168 -67.207159 
L 360.38199 -65.559886 
L 360.891812 -63.912614 
L 361.401634 -62.265341 
L 361.911456 -60.618068 
L 362.421278 -58.970795 
L 362.931099 -57.323523 
L 363.440921 -55.67625 
L 363.950743 -54.028977 
L 364.460565 -54.028977 
L 364.970387 -54.028977 
L 365.480209 -54.028977 
L 365.99003 -54.028977 
L 366.499852 -52.381705 
L 367.009674 -50.734432 
L 367.519496 -49.087159 
L 368.029318 -47.439886 
L 368.53914 -47.439886 
L 369.048961 -47.439886 
L 369.558783 -47.439886 
L 370.068605 -47.439886 
L 370.578427 -49.087159 
L 371.088249 -50.734432 
L 371.598071 -52.381705 
L 372.107892 -54.028977 
L 372.617714 -55.67625 
L 373.127536 -54.028977 
L 373.637358 -52.381705 
L 374.14718 -50.734432 
L 374.657002 -50.734432 
L 375.166823 -50.734432 
L 375.676645 -50.734432 
L 376.186467 -50.734432 
L 376.696289 -50.734432 
L 377.206111 -50.734432 
L 377.715933 -50.734432 
L 378.225754 -50.734432 
L 378.735576 -50.734432 
L 379.245398 -50.734432 
L 379.75522 -50.734432 
L 380.265042 -50.734432 
L 380.774864 -50.734432 
L 381.284686 -50.734432 
L 381.794507 -50.734432 
L 382.304329 -50.734432 
L 382.814151 -50.734432 
L 383.323973 -50.734432 
L 383.833795 -52.381705 
L 384.343617 -52.381705 
L 384.853438 -52.381705 
L 385.36326 -54.028977 
L 385.873082 -54.028977 
L 386.382904 -54.028977 
L 386.892726 -54.028977 
L 387.402548 -54.028977 
L 387.912369 -54.028977 
L 388.422191 -57.323523 
L 388.932013 -60.618068 
L 389.441835 -63.912614 
L 389.951657 -67.207159 
L 390.461479 -68.854432 
L 390.9713 -70.501705 
L 391.481122 -72.148977 
L 391.990944 -73.79625 
L 392.500766 -77.090795 
L 393.010588 -80.385341 
L 393.52041 -83.679886 
L 394.030231 -86.974432 
L 394.540053 -90.268977 
L 395.049875 -93.563523 
L 395.559697 -96.858068 
L 396.069519 -100.152614 
L 396.579341 -103.447159 
L 397.089162 -105.094432 
L 397.598984 -106.741705 
L 398.108806 -108.388977 
L 398.618628 -110.03625 
L 399.12845 -110.03625 
L 399.638272 -111.683523 
L 400.148093 -113.330795 
L 400.657915 -113.330795 
L 401.167737 -114.978068 
L 401.677559 -116.625341 
L 402.187381 -118.272614 
L 402.697203 -119.919886 
L 403.207024 -121.567159 
L 403.716846 -119.919886 
L 404.226668 -118.272614 
L 404.73649 -116.625341 
L 405.246312 -114.978068 
L 405.756134 -114.978068 
L 406.265955 -114.978068 
L 406.775777 -114.978068 
L 407.285599 -114.978068 
L 407.795421 -114.978068 
L 408.305243 -114.978068 
L 408.815065 -114.978068 
L 409.324887 -114.978068 
L 409.834708 -114.978068 
L 410.34453 -113.330795 
L 410.854352 -111.683523 
L 411.364174 -108.388977 
L 411.873996 -105.094432 
L 412.383818 -105.094432 
L 412.893639 -105.094432 
L 413.403461 -105.094432 
L 413.913283 -105.094432 
L 414.423105 -105.094432 
L 414.932927 -106.741705 
L 415.442749 -108.388977 
L 415.95257 -110.03625 
L 416.462392 -110.03625 
L 416.972214 -110.03625 
L 417.482036 -110.03625 
L 417.991858 -110.03625 
L 418.50168 -110.03625 
L 419.011501 -111.683523 
L 419.521323 -111.683523 
L 420.031145 -111.683523 
L 420.540967 -111.683523 
L 421.050789 -111.683523 
L 421.560611 -111.683523 
L 422.070432 -111.683523 
L 422.580254 -111.683523 
L 423.090076 -110.03625 
L 423.599898 -108.388977 
L 424.10972 -106.741705 
L 424.619542 -105.094432 
L 425.129363 -103.447159 
L 425.639185 -103.447159 
L 426.149007 -103.447159 
L 426.658829 -106.741705 
L 427.168651 -110.03625 
L 427.678473 -111.683523 
L 428.188294 -113.330795 
L 428.698116 -114.978068 
L 429.207938 -116.625341 
L 429.71776 -118.272614 
L 430.227582 -118.272614 
L 430.737404 -118.272614 
L 431.247225 -118.272614 
L 431.757047 -118.272614 
L 432.266869 -118.272614 
L 432.776691 -116.625341 
L 433.286513 -114.978068 
L 433.796335 -113.330795 
L 434.306156 -111.683523 
L 434.815978 -111.683523 
L 435.3258 -111.683523 
L 435.835622 -111.683523 
L 436.345444 -111.683523 
L 436.855266 -111.683523 
L 437.365088 -111.683523 
L 437.874909 -111.683523 
L 438.384731 -111.683523 
L 438.894553 -113.330795 
L 439.404375 -114.978068 
L 439.914197 -116.625341 
L 440.424019 -118.272614 
L 440.93384 -119.919886 
L 441.443662 -119.919886 
L 441.953484 -118.272614 
L 442.463306 -116.625341 
L 442.973128 -114.978068 
L 443.48295 -113.330795 
L 443.992771 -111.683523 
L 444.502593 -110.03625 
L 445.012415 -108.388977 
L 445.522237 -106.741705 
L 446.032059 -106.741705 
L 446.541881 -106.741705 
L 447.051702 -106.741705 
L 447.561524 -106.741705 
L 448.071346 -108.388977 
L 448.581168 -110.03625 
L 449.09099 -111.683523 
L 449.600812 -111.683523 
L 450.110633 -111.683523 
L 450.620455 -111.683523 
L 451.130277 -111.683523 
L 451.640099 -111.683523 
L 452.149921 -113.330795 
L 452.659743 -114.978068 
L 453.169564 -114.978068 
L 453.679386 -114.978068 
L 454.189208 -113.330795 
L 454.69903 -111.683523 
L 455.208852 -111.683523 
L 455.718674 -111.683523 
L 456.228495 -111.683523 
L 456.738317 -113.330795 
L 457.248139 -114.978068 
L 457.757961 -114.978068 
L 458.267783 -114.978068 
L 458.777605 -114.978068 
L 459.287426 -114.978068 
L 459.797248 -116.625341 
L 460.30707 -118.272614 
L 460.816892 -119.919886 
L 461.326714 -119.919886 
L 461.836536 -119.919886 
L 462.346357 -118.272614 
L 462.856179 -116.625341 
L 463.366001 -114.978068 
L 463.875823 -113.330795 
L 464.385645 -111.683523 
L 464.895467 -113.330795 
L 465.405289 -114.978068 
L 465.91511 -116.625341 
L 466.424932 -118.272614 
L 466.934754 -119.919886 
L 467.444576 -119.919886 
L 467.954398 -118.272614 
L 468.46422 -118.272614 
L 468.974041 -118.272614 
L 469.483863 -118.272614 
L 469.993685 -118.272614 
L 470.503507 -116.625341 
L 471.013329 -114.978068 
L 471.523151 -113.330795 
L 472.032972 -111.683523 
L 472.542794 -110.03625 
L 473.052616 -110.03625 
L 473.562438 -110.03625 
L 474.07226 -110.03625 
L 474.582082 -110.03625 
L 474.582082 -91.91625 
L 474.582082 -91.91625 
L 474.07226 -91.91625 
L 473.562438 -91.91625 
L 473.052616 -91.91625 
L 472.542794 -91.91625 
L 472.032972 -91.91625 
L 471.523151 -91.91625 
L 471.013329 -91.91625 
L 470.503507 -91.91625 
L 469.993685 -91.91625 
L 469.483863 -91.91625 
L 468.974041 -91.91625 
L 468.46422 -91.91625 
L 467.954398 -91.91625 
L 467.444576 -91.91625 
L 466.934754 -91.91625 
L 466.424932 -91.91625 
L 465.91511 -91.91625 
L 465.405289 -91.91625 
L 464.895467 -91.91625 
L 464.385645 -91.91625 
L 463.875823 -91.91625 
L 463.366001 -91.91625 
L 462.856179 -91.91625 
L 462.346357 -91.91625 
L 461.836536 -91.91625 
L 461.326714 -91.91625 
L 460.816892 -91.91625 
L 460.30707 -91.91625 
L 459.797248 -91.91625 
L 459.287426 -91.91625 
L 458.777605 -91.91625 
L 458.267783 -91.91625 
L 457.757961 -91.91625 
L 457.248139 -91.91625 
L 456.738317 -91.91625 
L 456.228495 -91.91625 
L 455.718674 -91.91625 
L 455.208852 -91.91625 
L 454.69903 -91.91625 
L 454.189208 -91.91625 
L 453.679386 -91.91625 
L 453.169564 -91.91625 
L 452.659743 -91.91625 
L 452.149921 -91.91625 
L 451.640099 -91.91625 
L 451.130277 -91.91625 
L 450.620455 -91.91625 
L 450.110633 -91.91625 
L 449.600812 -91.91625 
L 449.09099 -91.91625 
L 448.581168 -91.91625 
L 448.071346 -91.91625 
L 447.561524 -91.91625 
L 447.051702 -91.91625 
L 446.541881 -91.91625 
L 446.032059 -91.91625 
L 445.522237 -91.91625 
L 445.012415 -91.91625 
L 444.502593 -91.91625 
L 443.992771 -91.91625 
L 443.48295 -91.91625 
L 442.973128 -91.91625 
L 442.463306 -91.91625 
L 441.953484 -91.91625 
L 441.443662 -91.91625 
L 440.93384 -91.91625 
L 440.424019 -91.91625 
L 439.914197 -91.91625 
L 439.404375 -91.91625 
L 438.894553 -91.91625 
L 438.384731 -91.91625 
L 437.874909 -91.91625 
L 437.365088 -91.91625 
L 436.855266 -91.91625 
L 436.345444 -91.91625 
L 435.835622 -91.91625 
L 435.3258 -91.91625 
L 434.815978 -91.91625 
L 434.306156 -91.91625 
L 433.796335 -91.91625 
L 433.286513 -91.91625 
L 432.776691 -91.91625 
L 432.266869 -91.91625 
L 431.757047 -91.91625 
L 431.247225 -91.91625 
L 430.737404 -91.91625 
L 430.227582 -91.91625 
L 429.71776 -91.91625 
L 429.207938 -91.91625 
L 428.698116 -91.91625 
L 428.188294 -91.91625 
L 427.678473 -91.91625 
L 427.168651 -91.91625 
L 426.658829 -91.91625 
L 426.149007 -91.91625 
L 425.639185 -91.91625 
L 425.129363 -91.91625 
L 424.619542 -91.91625 
L 424.10972 -91.91625 
L 423.599898 -91.91625 
L 423.090076 -91.91625 
L 422.580254 -91.91625 
L 422.070432 -91.91625 
L 421.560611 -91.91625 
L 421.050789 -91.91625 
L 420.540967 -91.91625 
L 420.031145 -91.91625 
L 419.521323 -91.91625 
L 419.011501 -91.91625 
L 418.50168 -91.91625 
L 417.991858 -91.91625 
L 417.482036 -91.91625 
L 416.972214 -91.91625 
L 416.462392 -91.91625 
L 415.95257 -91.91625 
L 415.442749 -91.91625 
L 414.932927 -91.91625 
L 414.423105 -91.91625 
L 413.913283 -91.91625 
L 413.403461 -91.91625 
L 412.893639 -91.91625 
L 412.383818 -91.91625 
L 411.873996 -91.91625 
L 411.364174 -91.91625 
L 410.854352 -91.91625 
L 410.34453 -91.91625 
L 409.834708 -91.91625 
L 409.324887 -91.91625 
L 408.815065 -91.91625 
L 408.305243 -91.91625 
L 407.795421 -91.91625 
L 407.285599 -91.91625 
L 406.775777 -91.91625 
L 406.265955 -91.91625 
L 405.756134 -91.91625 
L 405.246312 -91.91625 
L 404.73649 -91.91625 
L 404.226668 -91.91625 
L 403.716846 -91.91625 
L 403.207024 -91.91625 
L 402.697203 -91.91625 
L 402.187381 -91.91625 
L 401.677559 -91.91625 
L 401.167737 -91.91625 
L 400.657915 -91.91625 
L 400.148093 -91.91625 
L 399.638272 -91.91625 
L 399.12845 -91.91625 
L 398.618628 -91.91625 
L 398.108806 -91.91625 
L 397.598984 -91.91625 
L 397.089162 -91.91625 
L 396.579341 -91.91625 
L 396.069519 -91.91625 
L 395.559697 -91.91625 
L 395.049875 -91.91625 
L 394.540053 -91.91625 
L 394.030231 -91.91625 
L 393.52041 -91.91625 
L 393.010588 -91.91625 
L 392.500766 -91.91625 
L 391.990944 -91.91625 
L 391.481122 -91.91625 
L 390.9713 -91.91625 
L 390.461479 -91.91625 
L 389.951657 -91.91625 
L 389.441835 -91.91625 
L 388.932013 -91.91625 
L 388.422191 -91.91625 
L 387.912369 -91.91625 
L 387.402548 -91.91625 
L 386.892726 -91.91625 
L 386.382904 -91.91625 
L 385.873082 -91.91625 
L 385.36326 -91.91625 
L 384.853438 -91.91625 
L 384.343617 -91.91625 
L 383.833795 -91.91625 
L 383.323973 -91.91625 
L 382.814151 -91.91625 
L 382.304329 -91.91625 
L 381.794507 -91.91625 
L 381.284686 -91.91625 
L 380.774864 -91.91625 
L 380.265042 -91.91625 
L 379.75522 -91.91625 
L 379.245398 -91.91625 
L 378.735576 -91.91625 
L 378.225754 -91.91625 
L 377.715933 -91.91625 
L 377.206111 -91.91625 
L 376.696289 -91.91625 
L 376.186467 -91.91625 
L 375.676645 -91.91625 
L 375.166823 -91.91625 
L 374.657002 -91.91625 
L 374.14718 -91.91625 
L 373.637358 -91.91625 
L 373.127536 -91.91625 
L 372.617714 -91.91625 
L 372.107892 -91.91625 
L 371.598071 -91.91625 
L 371.088249 -91.91625 
L 370.578427 -91.91625 
L 370.068605 -91.91625 
L 369.558783 -91.91625 
L 369.048961 -91.91625 
L 368.53914 -91.91625 
L 368.029318 -91.91625 
L 367.519496 -91.91625 
L 367.009674 -91.91625 
L 366.499852 -91.91625 
L 365.99003 -91.91625 
L 365.480209 -91.91625 
L 364.970387 -91.91625 
L 364.460565 -91.91625 
L 363.950743 -91.91625 
L 363.440921 -91.91625 
L 362.931099 -91.91625 
L 362.421278 -91.91625 
L 361.911456 -91.91625 
L 361.401634 -91.91625 
L 360.891812 -91.91625 
L 360.38199 -91.91625 
L 359.872168 -91.91625 
L 359.362347 -91.91625 
L 358.852525 -91.91625 
L 358.342703 -91.91625 
L 357.832881 -91.91625 
L 357.323059 -91.91625 
L 356.813237 -91.91625 
L 356.303416 -91.91625 
L 355.793594 -91.91625 
L 355.283772 -91.91625 
L 354.77395 -91.91625 
L 354.264128 -91.91625 
L 353.754306 -91.91625 
L 353.244484 -91.91625 
L 352.734663 -91.91625 
L 352.224841 -91.91625 
L 351.715019 -91.91625 
L 351.205197 -91.91625 
L 350.695375 -91.91625 
L 350.185553 -91.91625 
L 349.675732 -91.91625 
L 349.16591 -91.91625 
L 348.656088 -91.91625 
L 348.146266 -91.91625 
L 347.636444 -91.91625 
L 347.126622 -91.91625 
L 346.616801 -91.91625 
L 346.106979 -91.91625 
L 345.597157 -91.91625 
L 345.087335 -91.91625 
L 344.577513 -91.91625 
L 344.067691 -91.91625 
L 343.55787 -91.91625 
L 343.048048 -91.91625 
L 342.538226 -91.91625 
L 342.028404 -91.91625 
L 341.518582 -91.91625 
L 341.00876 -91.91625 
L 340.498939 -91.91625 
L 339.989117 -91.91625 
L 339.479295 -91.91625 
L 338.969473 -91.91625 
L 338.459651 -91.91625 
L 337.949829 -91.91625 
L 337.440008 -91.91625 
L 336.930186 -91.91625 
L 336.420364 -91.91625 
L 335.910542 -91.91625 
L 335.40072 -91.91625 
L 334.890898 -91.91625 
L 334.381077 -91.91625 
L 333.871255 -91.91625 
L 333.361433 -91.91625 
L 332.851611 -91.91625 
L 332.341789 -91.91625 
L 331.831967 -91.91625 
L 331.322146 -91.91625 
L 330.812324 -91.91625 
L 330.302502 -91.91625 
L 329.79268 -91.91625 
L 329.282858 -91.91625 
L 328.773036 -91.91625 
L 328.263215 -91.91625 
L 327.753393 -91.91625 
L 327.243571 -91.91625 
L 326.733749 -91.91625 
L 326.223927 -91.91625 
L 325.714105 -91.91625 
L 325.204283 -91.91625 
L 324.694462 -91.91625 
L 324.18464 -91.91625 
L 323.674818 -91.91625 
L 323.164996 -91.91625 
L 322.655174 -91.91625 
L 322.145352 -91.91625 
L 321.635531 -91.91625 
L 321.125709 -91.91625 
L 320.615887 -91.91625 
L 320.106065 -91.91625 
L 319.596243 -91.91625 
L 319.086421 -91.91625 
L 318.5766 -91.91625 
L 318.066778 -91.91625 
L 317.556956 -91.91625 
L 317.047134 -91.91625 
L 316.537312 -91.91625 
L 316.02749 -91.91625 
L 315.517669 -91.91625 
L 315.007847 -91.91625 
L 314.498025 -91.91625 
L 313.988203 -91.91625 
L 313.478381 -91.91625 
L 312.968559 -91.91625 
L 312.458738 -91.91625 
L 311.948916 -91.91625 
L 311.439094 -91.91625 
L 310.929272 -91.91625 
L 310.41945 -91.91625 
L 309.909628 -91.91625 
L 309.399807 -91.91625 
L 308.889985 -91.91625 
L 308.380163 -91.91625 
L 307.870341 -91.91625 
L 307.360519 -91.91625 
L 306.850697 -91.91625 
L 306.340876 -91.91625 
L 305.831054 -91.91625 
L 305.321232 -91.91625 
L 304.81141 -91.91625 
L 304.301588 -91.91625 
L 303.791766 -91.91625 
L 303.281945 -91.91625 
L 302.772123 -91.91625 
L 302.262301 -91.91625 
L 301.752479 -91.91625 
L 301.242657 -91.91625 
L 300.732835 -91.91625 
L 300.223014 -91.91625 
L 299.713192 -91.91625 
L 299.20337 -91.91625 
L 298.693548 -91.91625 
L 298.183726 -91.91625 
L 297.673904 -91.91625 
L 297.164082 -91.91625 
L 296.654261 -91.91625 
L 296.144439 -91.91625 
L 295.634617 -91.91625 
L 295.124795 -91.91625 
L 294.614973 -91.91625 
L 294.105151 -91.91625 
L 293.59533 -91.91625 
L 293.085508 -91.91625 
L 292.575686 -91.91625 
L 292.065864 -91.91625 
L 291.556042 -91.91625 
L 291.04622 -91.91625 
L 290.536399 -91.91625 
L 290.026577 -91.91625 
L 289.516755 -91.91625 
L 289.006933 -91.91625 
L 288.497111 -91.91625 
L 287.987289 -91.91625 
L 287.477468 -91.91625 
L 286.967646 -91.91625 
L 286.457824 -91.91625 
L 285.948002 -91.91625 
L 285.43818 -91.91625 
L 284.928358 -91.91625 
L 284.418537 -91.91625 
L 283.908715 -91.91625 
L 283.398893 -91.91625 
L 282.889071 -91.91625 
L 282.379249 -91.91625 
L 281.869427 -91.91625 
L 281.359606 -91.91625 
L 280.849784 -91.91625 
L 280.339962 -91.91625 
L 279.83014 -91.91625 
L 279.320318 -91.91625 
L 278.810496 -91.91625 
L 278.300675 -91.91625 
L 277.790853 -91.91625 
L 277.281031 -91.91625 
L 276.771209 -91.91625 
L 276.261387 -91.91625 
L 275.751565 -91.91625 
L 275.241744 -91.91625 
L 274.731922 -91.91625 
L 274.2221 -91.91625 
L 273.712278 -91.91625 
L 273.202456 -91.91625 
L 272.692634 -91.91625 
L 272.182813 -91.91625 
L 271.672991 -91.91625 
L 271.163169 -91.91625 
L 270.653347 -91.91625 
L 270.143525 -91.91625 
L 269.633703 -91.91625 
L 269.123881 -91.91625 
L 268.61406 -91.91625 
L 268.104238 -91.91625 
L 267.594416 -91.91625 
L 267.084594 -91.91625 
L 266.574772 -91.91625 
L 266.06495 -91.91625 
L 265.555129 -91.91625 
L 265.045307 -91.91625 
L 264.535485 -91.91625 
L 264.025663 -91.91625 
L 263.515841 -91.91625 
L 263.006019 -91.91625 
L 262.496198 -91.91625 
L 261.986376 -91.91625 
L 261.476554 -91.91625 
L 260.966732 -91.91625 
L 260.45691 -91.91625 
L 259.947088 -91.91625 
L 259.437267 -91.91625 
L 258.927445 -91.91625 
L 258.417623 -91.91625 
L 257.907801 -91.91625 
L 257.397979 -91.91625 
L 256.888157 -91.91625 
L 256.378336 -91.91625 
L 255.868514 -91.91625 
L 255.358692 -91.91625 
L 254.84887 -91.91625 
L 254.339048 -91.91625 
L 253.829226 -91.91625 
L 253.319405 -91.91625 
L 252.809583 -91.91625 
L 252.299761 -91.91625 
L 251.789939 -91.91625 
L 251.280117 -91.91625 
L 250.770295 -91.91625 
L 250.260474 -91.91625 
L 249.750652 -91.91625 
L 249.24083 -91.91625 
L 248.731008 -91.91625 
L 248.221186 -91.91625 
L 247.711364 -91.91625 
L 247.201543 -91.91625 
L 246.691721 -91.91625 
L 246.181899 -91.91625 
L 245.672077 -91.91625 
L 245.162255 -91.91625 
L 244.652433 -91.91625 
L 244.142611 -91.91625 
L 243.63279 -91.91625 
L 243.122968 -91.91625 
L 242.613146 -91.91625 
L 242.103324 -91.91625 
L 241.593502 -91.91625 
L 241.08368 -91.91625 
L 240.573859 -91.91625 
L 240.064037 -91.91625 
L 239.554215 -91.91625 
L 239.044393 -91.91625 
L 238.534571 -91.91625 
L 238.024749 -91.91625 
L 237.514928 -91.91625 
L 237.005106 -91.91625 
L 236.495284 -91.91625 
L 235.985462 -91.91625 
L 235.47564 -91.91625 
L 234.965818 -91.91625 
L 234.455997 -91.91625 
L 233.946175 -91.91625 
L 233.436353 -91.91625 
L 232.926531 -91.91625 
L 232.416709 -91.91625 
L 231.906887 -91.91625 
L 231.397066 -91.91625 
L 230.887244 -91.91625 
L 230.377422 -91.91625 
L 229.8676 -91.91625 
L 229.357778 -91.91625 
L 228.847956 -91.91625 
L 228.338135 -91.91625 
L 227.828313 -91.91625 
L 227.318491 -91.91625 
L 226.808669 -91.91625 
L 226.298847 -91.91625 
L 225.789025 -91.91625 
L 225.279204 -91.91625 
L 224.769382 -91.91625 
L 224.25956 -91.91625 
L 223.749738 -91.91625 
L 223.239916 -91.91625 
L 222.730094 -91.91625 
L 222.220273 -91.91625 
L 221.710451 -91.91625 
L 221.200629 -91.91625 
L 220.690807 -91.91625 
L 220.180985 -91.91625 
L 219.671163 -91.91625 
L 219.161342 -91.91625 
L 218.65152 -91.91625 
L 218.141698 -91.91625 
L 217.631876 -91.91625 
L 217.122054 -91.91625 
L 216.612232 -91.91625 
L 216.10241 -91.91625 
L 215.592589 -91.91625 
L 215.082767 -91.91625 
L 214.572945 -91.91625 
L 214.063123 -91.91625 
L 213.553301 -91.91625 
L 213.043479 -91.91625 
L 212.533658 -91.91625 
L 212.023836 -91.91625 
L 211.514014 -91.91625 
L 211.004192 -91.91625 
L 210.49437 -91.91625 
L 209.984548 -91.91625 
L 209.474727 -91.91625 
L 208.964905 -91.91625 
L 208.455083 -91.91625 
L 207.945261 -91.91625 
L 207.435439 -91.91625 
L 206.925617 -91.91625 
L 206.415796 -91.91625 
L 205.905974 -91.91625 
L 205.396152 -91.91625 
L 204.88633 -91.91625 
L 204.376508 -91.91625 
L 203.866686 -91.91625 
L 203.356865 -91.91625 
L 202.847043 -91.91625 
L 202.337221 -91.91625 
L 201.827399 -91.91625 
L 201.317577 -91.91625 
L 200.807755 -91.91625 
L 200.297934 -91.91625 
L 199.788112 -91.91625 
L 199.27829 -91.91625 
L 198.768468 -91.91625 
L 198.258646 -91.91625 
L 197.748824 -91.91625 
L 197.239003 -91.91625 
L 196.729181 -91.91625 
L 196.219359 -91.91625 
L 195.709537 -91.91625 
L 195.199715 -91.91625 
L 194.689893 -91.91625 
L 194.180072 -91.91625 
L 193.67025 -91.91625 
L 193.160428 -91.91625 
L 192.650606 -91.91625 
L 192.140784 -91.91625 
L 191.630962 -91.91625 
L 191.121141 -91.91625 
L 190.611319 -91.91625 
L 190.101497 -91.91625 
L 189.591675 -91.91625 
L 189.081853 -91.91625 
L 188.572031 -91.91625 
L 188.062209 -91.91625 
L 187.552388 -91.91625 
L 187.042566 -91.91625 
L 186.532744 -91.91625 
L 186.022922 -91.91625 
L 185.5131 -91.91625 
L 185.003278 -91.91625 
L 184.493457 -91.91625 
L 183.983635 -91.91625 
L 183.473813 -91.91625 
L 182.963991 -91.91625 
L 182.454169 -91.91625 
L 181.944347 -91.91625 
L 181.434526 -91.91625 
L 180.924704 -91.91625 
L 180.414882 -91.91625 
L 179.90506 -91.91625 
L 179.395238 -91.91625 
L 178.885416 -91.91625 
L 178.375595 -91.91625 
L 177.865773 -91.91625 
L 177.355951 -91.91625 
L 176.846129 -91.91625 
L 176.336307 -91.91625 
L 175.826485 -91.91625 
L 175.316664 -91.91625 
L 174.806842 -91.91625 
L 174.29702 -91.91625 
L 173.787198 -91.91625 
L 173.277376 -91.91625 
L 172.767554 -91.91625 
L 172.257733 -91.91625 
L 171.747911 -91.91625 
L 171.238089 -91.91625 
L 170.728267 -91.91625 
L 170.218445 -91.91625 
L 169.708623 -91.91625 
L 169.198802 -91.91625 
L 168.68898 -91.91625 
L 168.179158 -91.91625 
L 167.669336 -91.91625 
L 167.159514 -91.91625 
L 166.649692 -91.91625 
L 166.139871 -91.91625 
L 165.630049 -91.91625 
L 165.120227 -91.91625 
L 164.610405 -91.91625 
L 164.100583 -91.91625 
L 163.590761 -91.91625 
L 163.080939 -91.91625 
L 162.571118 -91.91625 
L 162.061296 -91.91625 
L 161.551474 -91.91625 
L 161.041652 -91.91625 
L 160.53183 -91.91625 
L 160.022008 -91.91625 
L 159.512187 -91.91625 
L 159.002365 -91.91625 
L 158.492543 -91.91625 
L 157.982721 -91.91625 
L 157.472899 -91.91625 
L 156.963077 -91.91625 
L 156.453256 -91.91625 
L 155.943434 -91.91625 
L 155.433612 -91.91625 
L 154.92379 -91.91625 
L 154.413968 -91.91625 
L 153.904146 -91.91625 
L 153.394325 -91.91625 
L 152.884503 -91.91625 
L 152.374681 -91.91625 
L 151.864859 -91.91625 
L 151.355037 -91.91625 
L 150.845215 -91.91625 
L 150.335394 -91.91625 
L 149.825572 -91.91625 
L 149.31575 -91.91625 
L 148.805928 -91.91625 
L 148.296106 -91.91625 
L 147.786284 -91.91625 
L 147.276463 -91.91625 
L 146.766641 -91.91625 
L 146.256819 -91.91625 
L 145.746997 -91.91625 
L 145.237175 -91.91625 
L 144.727353 -91.91625 
L 144.217532 -91.91625 
L 143.70771 -91.91625 
L 143.197888 -91.91625 
L 142.688066 -91.91625 
L 142.178244 -91.91625 
L 141.668422 -91.91625 
L 141.158601 -91.91625 
L 140.648779 -91.91625 
L 140.138957 -91.91625 
L 139.629135 -91.91625 
L 139.119313 -91.91625 
L 138.609491 -91.91625 
L 138.09967 -91.91625 
L 137.589848 -91.91625 
L 137.080026 -91.91625 
L 136.570204 -91.91625 
L 136.060382 -91.91625 
L 135.55056 -91.91625 
L 135.040738 -91.91625 
L 134.530917 -91.91625 
L 134.021095 -91.91625 
L 133.511273 -91.91625 
L 133.001451 -91.91625 
L 132.491629 -91.91625 
L 131.981807 -91.91625 
L 131.471986 -91.91625 
L 130.962164 -91.91625 
L 130.452342 -91.91625 
L 129.94252 -91.91625 
L 129.432698 -91.91625 
L 128.922876 -91.91625 
L 128.413055 -91.91625 
L 127.903233 -91.91625 
L 127.393411 -91.91625 
L 126.883589 -91.91625 
L 126.373767 -91.91625 
L 125.863945 -91.91625 
L 125.354124 -91.91625 
L 124.844302 -91.91625 
L 124.33448 -91.91625 
L 123.824658 -91.91625 
L 123.314836 -91.91625 
L 122.805014 -91.91625 
L 122.295193 -91.91625 
L 121.785371 -91.91625 
L 121.275549 -91.91625 
L 120.765727 -91.91625 
L 120.255905 -91.91625 
L 119.746083 -91.91625 
L 119.236262 -91.91625 
L 118.72644 -91.91625 
L 118.216618 -91.91625 
L 117.706796 -91.91625 
L 117.196974 -91.91625 
L 116.687152 -91.91625 
L 116.177331 -91.91625 
L 115.667509 -91.91625 
L 115.157687 -91.91625 
L 114.647865 -91.91625 
L 114.138043 -91.91625 
L 113.628221 -91.91625 
L 113.1184 -91.91625 
L 112.608578 -91.91625 
L 112.098756 -91.91625 
L 111.588934 -91.91625 
L 111.079112 -91.91625 
L 110.56929 -91.91625 
L 110.059469 -91.91625 
L 109.549647 -91.91625 
L 109.039825 -91.91625 
L 108.530003 -91.91625 
L 108.020181 -91.91625 
L 107.510359 -91.91625 
L 107.000537 -91.91625 
L 106.490716 -91.91625 
L 105.980894 -91.91625 
L 105.471072 -91.91625 
L 104.96125 -91.91625 
L 104.451428 -91.91625 
L 103.941606 -91.91625 
L 103.431785 -91.91625 
L 102.921963 -91.91625 
L 102.412141 -91.91625 
L 101.902319 -91.91625 
L 101.392497 -91.91625 
L 100.882675 -91.91625 
L 100.372854 -91.91625 
L 99.863032 -91.91625 
L 99.35321 -91.91625 
L 98.843388 -91.91625 
L 98.333566 -91.91625 
L 97.823744 -91.91625 
L 97.313923 -91.91625 
L 96.804101 -91.91625 
L 96.294279 -91.91625 
L 95.784457 -91.91625 
L 95.274635 -91.91625 
L 94.764813 -91.91625 
L 94.254992 -91.91625 
L 93.74517 -91.91625 
L 93.235348 -91.91625 
L 92.725526 -91.91625 
L 92.215704 -91.91625 
L 91.705882 -91.91625 
L 91.196061 -91.91625 
L 90.686239 -91.91625 
L 90.176417 -91.91625 
L 89.666595 -91.91625 
L 89.156773 -91.91625 
L 88.646951 -91.91625 
L 88.13713 -91.91625 
L 87.627308 -91.91625 
L 87.117486 -91.91625 
L 86.607664 -91.91625 
L 86.097842 -91.91625 
L 85.58802 -91.91625 
L 85.078199 -91.91625 
L 84.568377 -91.91625 
L 84.058555 -91.91625 
L 83.548733 -91.91625 
L 83.038911 -91.91625 
L 82.529089 -91.91625 
L 82.019268 -91.91625 
L 81.509446 -91.91625 
L 80.999624 -91.91625 
L 80.489802 -91.91625 
L 79.97998 -91.91625 
L 79.470158 -91.91625 
L 78.960336 -91.91625 
L 78.450515 -91.91625 
L 77.940693 -91.91625 
L 77.430871 -91.91625 
L 76.921049 -91.91625 
L 76.411227 -91.91625 
L 75.901405 -91.91625 
L 75.391584 -91.91625 
L 74.881762 -91.91625 
L 74.37194 -91.91625 
L 73.862118 -91.91625 
L 73.352296 -91.91625 
L 72.842474 -91.91625 
L 72.332653 -91.91625 
L 71.822831 -91.91625 
L 71.313009 -91.91625 
L 70.803187 -91.91625 
L 70.293365 -91.91625 
L 69.783543 -91.91625 
L 69.273722 -91.91625 
z
" id="mc32a0bb0d4" style="stroke:#1e90ff;stroke-opacity:0.2;"/>
    </defs>
    <g clip-path="url(#pfa6f9588bc)">
     <use style="fill:#1e90ff;fill-opacity:0.2;stroke:#1e90ff;stroke-opacity:0.2;" x="0" xlink:href="#mc32a0bb0d4" y="153.47625"/>
    </g>
   </g>
   <g id="matplotlib.axis_1">
    <g id="xtick_1">
     <g id="line2d_1">
      <defs>
       <path d="M 0 0 
L 0 3.5 
" id="m829505d4c8" style="stroke:#000000;stroke-width:0.8;"/>
      </defs>
      <g>
       <use style="stroke:#000000;stroke-width:0.8;" x="69.273722" xlink:href="#m829505d4c8" y="115.92"/>
      </g>
     </g>
     <g id="text_1">
      <!-- 0 -->
      <g transform="translate(66.092472 130.518438)scale(0.1 -0.1)">
       <defs>
        <path d="M 31.78125 66.40625 
Q 24.171875 66.40625 20.328125 58.90625 
Q 16.5 51.421875 16.5 36.375 
Q 16.5 21.390625 20.328125 13.890625 
Q 24.171875 6.390625 31.78125 6.390625 
Q 39.453125 6.390625 43.28125 13.890625 
Q 47.125 21.390625 47.125 36.375 
Q 47.125 51.421875 43.28125 58.90625 
Q 39.453125 66.40625 31.78125 66.40625 
z
M 31.78125 74.21875 
Q 44.046875 74.21875 50.515625 64.515625 
Q 56.984375 54.828125 56.984375 36.375 
Q 56.984375 17.96875 50.515625 8.265625 
Q 44.046875 -1.421875 31.78125 -1.421875 
Q 19.53125 -1.421875 13.0625 8.265625 
Q 6.59375 17.96875 6.59375 36.375 
Q 6.59375 54.828125 13.0625 64.515625 
Q 19.53125 74.21875 31.78125 74.21875 
z
" id="DejaVuSans-48"/>
       </defs>
       <use xlink:href="#DejaVuSans-48"/>
      </g>
     </g>
    </g>
    <g id="xtick_2">
     <g id="line2d_2">
      <g>
       <use style="stroke:#000000;stroke-width:0.8;" x="120.255905" xlink:href="#m829505d4c8" y="115.92"/>
      </g>
     </g>
     <g id="text_2">
      <!-- 100 -->
      <g transform="translate(110.712155 130.518438)scale(0.1 -0.1)">
       <defs>
        <path d="M 12.40625 8.296875 
L 28.515625 8.296875 
L 28.515625 63.921875 
L 10.984375 60.40625 
L 10.984375 69.390625 
L 28.421875 72.90625 
L 38.28125 72.90625 
L 38.28125 8.296875 
L 54.390625 8.296875 
L 54.390625 0 
L 12.40625 0 
z
" id="DejaVuSans-49"/>
       </defs>
       <use xlink:href="#DejaVuSans-49"/>
       <use x="63.623047" xlink:href="#DejaVuSans-48"/>
       <use x="127.246094" xlink:href="#DejaVuSans-48"/>
      </g>
     </g>
    </g>
    <g id="xtick_3">
     <g id="line2d_3">
      <g>
       <use style="stroke:#000000;stroke-width:0.8;" x="171.238089" xlink:href="#m829505d4c8" y="115.92"/>
      </g>
     </g>
     <g id="text_3">
      <!-- 200 -->
      <g transform="translate(161.694339 130.518438)scale(0.1 -0.1)">
       <defs>
        <path d="M 19.1875 8.296875 
L 53.609375 8.296875 
L 53.609375 0 
L 7.328125 0 
L 7.328125 8.296875 
Q 12.9375 14.109375 22.625 23.890625 
Q 32.328125 33.6875 34.8125 36.53125 
Q 39.546875 41.84375 41.421875 45.53125 
Q 43.3125 49.21875 43.3125 52.78125 
Q 43.3125 58.59375 39.234375 62.25 
Q 35.15625 65.921875 28.609375 65.921875 
Q 23.96875 65.921875 18.8125 64.3125 
Q 13.671875 62.703125 7.8125 59.421875 
L 7.8125 69.390625 
Q 13.765625 71.78125 18.9375 73 
Q 24.125 74.21875 28.421875 74.21875 
Q 39.75 74.21875 46.484375 68.546875 
Q 53.21875 62.890625 53.21875 53.421875 
Q 53.21875 48.921875 51.53125 44.890625 
Q 49.859375 40.875 45.40625 35.40625 
Q 44.1875 33.984375 37.640625 27.21875 
Q 31.109375 20.453125 19.1875 8.296875 
z
" id="DejaVuSans-50"/>
       </defs>
       <use xlink:href="#DejaVuSans-50"/>
       <use x="63.623047" xlink:href="#DejaVuSans-48"/>
       <use x="127.246094" xlink:href="#DejaVuSans-48"/>
      </g>
     </g>
    </g>
    <g id="xtick_4">
     <g id="line2d_4">
      <g>
       <use style="stroke:#000000;stroke-width:0.8;" x="222.220273" xlink:href="#m829505d4c8" y="115.92"/>
      </g>
     </g>
     <g id="text_4">
      <!-- 300 -->
      <g transform="translate(212.676523 130.518438)scale(0.1 -0.1)">
       <defs>
        <path d="M 40.578125 39.3125 
Q 47.65625 37.796875 51.625 33 
Q 55.609375 28.21875 55.609375 21.1875 
Q 55.609375 10.40625 48.1875 4.484375 
Q 40.765625 -1.421875 27.09375 -1.421875 
Q 22.515625 -1.421875 17.65625 -0.515625 
Q 12.796875 0.390625 7.625 2.203125 
L 7.625 11.71875 
Q 11.71875 9.328125 16.59375 8.109375 
Q 21.484375 6.890625 26.8125 6.890625 
Q 36.078125 6.890625 40.9375 10.546875 
Q 45.796875 14.203125 45.796875 21.1875 
Q 45.796875 27.640625 41.28125 31.265625 
Q 36.765625 34.90625 28.71875 34.90625 
L 20.21875 34.90625 
L 20.21875 43.015625 
L 29.109375 43.015625 
Q 36.375 43.015625 40.234375 45.921875 
Q 44.09375 48.828125 44.09375 54.296875 
Q 44.09375 59.90625 40.109375 62.90625 
Q 36.140625 65.921875 28.71875 65.921875 
Q 24.65625 65.921875 20.015625 65.03125 
Q 15.375 64.15625 9.8125 62.3125 
L 9.8125 71.09375 
Q 15.4375 72.65625 20.34375 73.4375 
Q 25.25 74.21875 29.59375 74.21875 
Q 40.828125 74.21875 47.359375 69.109375 
Q 53.90625 64.015625 53.90625 55.328125 
Q 53.90625 49.265625 50.4375 45.09375 
Q 46.96875 40.921875 40.578125 39.3125 
z
" id="DejaVuSans-51"/>
       </defs>
       <use xlink:href="#DejaVuSans-51"/>
       <use x="63.623047" xlink:href="#DejaVuSans-48"/>
       <use x="127.246094" xlink:href="#DejaVuSans-48"/>
      </g>
     </g>
    </g>
    <g id="xtick_5">
     <g id="line2d_5">
      <g>
       <use style="stroke:#000000;stroke-width:0.8;" x="273.202456" xlink:href="#m829505d4c8" y="115.92"/>
      </g>
     </g>
     <g id="text_5">
      <!-- 400 -->
      <g transform="translate(263.658706 130.518438)scale(0.1 -0.1)">
       <defs>
        <path d="M 37.796875 64.3125 
L 12.890625 25.390625 
L 37.796875 25.390625 
z
M 35.203125 72.90625 
L 47.609375 72.90625 
L 47.609375 25.390625 
L 58.015625 25.390625 
L 58.015625 17.1875 
L 47.609375 17.1875 
L 47.609375 0 
L 37.796875 0 
L 37.796875 17.1875 
L 4.890625 17.1875 
L 4.890625 26.703125 
z
" id="DejaVuSans-52"/>
       </defs>
       <use xlink:href="#DejaVuSans-52"/>
       <use x="63.623047" xlink:href="#DejaVuSans-48"/>
       <use x="127.246094" xlink:href="#DejaVuSans-48"/>
      </g>
     </g>
    </g>
    <g id="xtick_6">
     <g id="line2d_6">
      <g>
       <use style="stroke:#000000;stroke-width:0.8;" x="324.18464" xlink:href="#m829505d4c8" y="115.92"/>
      </g>
     </g>
     <g id="text_6">
      <!-- 500 -->
      <g transform="translate(314.64089 130.518438)scale(0.1 -0.1)">
       <defs>
        <path d="M 10.796875 72.90625 
L 49.515625 72.90625 
L 49.515625 64.59375 
L 19.828125 64.59375 
L 19.828125 46.734375 
Q 21.96875 47.46875 24.109375 47.828125 
Q 26.265625 48.1875 28.421875 48.1875 
Q 40.625 48.1875 47.75 41.5 
Q 54.890625 34.8125 54.890625 23.390625 
Q 54.890625 11.625 47.5625 5.09375 
Q 40.234375 -1.421875 26.90625 -1.421875 
Q 22.3125 -1.421875 17.546875 -0.640625 
Q 12.796875 0.140625 7.71875 1.703125 
L 7.71875 11.625 
Q 12.109375 9.234375 16.796875 8.0625 
Q 21.484375 6.890625 26.703125 6.890625 
Q 35.15625 6.890625 40.078125 11.328125 
Q 45.015625 15.765625 45.015625 23.390625 
Q 45.015625 31 40.078125 35.4375 
Q 35.15625 39.890625 26.703125 39.890625 
Q 22.75 39.890625 18.8125 39.015625 
Q 14.890625 38.140625 10.796875 36.28125 
z
" id="DejaVuSans-53"/>
       </defs>
       <use xlink:href="#DejaVuSans-53"/>
       <use x="63.623047" xlink:href="#DejaVuSans-48"/>
       <use x="127.246094" xlink:href="#DejaVuSans-48"/>
      </g>
     </g>
    </g>
    <g id="xtick_7">
     <g id="line2d_7">
      <g>
       <use style="stroke:#000000;stroke-width:0.8;" x="375.166823" xlink:href="#m829505d4c8" y="115.92"/>
      </g>
     </g>
     <g id="text_7">
      <!-- 600 -->
      <g transform="translate(365.623073 130.518438)scale(0.1 -0.1)">
       <defs>
        <path d="M 33.015625 40.375 
Q 26.375 40.375 22.484375 35.828125 
Q 18.609375 31.296875 18.609375 23.390625 
Q 18.609375 15.53125 22.484375 10.953125 
Q 26.375 6.390625 33.015625 6.390625 
Q 39.65625 6.390625 43.53125 10.953125 
Q 47.40625 15.53125 47.40625 23.390625 
Q 47.40625 31.296875 43.53125 35.828125 
Q 39.65625 40.375 33.015625 40.375 
z
M 52.59375 71.296875 
L 52.59375 62.3125 
Q 48.875 64.0625 45.09375 64.984375 
Q 41.3125 65.921875 37.59375 65.921875 
Q 27.828125 65.921875 22.671875 59.328125 
Q 17.53125 52.734375 16.796875 39.40625 
Q 19.671875 43.65625 24.015625 45.921875 
Q 28.375 48.1875 33.59375 48.1875 
Q 44.578125 48.1875 50.953125 41.515625 
Q 57.328125 34.859375 57.328125 23.390625 
Q 57.328125 12.15625 50.6875 5.359375 
Q 44.046875 -1.421875 33.015625 -1.421875 
Q 20.359375 -1.421875 13.671875 8.265625 
Q 6.984375 17.96875 6.984375 36.375 
Q 6.984375 53.65625 15.1875 63.9375 
Q 23.390625 74.21875 37.203125 74.21875 
Q 40.921875 74.21875 44.703125 73.484375 
Q 48.484375 72.75 52.59375 71.296875 
z
" id="DejaVuSans-54"/>
       </defs>
       <use xlink:href="#DejaVuSans-54"/>
       <use x="63.623047" xlink:href="#DejaVuSans-48"/>
       <use x="127.246094" xlink:href="#DejaVuSans-48"/>
      </g>
     </g>
    </g>
    <g id="xtick_8">
     <g id="line2d_8">
      <g>
       <use style="stroke:#000000;stroke-width:0.8;" x="426.149007" xlink:href="#m829505d4c8" y="115.92"/>
      </g>
     </g>
     <g id="text_8">
      <!-- 700 -->
      <g transform="translate(416.605257 130.518438)scale(0.1 -0.1)">
       <defs>
        <path d="M 8.203125 72.90625 
L 55.078125 72.90625 
L 55.078125 68.703125 
L 28.609375 0 
L 18.3125 0 
L 43.21875 64.59375 
L 8.203125 64.59375 
z
" id="DejaVuSans-55"/>
       </defs>
       <use xlink:href="#DejaVuSans-55"/>
       <use x="63.623047" xlink:href="#DejaVuSans-48"/>
       <use x="127.246094" xlink:href="#DejaVuSans-48"/>
      </g>
     </g>
    </g>
    <g id="xtick_9">
     <g id="line2d_9">
      <g>
       <use style="stroke:#000000;stroke-width:0.8;" x="477.131191" xlink:href="#m829505d4c8" y="115.92"/>
      </g>
     </g>
     <g id="text_9">
      <!-- 800 -->
      <g transform="translate(467.587441 130.518438)scale(0.1 -0.1)">
       <defs>
        <path d="M 31.78125 34.625 
Q 24.75 34.625 20.71875 30.859375 
Q 16.703125 27.09375 16.703125 20.515625 
Q 16.703125 13.921875 20.71875 10.15625 
Q 24.75 6.390625 31.78125 6.390625 
Q 38.8125 6.390625 42.859375 10.171875 
Q 46.921875 13.96875 46.921875 20.515625 
Q 46.921875 27.09375 42.890625 30.859375 
Q 38.875 34.625 31.78125 34.625 
z
M 21.921875 38.8125 
Q 15.578125 40.375 12.03125 44.71875 
Q 8.5 49.078125 8.5 55.328125 
Q 8.5 64.0625 14.71875 69.140625 
Q 20.953125 74.21875 31.78125 74.21875 
Q 42.671875 74.21875 48.875 69.140625 
Q 55.078125 64.0625 55.078125 55.328125 
Q 55.078125 49.078125 51.53125 44.71875 
Q 48 40.375 41.703125 38.8125 
Q 48.828125 37.15625 52.796875 32.3125 
Q 56.78125 27.484375 56.78125 20.515625 
Q 56.78125 9.90625 50.3125 4.234375 
Q 43.84375 -1.421875 31.78125 -1.421875 
Q 19.734375 -1.421875 13.25 4.234375 
Q 6.78125 9.90625 6.78125 20.515625 
Q 6.78125 27.484375 10.78125 32.3125 
Q 14.796875 37.15625 21.921875 38.8125 
z
M 18.3125 54.390625 
Q 18.3125 48.734375 21.84375 45.5625 
Q 25.390625 42.390625 31.78125 42.390625 
Q 38.140625 42.390625 41.71875 45.5625 
Q 45.3125 48.734375 45.3125 54.390625 
Q 45.3125 60.0625 41.71875 63.234375 
Q 38.140625 66.40625 31.78125 66.40625 
Q 25.390625 66.40625 21.84375 63.234375 
Q 18.3125 60.0625 18.3125 54.390625 
z
" id="DejaVuSans-56"/>
       </defs>
       <use xlink:href="#DejaVuSans-56"/>
       <use x="63.623047" xlink:href="#DejaVuSans-48"/>
       <use x="127.246094" xlink:href="#DejaVuSans-48"/>
      </g>
     </g>
    </g>
    <g id="text_10">
     <!-- index -->
     <g transform="translate(258.502344 144.196562)scale(0.1 -0.1)">
      <defs>
       <path d="M 9.421875 54.6875 
L 18.40625 54.6875 
L 18.40625 0 
L 9.421875 0 
z
M 9.421875 75.984375 
L 18.40625 75.984375 
L 18.40625 64.59375 
L 9.421875 64.59375 
z
" id="DejaVuSans-105"/>
       <path d="M 54.890625 33.015625 
L 54.890625 0 
L 45.90625 0 
L 45.90625 32.71875 
Q 45.90625 40.484375 42.875 44.328125 
Q 39.84375 48.1875 33.796875 48.1875 
Q 26.515625 48.1875 22.3125 43.546875 
Q 18.109375 38.921875 18.109375 30.90625 
L 18.109375 0 
L 9.078125 0 
L 9.078125 54.6875 
L 18.109375 54.6875 
L 18.109375 46.1875 
Q 21.34375 51.125 25.703125 53.5625 
Q 30.078125 56 35.796875 56 
Q 45.21875 56 50.046875 50.171875 
Q 54.890625 44.34375 54.890625 33.015625 
z
" id="DejaVuSans-110"/>
       <path d="M 45.40625 46.390625 
L 45.40625 75.984375 
L 54.390625 75.984375 
L 54.390625 0 
L 45.40625 0 
L 45.40625 8.203125 
Q 42.578125 3.328125 38.25 0.953125 
Q 33.9375 -1.421875 27.875 -1.421875 
Q 17.96875 -1.421875 11.734375 6.484375 
Q 5.515625 14.40625 5.515625 27.296875 
Q 5.515625 40.1875 11.734375 48.09375 
Q 17.96875 56 27.875 56 
Q 33.9375 56 38.25 53.625 
Q 42.578125 51.265625 45.40625 46.390625 
z
M 14.796875 27.296875 
Q 14.796875 17.390625 18.875 11.75 
Q 22.953125 6.109375 30.078125 6.109375 
Q 37.203125 6.109375 41.296875 11.75 
Q 45.40625 17.390625 45.40625 27.296875 
Q 45.40625 37.203125 41.296875 42.84375 
Q 37.203125 48.484375 30.078125 48.484375 
Q 22.953125 48.484375 18.875 42.84375 
Q 14.796875 37.203125 14.796875 27.296875 
z
" id="DejaVuSans-100"/>
       <path d="M 56.203125 29.59375 
L 56.203125 25.203125 
L 14.890625 25.203125 
Q 15.484375 15.921875 20.484375 11.0625 
Q 25.484375 6.203125 34.421875 6.203125 
Q 39.59375 6.203125 44.453125 7.46875 
Q 49.3125 8.734375 54.109375 11.28125 
L 54.109375 2.78125 
Q 49.265625 0.734375 44.1875 -0.34375 
Q 39.109375 -1.421875 33.890625 -1.421875 
Q 20.796875 -1.421875 13.15625 6.1875 
Q 5.515625 13.8125 5.515625 26.8125 
Q 5.515625 40.234375 12.765625 48.109375 
Q 20.015625 56 32.328125 56 
Q 43.359375 56 49.78125 48.890625 
Q 56.203125 41.796875 56.203125 29.59375 
z
M 47.21875 32.234375 
Q 47.125 39.59375 43.09375 43.984375 
Q 39.0625 48.390625 32.421875 48.390625 
Q 24.90625 48.390625 20.390625 44.140625 
Q 15.875 39.890625 15.1875 32.171875 
z
" id="DejaVuSans-101"/>
       <path d="M 54.890625 54.6875 
L 35.109375 28.078125 
L 55.90625 0 
L 45.3125 0 
L 29.390625 21.484375 
L 13.484375 0 
L 2.875 0 
L 24.125 28.609375 
L 4.6875 54.6875 
L 15.28125 54.6875 
L 29.78125 35.203125 
L 44.28125 54.6875 
z
" id="DejaVuSans-120"/>
      </defs>
      <use xlink:href="#DejaVuSans-105"/>
      <use x="27.783203" xlink:href="#DejaVuSans-110"/>
      <use x="91.162109" xlink:href="#DejaVuSans-100"/>
      <use x="154.638672" xlink:href="#DejaVuSans-101"/>
      <use x="214.412109" xlink:href="#DejaVuSans-120"/>
     </g>
    </g>
   </g>
   <g id="matplotlib.axis_2">
    <g id="ytick_1">
     <g id="line2d_10">
      <defs>
       <path d="M 0 0 
L -3.5 0 
" id="m656345c01c" style="stroke:#000000;stroke-width:0.8;"/>
      </defs>
      <g>
       <use style="stroke:#000000;stroke-width:0.8;" x="48.982813" xlink:href="#m656345c01c" y="94.505455"/>
      </g>
     </g>
     <g id="text_11">
      <!-- 20 -->
      <g transform="translate(20.878125 98.304673)scale(0.1 -0.1)">
       <defs>
        <path d="M 10.59375 35.5 
L 73.1875 35.5 
L 73.1875 27.203125 
L 10.59375 27.203125 
z
" id="DejaVuSans-8722"/>
       </defs>
       <use xlink:href="#DejaVuSans-8722"/>
       <use x="83.789062" xlink:href="#DejaVuSans-50"/>
       <use x="147.412109" xlink:href="#DejaVuSans-48"/>
      </g>
     </g>
    </g>
    <g id="ytick_2">
     <g id="line2d_11">
      <g>
       <use style="stroke:#000000;stroke-width:0.8;" x="48.982813" xlink:href="#m656345c01c" y="61.56"/>
      </g>
     </g>
     <g id="text_12">
      <!-- 0 -->
      <g transform="translate(35.620313 65.359219)scale(0.1 -0.1)">
       <use xlink:href="#DejaVuSans-48"/>
      </g>
     </g>
    </g>
    <g id="ytick_3">
     <g id="line2d_12">
      <g>
       <use style="stroke:#000000;stroke-width:0.8;" x="48.982813" xlink:href="#m656345c01c" y="28.614545"/>
      </g>
     </g>
     <g id="text_13">
      <!-- 20 -->
      <g transform="translate(29.257813 32.413764)scale(0.1 -0.1)">
       <use xlink:href="#DejaVuSans-50"/>
       <use x="63.623047" xlink:href="#DejaVuSans-48"/>
      </g>
     </g>
    </g>
    <g id="text_14">
     <!-- SSE signal -->
     <g transform="translate(14.798438 87.446719)rotate(-90)scale(0.1 -0.1)">
      <defs>
       <path d="M 53.515625 70.515625 
L 53.515625 60.890625 
Q 47.90625 63.578125 42.921875 64.890625 
Q 37.9375 66.21875 33.296875 66.21875 
Q 25.25 66.21875 20.875 63.09375 
Q 16.5 59.96875 16.5 54.203125 
Q 16.5 49.359375 19.40625 46.890625 
Q 22.3125 44.4375 30.421875 42.921875 
L 36.375 41.703125 
Q 47.40625 39.59375 52.65625 34.296875 
Q 57.90625 29 57.90625 20.125 
Q 57.90625 9.515625 50.796875 4.046875 
Q 43.703125 -1.421875 29.984375 -1.421875 
Q 24.8125 -1.421875 18.96875 -0.25 
Q 13.140625 0.921875 6.890625 3.21875 
L 6.890625 13.375 
Q 12.890625 10.015625 18.65625 8.296875 
Q 24.421875 6.59375 29.984375 6.59375 
Q 38.421875 6.59375 43.015625 9.90625 
Q 47.609375 13.234375 47.609375 19.390625 
Q 47.609375 24.75 44.3125 27.78125 
Q 41.015625 30.8125 33.5 32.328125 
L 27.484375 33.5 
Q 16.453125 35.6875 11.515625 40.375 
Q 6.59375 45.0625 6.59375 53.421875 
Q 6.59375 63.09375 13.40625 68.65625 
Q 20.21875 74.21875 32.171875 74.21875 
Q 37.3125 74.21875 42.625 73.28125 
Q 47.953125 72.359375 53.515625 70.515625 
z
" id="DejaVuSans-83"/>
       <path d="M 9.8125 72.90625 
L 55.90625 72.90625 
L 55.90625 64.59375 
L 19.671875 64.59375 
L 19.671875 43.015625 
L 54.390625 43.015625 
L 54.390625 34.71875 
L 19.671875 34.71875 
L 19.671875 8.296875 
L 56.78125 8.296875 
L 56.78125 0 
L 9.8125 0 
z
" id="DejaVuSans-69"/>
       <path id="DejaVuSans-32"/>
       <path d="M 44.28125 53.078125 
L 44.28125 44.578125 
Q 40.484375 46.53125 36.375 47.5 
Q 32.28125 48.484375 27.875 48.484375 
Q 21.1875 48.484375 17.84375 46.4375 
Q 14.5 44.390625 14.5 40.28125 
Q 14.5 37.15625 16.890625 35.375 
Q 19.28125 33.59375 26.515625 31.984375 
L 29.59375 31.296875 
Q 39.15625 29.25 43.1875 25.515625 
Q 47.21875 21.78125 47.21875 15.09375 
Q 47.21875 7.46875 41.1875 3.015625 
Q 35.15625 -1.421875 24.609375 -1.421875 
Q 20.21875 -1.421875 15.453125 -0.5625 
Q 10.6875 0.296875 5.421875 2 
L 5.421875 11.28125 
Q 10.40625 8.6875 15.234375 7.390625 
Q 20.0625 6.109375 24.8125 6.109375 
Q 31.15625 6.109375 34.5625 8.28125 
Q 37.984375 10.453125 37.984375 14.40625 
Q 37.984375 18.0625 35.515625 20.015625 
Q 33.0625 21.96875 24.703125 23.78125 
L 21.578125 24.515625 
Q 13.234375 26.265625 9.515625 29.90625 
Q 5.8125 33.546875 5.8125 39.890625 
Q 5.8125 47.609375 11.28125 51.796875 
Q 16.75 56 26.8125 56 
Q 31.78125 56 36.171875 55.265625 
Q 40.578125 54.546875 44.28125 53.078125 
z
" id="DejaVuSans-115"/>
       <path d="M 45.40625 27.984375 
Q 45.40625 37.75 41.375 43.109375 
Q 37.359375 48.484375 30.078125 48.484375 
Q 22.859375 48.484375 18.828125 43.109375 
Q 14.796875 37.75 14.796875 27.984375 
Q 14.796875 18.265625 18.828125 12.890625 
Q 22.859375 7.515625 30.078125 7.515625 
Q 37.359375 7.515625 41.375 12.890625 
Q 45.40625 18.265625 45.40625 27.984375 
z
M 54.390625 6.78125 
Q 54.390625 -7.171875 48.1875 -13.984375 
Q 42 -20.796875 29.203125 -20.796875 
Q 24.46875 -20.796875 20.265625 -20.09375 
Q 16.0625 -19.390625 12.109375 -17.921875 
L 12.109375 -9.1875 
Q 16.0625 -11.328125 19.921875 -12.34375 
Q 23.78125 -13.375 27.78125 -13.375 
Q 36.625 -13.375 41.015625 -8.765625 
Q 45.40625 -4.15625 45.40625 5.171875 
L 45.40625 9.625 
Q 42.625 4.78125 38.28125 2.390625 
Q 33.9375 0 27.875 0 
Q 17.828125 0 11.671875 7.65625 
Q 5.515625 15.328125 5.515625 27.984375 
Q 5.515625 40.671875 11.671875 48.328125 
Q 17.828125 56 27.875 56 
Q 33.9375 56 38.28125 53.609375 
Q 42.625 51.21875 45.40625 46.390625 
L 45.40625 54.6875 
L 54.390625 54.6875 
z
" id="DejaVuSans-103"/>
       <path d="M 34.28125 27.484375 
Q 23.390625 27.484375 19.1875 25 
Q 14.984375 22.515625 14.984375 16.5 
Q 14.984375 11.71875 18.140625 8.90625 
Q 21.296875 6.109375 26.703125 6.109375 
Q 34.1875 6.109375 38.703125 11.40625 
Q 43.21875 16.703125 43.21875 25.484375 
L 43.21875 27.484375 
z
M 52.203125 31.203125 
L 52.203125 0 
L 43.21875 0 
L 43.21875 8.296875 
Q 40.140625 3.328125 35.546875 0.953125 
Q 30.953125 -1.421875 24.3125 -1.421875 
Q 15.921875 -1.421875 10.953125 3.296875 
Q 6 8.015625 6 15.921875 
Q 6 25.140625 12.171875 29.828125 
Q 18.359375 34.515625 30.609375 34.515625 
L 43.21875 34.515625 
L 43.21875 35.40625 
Q 43.21875 41.609375 39.140625 45 
Q 35.0625 48.390625 27.6875 48.390625 
Q 23 48.390625 18.546875 47.265625 
Q 14.109375 46.140625 10.015625 43.890625 
L 10.015625 52.203125 
Q 14.9375 54.109375 19.578125 55.046875 
Q 24.21875 56 28.609375 56 
Q 40.484375 56 46.34375 49.84375 
Q 52.203125 43.703125 52.203125 31.203125 
z
" id="DejaVuSans-97"/>
       <path d="M 9.421875 75.984375 
L 18.40625 75.984375 
L 18.40625 0 
L 9.421875 0 
z
" id="DejaVuSans-108"/>
      </defs>
      <use xlink:href="#DejaVuSans-83"/>
      <use x="63.476562" xlink:href="#DejaVuSans-83"/>
      <use x="126.953125" xlink:href="#DejaVuSans-69"/>
      <use x="190.136719" xlink:href="#DejaVuSans-32"/>
      <use x="221.923828" xlink:href="#DejaVuSans-115"/>
      <use x="274.023438" xlink:href="#DejaVuSans-105"/>
      <use x="301.806641" xlink:href="#DejaVuSans-103"/>
      <use x="365.283203" xlink:href="#DejaVuSans-110"/>
      <use x="428.662109" xlink:href="#DejaVuSans-97"/>
      <use x="489.941406" xlink:href="#DejaVuSans-108"/>
     </g>
    </g>
   </g>
   <g id="LineCollection_1">
    <path clip-path="url(#pfa6f9588bc)" d="M 69.273722 61.56 
L 475.091903 61.56 
" style="fill:none;stroke:#1f77b4;stroke-width:1.5;"/>
   </g>
   <g id="LineCollection_2">
    <path clip-path="url(#pfa6f9588bc)" d="M 338.459651 94.505455 
L 338.459651 28.614545 
" style="fill:none;stroke:#808080;stroke-dasharray:3.7,1.6;stroke-dashoffset:0;"/>
   </g>
   <g id="LineCollection_3">
    <path clip-path="url(#pfa6f9588bc)" d="M 395.049875 94.505455 
L 395.049875 28.614545 
" style="fill:none;stroke:#808080;stroke-dasharray:3.7,1.6;stroke-dashoffset:0;"/>
   </g>
   <g id="LineCollection_4">
    <path clip-path="url(#pfa6f9588bc)" d="M 393.52041 110.978182 
L 393.52041 12.141818 
" style="fill:none;stroke:#000000;stroke-width:1.5;"/>
   </g>
   <g id="line2d_13">
    <path clip-path="url(#pfa6f9588bc)" d="M 69.273722 61.56 
L 345.087335 61.56 
L 345.597157 78.032727 
L 347.126622 78.032727 
L 347.636444 61.56 
L 355.793594 61.56 
L 356.303416 78.032727 
L 357.832881 78.032727 
L 358.342703 61.56 
L 359.872168 61.56 
L 360.38199 78.032727 
L 364.460565 78.032727 
L 364.970387 61.56 
L 365.99003 61.56 
L 366.499852 78.032727 
L 377.206111 78.032727 
L 377.715933 61.56 
L 379.75522 61.56 
L 380.265042 78.032727 
L 390.461479 78.032727 
L 390.9713 61.56 
L 391.481122 78.032727 
L 391.990944 78.032727 
L 392.500766 61.56 
L 395.049875 61.56 
L 395.559697 45.087273 
L 397.089162 45.087273 
L 397.598984 61.56 
L 399.12845 61.56 
L 399.638272 45.087273 
L 403.716846 45.087273 
L 404.226668 61.56 
L 407.795421 61.56 
L 408.305243 45.087273 
L 410.34453 45.087273 
L 410.854352 61.56 
L 414.423105 61.56 
L 414.932927 45.087273 
L 416.972214 45.087273 
L 417.482036 61.56 
L 417.991858 61.56 
L 418.50168 78.032727 
L 419.011501 78.032727 
L 419.521323 61.56 
L 421.560611 61.56 
L 422.070432 45.087273 
L 426.149007 45.087273 
L 426.658829 61.56 
L 433.286513 61.56 
L 433.796335 45.087273 
L 439.404375 45.087273 
L 439.914197 61.56 
L 445.522237 61.56 
L 446.032059 45.087273 
L 448.071346 45.087273 
L 448.581168 61.56 
L 452.659743 61.56 
L 453.169564 45.087273 
L 456.228495 45.087273 
L 456.738317 61.56 
L 458.777605 61.56 
L 459.287426 45.087273 
L 459.797248 45.087273 
L 460.30707 61.56 
L 461.836536 61.56 
L 462.346357 45.087273 
L 464.385645 45.087273 
L 464.895467 61.56 
L 466.424932 61.56 
L 466.934754 45.087273 
L 468.974041 45.087273 
L 469.483863 61.56 
L 471.523151 61.56 
L 472.032972 45.087273 
L 474.582082 45.087273 
L 474.582082 45.087273 
" style="fill:none;stroke:#808080;stroke-linecap:square;stroke-width:1.5;"/>
   </g>
   <g id="line2d_14">
    <path clip-path="url(#pfa6f9588bc)" d="M 69.273722 61.56 
L 337.949829 61.56 
L 339.989117 68.149091 
L 348.656088 68.149091 
L 350.695375 74.738182 
L 352.734663 74.738182 
L 353.244484 76.385455 
L 355.283772 76.385455 
L 357.323059 82.974545 
L 358.852525 82.974545 
L 363.950743 99.447273 
L 365.99003 99.447273 
L 368.029318 106.036364 
L 370.068605 106.036364 
L 372.617714 97.8 
L 374.14718 102.741818 
L 383.323973 102.741818 
L 383.833795 101.094545 
L 384.853438 101.094545 
L 385.36326 99.447273 
L 387.912369 99.447273 
L 389.951657 86.269091 
L 391.990944 79.68 
L 396.579341 50.029091 
L 398.618628 43.44 
L 399.12845 43.44 
L 400.148093 40.145455 
L 400.657915 40.145455 
L 403.207024 31.909091 
L 405.246312 38.498182 
L 409.834708 38.498182 
L 410.854352 41.792727 
L 411.873996 48.381818 
L 414.423105 48.381818 
L 415.95257 43.44 
L 418.50168 43.44 
L 419.011501 41.792727 
L 422.580254 41.792727 
L 425.129363 50.029091 
L 426.149007 50.029091 
L 427.168651 43.44 
L 429.71776 35.203636 
L 432.266869 35.203636 
L 434.306156 41.792727 
L 438.384731 41.792727 
L 440.93384 33.556364 
L 441.443662 33.556364 
L 445.522237 46.734545 
L 447.561524 46.734545 
L 449.09099 41.792727 
L 451.640099 41.792727 
L 452.659743 38.498182 
L 453.679386 38.498182 
L 454.69903 41.792727 
L 456.228495 41.792727 
L 457.248139 38.498182 
L 459.287426 38.498182 
L 460.816892 33.556364 
L 461.836536 33.556364 
L 464.385645 41.792727 
L 466.934754 33.556364 
L 467.444576 33.556364 
L 467.954398 35.203636 
L 469.993685 35.203636 
L 472.542794 43.44 
L 474.582082 43.44 
L 474.582082 43.44 
" style="fill:none;stroke:#1e90ff;stroke-linecap:square;stroke-width:1.5;"/>
   </g>
   <g id="patch_3">
    <path d="M 48.982813 115.92 
L 48.982813 7.2 
" style="fill:none;stroke:#000000;stroke-linecap:square;stroke-linejoin:miter;stroke-width:0.8;"/>
   </g>
   <g id="patch_4">
    <path d="M 495.382812 115.92 
L 495.382812 7.2 
" style="fill:none;stroke:#000000;stroke-linecap:square;stroke-linejoin:miter;stroke-width:0.8;"/>
   </g>
   <g id="patch_5">
    <path d="M 48.982813 115.92 
L 495.382812 115.92 
" style="fill:none;stroke:#000000;stroke-linecap:square;stroke-linejoin:miter;stroke-width:0.8;"/>
   </g>
   <g id="patch_6">
    <path d="M 48.982813 7.2 
L 495.382812 7.2 
" style="fill:none;stroke:#000000;stroke-linecap:square;stroke-linejoin:miter;stroke-width:0.8;"/>
   </g>
  </g>
 </g>
 <defs>
  <clipPath id="pfa6f9588bc">
   <rect height="108.72" width="446.4" x="48.982813" y="7.2"/>
  </clipPath>
 </defs>
</svg>
