<?xml version="1.0" encoding="utf-8" standalone="no"?>
<!DOCTYPE svg PUBLIC "-//W3C//DTD SVG 1.1//EN"
  "http://www.w3.org/Graphics/SVG/1.1/DTD/svg11.dtd">
<svg xmlns:xlink="http://www.w3.org/1999/xlink" width="502.582812pt" height="153.47625pt" viewBox="0 0 502.582812 153.47625" xmlns="http://www.w3.org/2000/svg" version="1.1">
 <metadata>
  <rdf:RDF xmlns:dc="http://purl.org/dc/elements/1.1/" xmlns:cc="http://creativecommons.org/ns#" xmlns:rdf="http://www.w3.org/1999/02/22-rdf-syntax-ns#">
   <cc:Work>
    <dc:type rdf:resource="http://purl.org/dc/dcmitype/StillImage"/>
    <dc:date>2023-02-09T15:14:59.554950</dc:date>
    <dc:format>image/svg+xml</dc:format>
    <dc:creator>
     <cc:Agent>
      <dc:title>Matplotlib v3.5.1, https://matplotlib.org/</dc:title>
     </cc:Agent>
    </dc:creator>
   </cc:Work>
  </rdf:RDF>
 </metadata>
 <defs>
  <style type="text/css">*{stroke-linejoin: round; stroke-linecap: butt}</style>
 </defs>
 <g id="figure_1">
  <g id="patch_1">
   <path d="M 0 153.47625 
L 502.582812 153.47625 
L 502.582812 0 
L 0 0 
z
" style="fill: #ffffff"/>
  </g>
  <g id="axes_1">
   <g id="patch_2">
    <path d="M 48.982813 115.92 
L 495.382812 115.92 
L 495.382812 7.2 
L 48.982813 7.2 
z
" style="fill: #ffffff"/>
   </g>
   <g id="PolyCollection_1">
    <defs>
     <path id="m5e4d68075c" d="M 69.273722 -91.91625 
L 69.273722 -91.91625 
L 70.004926 -91.91625 
L 70.736129 -91.91625 
L 71.467333 -91.91625 
L 72.198537 -91.91625 
L 72.929741 -91.91625 
L 73.660945 -91.91625 
L 74.392149 -91.91625 
L 75.123353 -91.91625 
L 75.854557 -91.91625 
L 76.585761 -91.91625 
L 77.316965 -91.91625 
L 78.048169 -91.91625 
L 78.779373 -91.91625 
L 79.510577 -91.91625 
L 80.241781 -91.91625 
L 80.972984 -91.91625 
L 81.704188 -91.91625 
L 82.435392 -91.91625 
L 83.166596 -91.91625 
L 83.8978 -91.91625 
L 84.629004 -91.91625 
L 85.360208 -91.91625 
L 86.091412 -91.91625 
L 86.822616 -91.91625 
L 87.55382 -91.91625 
L 88.285024 -91.91625 
L 89.016228 -91.91625 
L 89.747432 -91.91625 
L 90.478636 -91.91625 
L 91.20984 -91.91625 
L 91.941043 -91.91625 
L 92.672247 -91.91625 
L 93.403451 -91.91625 
L 94.134655 -91.91625 
L 94.865859 -91.91625 
L 95.597063 -91.91625 
L 96.328267 -91.91625 
L 97.059471 -91.91625 
L 97.790675 -91.91625 
L 98.521879 -91.91625 
L 99.253083 -91.91625 
L 99.984287 -91.91625 
L 100.715491 -91.91625 
L 101.446695 -91.91625 
L 102.177898 -91.91625 
L 102.909102 -91.91625 
L 103.640306 -91.91625 
L 104.37151 -91.91625 
L 105.102714 -91.91625 
L 105.833918 -91.91625 
L 106.565122 -91.91625 
L 107.296326 -91.91625 
L 108.02753 -91.91625 
L 108.758734 -91.91625 
L 109.489938 -91.91625 
L 110.221142 -91.91625 
L 110.952346 -91.91625 
L 111.68355 -91.91625 
L 112.414754 -91.91625 
L 113.145957 -91.91625 
L 113.877161 -91.91625 
L 114.608365 -91.91625 
L 115.339569 -91.91625 
L 116.070773 -91.91625 
L 116.801977 -91.91625 
L 117.533181 -91.91625 
L 118.264385 -91.91625 
L 118.995589 -91.91625 
L 119.726793 -91.91625 
L 120.457997 -91.91625 
L 121.189201 -91.91625 
L 121.920405 -91.91625 
L 122.651609 -91.91625 
L 123.382813 -91.91625 
L 124.114016 -91.91625 
L 124.84522 -91.91625 
L 125.576424 -91.91625 
L 126.307628 -91.91625 
L 127.038832 -91.91625 
L 127.770036 -91.91625 
L 128.50124 -91.91625 
L 129.232444 -91.91625 
L 129.963648 -91.91625 
L 130.694852 -91.91625 
L 131.426056 -91.91625 
L 132.15726 -91.91625 
L 132.888464 -91.91625 
L 133.619668 -91.91625 
L 134.350871 -91.91625 
L 135.082075 -91.91625 
L 135.813279 -91.91625 
L 136.544483 -91.91625 
L 137.275687 -91.91625 
L 138.006891 -91.91625 
L 138.738095 -91.91625 
L 139.469299 -91.91625 
L 140.200503 -91.91625 
L 140.931707 -91.91625 
L 141.662911 -91.91625 
L 142.394115 -91.91625 
L 143.125319 -91.91625 
L 143.856523 -91.91625 
L 144.587727 -91.91625 
L 145.31893 -91.91625 
L 146.050134 -91.91625 
L 146.781338 -91.91625 
L 147.512542 -91.91625 
L 148.243746 -91.91625 
L 148.97495 -91.91625 
L 149.706154 -91.91625 
L 150.437358 -91.91625 
L 151.168562 -91.91625 
L 151.899766 -91.91625 
L 152.63097 -91.91625 
L 153.362174 -91.91625 
L 154.093378 -91.91625 
L 154.824582 -91.91625 
L 155.555785 -91.91625 
L 156.286989 -91.91625 
L 157.018193 -91.91625 
L 157.749397 -91.91625 
L 158.480601 -91.91625 
L 159.211805 -91.91625 
L 159.943009 -91.91625 
L 160.674213 -91.91625 
L 161.405417 -91.91625 
L 162.136621 -91.91625 
L 162.867825 -91.91625 
L 163.599029 -91.91625 
L 164.330233 -91.91625 
L 165.061437 -91.91625 
L 165.792641 -91.91625 
L 166.523844 -91.91625 
L 167.255048 -91.91625 
L 167.986252 -91.91625 
L 168.717456 -91.91625 
L 169.44866 -91.91625 
L 170.179864 -91.91625 
L 170.911068 -91.91625 
L 171.642272 -91.91625 
L 172.373476 -91.91625 
L 173.10468 -91.91625 
L 173.835884 -91.91625 
L 174.567088 -91.91625 
L 175.298292 -91.91625 
L 176.029496 -91.91625 
L 176.760699 -91.91625 
L 177.491903 -91.91625 
L 178.223107 -91.91625 
L 178.954311 -91.91625 
L 179.685515 -91.91625 
L 180.416719 -91.91625 
L 181.147923 -91.91625 
L 181.879127 -91.91625 
L 182.610331 -91.91625 
L 183.341535 -91.91625 
L 184.072739 -91.91625 
L 184.803943 -91.91625 
L 185.535147 -91.91625 
L 186.266351 -91.91625 
L 186.997555 -91.91625 
L 187.728758 -91.91625 
L 188.459962 -91.91625 
L 189.191166 -91.91625 
L 189.92237 -91.91625 
L 190.653574 -91.91625 
L 191.384778 -91.91625 
L 192.115982 -91.91625 
L 192.847186 -91.91625 
L 193.57839 -91.91625 
L 194.309594 -91.91625 
L 195.040798 -91.91625 
L 195.772002 -91.91625 
L 196.503206 -91.91625 
L 197.23441 -91.91625 
L 197.965613 -91.91625 
L 198.696817 -91.91625 
L 199.428021 -91.91625 
L 200.159225 -91.91625 
L 200.890429 -91.91625 
L 201.621633 -91.91625 
L 202.352837 -91.91625 
L 203.084041 -91.91625 
L 203.815245 -91.91625 
L 204.546449 -91.91625 
L 205.277653 -91.91625 
L 206.008857 -91.91625 
L 206.740061 -91.91625 
L 207.471265 -91.91625 
L 208.202469 -91.91625 
L 208.933672 -91.91625 
L 209.664876 -91.91625 
L 210.39608 -91.91625 
L 211.127284 -91.91625 
L 211.858488 -91.91625 
L 212.589692 -91.91625 
L 213.320896 -91.91625 
L 214.0521 -91.91625 
L 214.783304 -91.91625 
L 215.514508 -91.91625 
L 216.245712 -91.91625 
L 216.976916 -91.91625 
L 217.70812 -91.91625 
L 218.439324 -91.91625 
L 219.170527 -91.91625 
L 219.901731 -91.91625 
L 220.632935 -91.91625 
L 221.364139 -91.91625 
L 222.095343 -91.91625 
L 222.826547 -91.91625 
L 223.557751 -91.91625 
L 224.288955 -91.91625 
L 225.020159 -91.91625 
L 225.751363 -91.91625 
L 226.482567 -91.91625 
L 227.213771 -91.91625 
L 227.944975 -91.91625 
L 228.676179 -91.91625 
L 229.407383 -91.91625 
L 230.138586 -91.91625 
L 230.86979 -91.91625 
L 231.600994 -91.91625 
L 232.332198 -91.91625 
L 233.063402 -91.91625 
L 233.794606 -91.91625 
L 234.52581 -91.91625 
L 235.257014 -91.91625 
L 235.988218 -91.91625 
L 236.719422 -91.91625 
L 237.450626 -91.91625 
L 238.18183 -91.91625 
L 238.913034 -91.91625 
L 239.644238 -91.91625 
L 240.375441 -91.91625 
L 241.106645 -91.91625 
L 241.837849 -91.91625 
L 242.569053 -91.91625 
L 243.300257 -91.91625 
L 244.031461 -91.91625 
L 244.762665 -91.91625 
L 245.493869 -91.91625 
L 246.225073 -91.91625 
L 246.956277 -91.91625 
L 247.687481 -91.91625 
L 248.418685 -91.91625 
L 249.149889 -91.91625 
L 249.881093 -91.91625 
L 250.612297 -91.91625 
L 251.3435 -91.91625 
L 252.074704 -91.91625 
L 252.805908 -91.91625 
L 253.537112 -91.91625 
L 254.268316 -91.91625 
L 254.99952 -91.91625 
L 255.730724 -91.91625 
L 256.461928 -91.91625 
L 257.193132 -91.91625 
L 257.924336 -91.91625 
L 258.65554 -91.91625 
L 259.386744 -91.91625 
L 260.117948 -91.91625 
L 260.849152 -90.268977 
L 261.580355 -88.621705 
L 262.311559 -86.974432 
L 263.042763 -85.327159 
L 263.773967 -83.679886 
L 264.505171 -82.032614 
L 265.236375 -80.385341 
L 265.967579 -78.738068 
L 266.698783 -77.090795 
L 267.429987 -77.090795 
L 268.161191 -75.443523 
L 268.892395 -73.79625 
L 269.623599 -73.79625 
L 270.354803 -73.79625 
L 271.086007 -73.79625 
L 271.817211 -73.79625 
L 272.548414 -73.79625 
L 273.279618 -72.148977 
L 274.010822 -70.501705 
L 274.742026 -68.854432 
L 275.47323 -67.207159 
L 276.204434 -65.559886 
L 276.935638 -63.912614 
L 277.666842 -62.265341 
L 278.398046 -60.618068 
L 279.12925 -58.970795 
L 279.860454 -57.323523 
L 280.591658 -55.67625 
L 281.322862 -54.028977 
L 282.054066 -54.028977 
L 282.78527 -55.67625 
L 283.516473 -57.323523 
L 284.247677 -58.970795 
L 284.978881 -60.618068 
L 285.710085 -62.265341 
L 286.441289 -63.912614 
L 287.172493 -65.559886 
L 287.903697 -67.207159 
L 288.634901 -67.207159 
L 289.366105 -65.559886 
L 290.097309 -65.559886 
L 290.828513 -65.559886 
L 291.559717 -63.912614 
L 292.290921 -62.265341 
L 293.022125 -60.618068 
L 293.753328 -58.970795 
L 294.484532 -57.323523 
L 295.215736 -57.323523 
L 295.94694 -57.323523 
L 296.678144 -57.323523 
L 297.409348 -57.323523 
L 298.140552 -57.323523 
L 298.871756 -57.323523 
L 299.60296 -57.323523 
L 300.334164 -57.323523 
L 301.065368 -57.323523 
L 301.796572 -58.970795 
L 302.527776 -60.618068 
L 303.25898 -62.265341 
L 303.990184 -62.265341 
L 304.721387 -60.618068 
L 305.452591 -58.970795 
L 306.183795 -57.323523 
L 306.914999 -55.67625 
L 307.646203 -54.028977 
L 308.377407 -52.381705 
L 309.108611 -52.381705 
L 309.839815 -52.381705 
L 310.571019 -52.381705 
L 311.302223 -52.381705 
L 312.033427 -52.381705 
L 312.764631 -52.381705 
L 313.495835 -52.381705 
L 314.227039 -52.381705 
L 314.958242 -52.381705 
L 315.689446 -52.381705 
L 316.42065 -52.381705 
L 317.151854 -52.381705 
L 317.883058 -52.381705 
L 318.614262 -52.381705 
L 319.345466 -52.381705 
L 320.07667 -52.381705 
L 320.807874 -52.381705 
L 321.539078 -52.381705 
L 322.270282 -52.381705 
L 323.001486 -52.381705 
L 323.73269 -50.734432 
L 324.463894 -49.087159 
L 325.195098 -49.087159 
L 325.926301 -49.087159 
L 326.657505 -50.734432 
L 327.388709 -52.381705 
L 328.119913 -54.028977 
L 328.851117 -55.67625 
L 329.582321 -57.323523 
L 330.313525 -58.970795 
L 331.044729 -60.618068 
L 331.775933 -62.265341 
L 332.507137 -65.559886 
L 333.238341 -68.854432 
L 333.969545 -72.148977 
L 334.700749 -75.443523 
L 335.431953 -77.090795 
L 336.163156 -78.738068 
L 336.89436 -80.385341 
L 337.625564 -83.679886 
L 338.356768 -86.974432 
L 339.087972 -90.268977 
L 339.819176 -93.563523 
L 340.55038 -96.858068 
L 341.281584 -100.152614 
L 342.012788 -103.447159 
L 342.743992 -105.094432 
L 343.475196 -106.741705 
L 344.2064 -106.741705 
L 344.937604 -106.741705 
L 345.668808 -108.388977 
L 346.400012 -110.03625 
L 347.131215 -110.03625 
L 347.862419 -110.03625 
L 348.593623 -110.03625 
L 349.324827 -111.683523 
L 350.056031 -113.330795 
L 350.787235 -114.978068 
L 351.518439 -114.978068 
L 352.249643 -114.978068 
L 352.980847 -113.330795 
L 353.712051 -111.683523 
L 354.443255 -110.03625 
L 355.174459 -108.388977 
L 355.905663 -106.741705 
L 356.636867 -106.741705 
L 357.36807 -108.388977 
L 358.099274 -110.03625 
L 358.830478 -111.683523 
L 359.561682 -110.03625 
L 360.292886 -106.741705 
L 361.02409 -103.447159 
L 361.755294 -101.799886 
L 362.486498 -100.152614 
L 363.217702 -98.505341 
L 363.948906 -96.858068 
L 364.68011 -96.858068 
L 365.411314 -96.858068 
L 366.142518 -98.505341 
L 366.873722 -101.799886 
L 367.604926 -103.447159 
L 368.336129 -105.094432 
L 369.067333 -106.741705 
L 369.798537 -108.388977 
L 370.529741 -110.03625 
L 371.260945 -110.03625 
L 371.992149 -108.388977 
L 372.723353 -106.741705 
L 373.454557 -106.741705 
L 374.185761 -105.094432 
L 374.916965 -103.447159 
L 375.648169 -101.799886 
L 376.379373 -101.799886 
L 377.110577 -101.799886 
L 377.841781 -101.799886 
L 378.572984 -100.152614 
L 379.304188 -98.505341 
L 380.035392 -96.858068 
L 380.766596 -93.563523 
L 381.4978 -91.91625 
L 382.229004 -93.563523 
L 382.960208 -95.210795 
L 383.691412 -95.210795 
L 384.422616 -95.210795 
L 385.15382 -93.563523 
L 385.885024 -91.91625 
L 386.616228 -90.268977 
L 387.347432 -88.621705 
L 388.078636 -88.621705 
L 388.80984 -86.974432 
L 389.541043 -85.327159 
L 390.272247 -83.679886 
L 391.003451 -82.032614 
L 391.734655 -80.385341 
L 392.465859 -80.385341 
L 393.197063 -80.385341 
L 393.928267 -80.385341 
L 394.659471 -80.385341 
L 395.390675 -80.385341 
L 396.121879 -82.032614 
L 396.853083 -83.679886 
L 397.584287 -86.974432 
L 398.315491 -88.621705 
L 399.046695 -90.268977 
L 399.777898 -91.91625 
L 400.509102 -93.563523 
L 401.240306 -93.563523 
L 401.97151 -93.563523 
L 402.702714 -95.210795 
L 403.433918 -96.858068 
L 404.165122 -96.858068 
L 404.896326 -96.858068 
L 405.62753 -96.858068 
L 406.358734 -96.858068 
L 407.089938 -98.505341 
L 407.821142 -100.152614 
L 408.552346 -101.799886 
L 409.28355 -103.447159 
L 410.014754 -103.447159 
L 410.745957 -103.447159 
L 411.477161 -103.447159 
L 412.208365 -105.094432 
L 412.939569 -106.741705 
L 413.670773 -108.388977 
L 414.401977 -108.388977 
L 415.133181 -108.388977 
L 415.864385 -108.388977 
L 416.595589 -108.388977 
L 417.326793 -108.388977 
L 418.057997 -108.388977 
L 418.789201 -108.388977 
L 419.520405 -105.094432 
L 420.251609 -101.799886 
L 420.982813 -98.505341 
L 421.714016 -95.210795 
L 422.44522 -91.91625 
L 423.176424 -90.268977 
L 423.907628 -88.621705 
L 424.638832 -88.621705 
L 425.370036 -88.621705 
L 426.10124 -88.621705 
L 426.832444 -88.621705 
L 427.563648 -90.268977 
L 428.294852 -91.91625 
L 429.026056 -93.563523 
L 429.75726 -95.210795 
L 430.488464 -96.858068 
L 431.219668 -98.505341 
L 431.950871 -100.152614 
L 432.682075 -101.799886 
L 433.413279 -103.447159 
L 434.144483 -103.447159 
L 434.875687 -101.799886 
L 435.606891 -100.152614 
L 436.338095 -98.505341 
L 437.069299 -96.858068 
L 437.800503 -96.858068 
L 438.531707 -96.858068 
L 439.262911 -96.858068 
L 439.994115 -98.505341 
L 440.725319 -100.152614 
L 441.456523 -101.799886 
L 442.187727 -103.447159 
L 442.91893 -105.094432 
L 443.650134 -106.741705 
L 444.381338 -110.03625 
L 445.112542 -113.330795 
L 445.843746 -116.625341 
L 446.57495 -118.272614 
L 447.306154 -119.919886 
L 448.037358 -121.567159 
L 448.768562 -121.567159 
L 449.499766 -119.919886 
L 450.23097 -118.272614 
L 450.962174 -118.272614 
L 451.693378 -118.272614 
L 452.424582 -118.272614 
L 453.155785 -118.272614 
L 453.886989 -118.272614 
L 454.618193 -116.625341 
L 455.349397 -114.978068 
L 456.080601 -113.330795 
L 456.811805 -113.330795 
L 457.543009 -113.330795 
L 458.274213 -114.978068 
L 459.005417 -116.625341 
L 459.736621 -118.272614 
L 460.467825 -119.919886 
L 461.199029 -121.567159 
L 461.930233 -121.567159 
L 462.661437 -121.567159 
L 463.392641 -123.214432 
L 464.123844 -124.861705 
L 464.855048 -124.861705 
L 465.586252 -124.861705 
L 466.317456 -123.214432 
L 467.04866 -121.567159 
L 467.779864 -119.919886 
L 468.511068 -118.272614 
L 469.242272 -116.625341 
L 469.973476 -114.978068 
L 470.70468 -114.978068 
L 471.435884 -114.978068 
L 472.167088 -114.978068 
L 472.898292 -113.330795 
L 473.629496 -111.683523 
L 474.360699 -110.03625 
L 474.360699 -91.91625 
L 474.360699 -91.91625 
L 473.629496 -91.91625 
L 472.898292 -91.91625 
L 472.167088 -91.91625 
L 471.435884 -91.91625 
L 470.70468 -91.91625 
L 469.973476 -91.91625 
L 469.242272 -91.91625 
L 468.511068 -91.91625 
L 467.779864 -91.91625 
L 467.04866 -91.91625 
L 466.317456 -91.91625 
L 465.586252 -91.91625 
L 464.855048 -91.91625 
L 464.123844 -91.91625 
L 463.392641 -91.91625 
L 462.661437 -91.91625 
L 461.930233 -91.91625 
L 461.199029 -91.91625 
L 460.467825 -91.91625 
L 459.736621 -91.91625 
L 459.005417 -91.91625 
L 458.274213 -91.91625 
L 457.543009 -91.91625 
L 456.811805 -91.91625 
L 456.080601 -91.91625 
L 455.349397 -91.91625 
L 454.618193 -91.91625 
L 453.886989 -91.91625 
L 453.155785 -91.91625 
L 452.424582 -91.91625 
L 451.693378 -91.91625 
L 450.962174 -91.91625 
L 450.23097 -91.91625 
L 449.499766 -91.91625 
L 448.768562 -91.91625 
L 448.037358 -91.91625 
L 447.306154 -91.91625 
L 446.57495 -91.91625 
L 445.843746 -91.91625 
L 445.112542 -91.91625 
L 444.381338 -91.91625 
L 443.650134 -91.91625 
L 442.91893 -91.91625 
L 442.187727 -91.91625 
L 441.456523 -91.91625 
L 440.725319 -91.91625 
L 439.994115 -91.91625 
L 439.262911 -91.91625 
L 438.531707 -91.91625 
L 437.800503 -91.91625 
L 437.069299 -91.91625 
L 436.338095 -91.91625 
L 435.606891 -91.91625 
L 434.875687 -91.91625 
L 434.144483 -91.91625 
L 433.413279 -91.91625 
L 432.682075 -91.91625 
L 431.950871 -91.91625 
L 431.219668 -91.91625 
L 430.488464 -91.91625 
L 429.75726 -91.91625 
L 429.026056 -91.91625 
L 428.294852 -91.91625 
L 427.563648 -91.91625 
L 426.832444 -91.91625 
L 426.10124 -91.91625 
L 425.370036 -91.91625 
L 424.638832 -91.91625 
L 423.907628 -91.91625 
L 423.176424 -91.91625 
L 422.44522 -91.91625 
L 421.714016 -91.91625 
L 420.982813 -91.91625 
L 420.251609 -91.91625 
L 419.520405 -91.91625 
L 418.789201 -91.91625 
L 418.057997 -91.91625 
L 417.326793 -91.91625 
L 416.595589 -91.91625 
L 415.864385 -91.91625 
L 415.133181 -91.91625 
L 414.401977 -91.91625 
L 413.670773 -91.91625 
L 412.939569 -91.91625 
L 412.208365 -91.91625 
L 411.477161 -91.91625 
L 410.745957 -91.91625 
L 410.014754 -91.91625 
L 409.28355 -91.91625 
L 408.552346 -91.91625 
L 407.821142 -91.91625 
L 407.089938 -91.91625 
L 406.358734 -91.91625 
L 405.62753 -91.91625 
L 404.896326 -91.91625 
L 404.165122 -91.91625 
L 403.433918 -91.91625 
L 402.702714 -91.91625 
L 401.97151 -91.91625 
L 401.240306 -91.91625 
L 400.509102 -91.91625 
L 399.777898 -91.91625 
L 399.046695 -91.91625 
L 398.315491 -91.91625 
L 397.584287 -91.91625 
L 396.853083 -91.91625 
L 396.121879 -91.91625 
L 395.390675 -91.91625 
L 394.659471 -91.91625 
L 393.928267 -91.91625 
L 393.197063 -91.91625 
L 392.465859 -91.91625 
L 391.734655 -91.91625 
L 391.003451 -91.91625 
L 390.272247 -91.91625 
L 389.541043 -91.91625 
L 388.80984 -91.91625 
L 388.078636 -91.91625 
L 387.347432 -91.91625 
L 386.616228 -91.91625 
L 385.885024 -91.91625 
L 385.15382 -91.91625 
L 384.422616 -91.91625 
L 383.691412 -91.91625 
L 382.960208 -91.91625 
L 382.229004 -91.91625 
L 381.4978 -91.91625 
L 380.766596 -91.91625 
L 380.035392 -91.91625 
L 379.304188 -91.91625 
L 378.572984 -91.91625 
L 377.841781 -91.91625 
L 377.110577 -91.91625 
L 376.379373 -91.91625 
L 375.648169 -91.91625 
L 374.916965 -91.91625 
L 374.185761 -91.91625 
L 373.454557 -91.91625 
L 372.723353 -91.91625 
L 371.992149 -91.91625 
L 371.260945 -91.91625 
L 370.529741 -91.91625 
L 369.798537 -91.91625 
L 369.067333 -91.91625 
L 368.336129 -91.91625 
L 367.604926 -91.91625 
L 366.873722 -91.91625 
L 366.142518 -91.91625 
L 365.411314 -91.91625 
L 364.68011 -91.91625 
L 363.948906 -91.91625 
L 363.217702 -91.91625 
L 362.486498 -91.91625 
L 361.755294 -91.91625 
L 361.02409 -91.91625 
L 360.292886 -91.91625 
L 359.561682 -91.91625 
L 358.830478 -91.91625 
L 358.099274 -91.91625 
L 357.36807 -91.91625 
L 356.636867 -91.91625 
L 355.905663 -91.91625 
L 355.174459 -91.91625 
L 354.443255 -91.91625 
L 353.712051 -91.91625 
L 352.980847 -91.91625 
L 352.249643 -91.91625 
L 351.518439 -91.91625 
L 350.787235 -91.91625 
L 350.056031 -91.91625 
L 349.324827 -91.91625 
L 348.593623 -91.91625 
L 347.862419 -91.91625 
L 347.131215 -91.91625 
L 346.400012 -91.91625 
L 345.668808 -91.91625 
L 344.937604 -91.91625 
L 344.2064 -91.91625 
L 343.475196 -91.91625 
L 342.743992 -91.91625 
L 342.012788 -91.91625 
L 341.281584 -91.91625 
L 340.55038 -91.91625 
L 339.819176 -91.91625 
L 339.087972 -91.91625 
L 338.356768 -91.91625 
L 337.625564 -91.91625 
L 336.89436 -91.91625 
L 336.163156 -91.91625 
L 335.431953 -91.91625 
L 334.700749 -91.91625 
L 333.969545 -91.91625 
L 333.238341 -91.91625 
L 332.507137 -91.91625 
L 331.775933 -91.91625 
L 331.044729 -91.91625 
L 330.313525 -91.91625 
L 329.582321 -91.91625 
L 328.851117 -91.91625 
L 328.119913 -91.91625 
L 327.388709 -91.91625 
L 326.657505 -91.91625 
L 325.926301 -91.91625 
L 325.195098 -91.91625 
L 324.463894 -91.91625 
L 323.73269 -91.91625 
L 323.001486 -91.91625 
L 322.270282 -91.91625 
L 321.539078 -91.91625 
L 320.807874 -91.91625 
L 320.07667 -91.91625 
L 319.345466 -91.91625 
L 318.614262 -91.91625 
L 317.883058 -91.91625 
L 317.151854 -91.91625 
L 316.42065 -91.91625 
L 315.689446 -91.91625 
L 314.958242 -91.91625 
L 314.227039 -91.91625 
L 313.495835 -91.91625 
L 312.764631 -91.91625 
L 312.033427 -91.91625 
L 311.302223 -91.91625 
L 310.571019 -91.91625 
L 309.839815 -91.91625 
L 309.108611 -91.91625 
L 308.377407 -91.91625 
L 307.646203 -91.91625 
L 306.914999 -91.91625 
L 306.183795 -91.91625 
L 305.452591 -91.91625 
L 304.721387 -91.91625 
L 303.990184 -91.91625 
L 303.25898 -91.91625 
L 302.527776 -91.91625 
L 301.796572 -91.91625 
L 301.065368 -91.91625 
L 300.334164 -91.91625 
L 299.60296 -91.91625 
L 298.871756 -91.91625 
L 298.140552 -91.91625 
L 297.409348 -91.91625 
L 296.678144 -91.91625 
L 295.94694 -91.91625 
L 295.215736 -91.91625 
L 294.484532 -91.91625 
L 293.753328 -91.91625 
L 293.022125 -91.91625 
L 292.290921 -91.91625 
L 291.559717 -91.91625 
L 290.828513 -91.91625 
L 290.097309 -91.91625 
L 289.366105 -91.91625 
L 288.634901 -91.91625 
L 287.903697 -91.91625 
L 287.172493 -91.91625 
L 286.441289 -91.91625 
L 285.710085 -91.91625 
L 284.978881 -91.91625 
L 284.247677 -91.91625 
L 283.516473 -91.91625 
L 282.78527 -91.91625 
L 282.054066 -91.91625 
L 281.322862 -91.91625 
L 280.591658 -91.91625 
L 279.860454 -91.91625 
L 279.12925 -91.91625 
L 278.398046 -91.91625 
L 277.666842 -91.91625 
L 276.935638 -91.91625 
L 276.204434 -91.91625 
L 275.47323 -91.91625 
L 274.742026 -91.91625 
L 274.010822 -91.91625 
L 273.279618 -91.91625 
L 272.548414 -91.91625 
L 271.817211 -91.91625 
L 271.086007 -91.91625 
L 270.354803 -91.91625 
L 269.623599 -91.91625 
L 268.892395 -91.91625 
L 268.161191 -91.91625 
L 267.429987 -91.91625 
L 266.698783 -91.91625 
L 265.967579 -91.91625 
L 265.236375 -91.91625 
L 264.505171 -91.91625 
L 263.773967 -91.91625 
L 263.042763 -91.91625 
L 262.311559 -91.91625 
L 261.580355 -91.91625 
L 260.849152 -91.91625 
L 260.117948 -91.91625 
L 259.386744 -91.91625 
L 258.65554 -91.91625 
L 257.924336 -91.91625 
L 257.193132 -91.91625 
L 256.461928 -91.91625 
L 255.730724 -91.91625 
L 254.99952 -91.91625 
L 254.268316 -91.91625 
L 253.537112 -91.91625 
L 252.805908 -91.91625 
L 252.074704 -91.91625 
L 251.3435 -91.91625 
L 250.612297 -91.91625 
L 249.881093 -91.91625 
L 249.149889 -91.91625 
L 248.418685 -91.91625 
L 247.687481 -91.91625 
L 246.956277 -91.91625 
L 246.225073 -91.91625 
L 245.493869 -91.91625 
L 244.762665 -91.91625 
L 244.031461 -91.91625 
L 243.300257 -91.91625 
L 242.569053 -91.91625 
L 241.837849 -91.91625 
L 241.106645 -91.91625 
L 240.375441 -91.91625 
L 239.644238 -91.91625 
L 238.913034 -91.91625 
L 238.18183 -91.91625 
L 237.450626 -91.91625 
L 236.719422 -91.91625 
L 235.988218 -91.91625 
L 235.257014 -91.91625 
L 234.52581 -91.91625 
L 233.794606 -91.91625 
L 233.063402 -91.91625 
L 232.332198 -91.91625 
L 231.600994 -91.91625 
L 230.86979 -91.91625 
L 230.138586 -91.91625 
L 229.407383 -91.91625 
L 228.676179 -91.91625 
L 227.944975 -91.91625 
L 227.213771 -91.91625 
L 226.482567 -91.91625 
L 225.751363 -91.91625 
L 225.020159 -91.91625 
L 224.288955 -91.91625 
L 223.557751 -91.91625 
L 222.826547 -91.91625 
L 222.095343 -91.91625 
L 221.364139 -91.91625 
L 220.632935 -91.91625 
L 219.901731 -91.91625 
L 219.170527 -91.91625 
L 218.439324 -91.91625 
L 217.70812 -91.91625 
L 216.976916 -91.91625 
L 216.245712 -91.91625 
L 215.514508 -91.91625 
L 214.783304 -91.91625 
L 214.0521 -91.91625 
L 213.320896 -91.91625 
L 212.589692 -91.91625 
L 211.858488 -91.91625 
L 211.127284 -91.91625 
L 210.39608 -91.91625 
L 209.664876 -91.91625 
L 208.933672 -91.91625 
L 208.202469 -91.91625 
L 207.471265 -91.91625 
L 206.740061 -91.91625 
L 206.008857 -91.91625 
L 205.277653 -91.91625 
L 204.546449 -91.91625 
L 203.815245 -91.91625 
L 203.084041 -91.91625 
L 202.352837 -91.91625 
L 201.621633 -91.91625 
L 200.890429 -91.91625 
L 200.159225 -91.91625 
L 199.428021 -91.91625 
L 198.696817 -91.91625 
L 197.965613 -91.91625 
L 197.23441 -91.91625 
L 196.503206 -91.91625 
L 195.772002 -91.91625 
L 195.040798 -91.91625 
L 194.309594 -91.91625 
L 193.57839 -91.91625 
L 192.847186 -91.91625 
L 192.115982 -91.91625 
L 191.384778 -91.91625 
L 190.653574 -91.91625 
L 189.92237 -91.91625 
L 189.191166 -91.91625 
L 188.459962 -91.91625 
L 187.728758 -91.91625 
L 186.997555 -91.91625 
L 186.266351 -91.91625 
L 185.535147 -91.91625 
L 184.803943 -91.91625 
L 184.072739 -91.91625 
L 183.341535 -91.91625 
L 182.610331 -91.91625 
L 181.879127 -91.91625 
L 181.147923 -91.91625 
L 180.416719 -91.91625 
L 179.685515 -91.91625 
L 178.954311 -91.91625 
L 178.223107 -91.91625 
L 177.491903 -91.91625 
L 176.760699 -91.91625 
L 176.029496 -91.91625 
L 175.298292 -91.91625 
L 174.567088 -91.91625 
L 173.835884 -91.91625 
L 173.10468 -91.91625 
L 172.373476 -91.91625 
L 171.642272 -91.91625 
L 170.911068 -91.91625 
L 170.179864 -91.91625 
L 169.44866 -91.91625 
L 168.717456 -91.91625 
L 167.986252 -91.91625 
L 167.255048 -91.91625 
L 166.523844 -91.91625 
L 165.792641 -91.91625 
L 165.061437 -91.91625 
L 164.330233 -91.91625 
L 163.599029 -91.91625 
L 162.867825 -91.91625 
L 162.136621 -91.91625 
L 161.405417 -91.91625 
L 160.674213 -91.91625 
L 159.943009 -91.91625 
L 159.211805 -91.91625 
L 158.480601 -91.91625 
L 157.749397 -91.91625 
L 157.018193 -91.91625 
L 156.286989 -91.91625 
L 155.555785 -91.91625 
L 154.824582 -91.91625 
L 154.093378 -91.91625 
L 153.362174 -91.91625 
L 152.63097 -91.91625 
L 151.899766 -91.91625 
L 151.168562 -91.91625 
L 150.437358 -91.91625 
L 149.706154 -91.91625 
L 148.97495 -91.91625 
L 148.243746 -91.91625 
L 147.512542 -91.91625 
L 146.781338 -91.91625 
L 146.050134 -91.91625 
L 145.31893 -91.91625 
L 144.587727 -91.91625 
L 143.856523 -91.91625 
L 143.125319 -91.91625 
L 142.394115 -91.91625 
L 141.662911 -91.91625 
L 140.931707 -91.91625 
L 140.200503 -91.91625 
L 139.469299 -91.91625 
L 138.738095 -91.91625 
L 138.006891 -91.91625 
L 137.275687 -91.91625 
L 136.544483 -91.91625 
L 135.813279 -91.91625 
L 135.082075 -91.91625 
L 134.350871 -91.91625 
L 133.619668 -91.91625 
L 132.888464 -91.91625 
L 132.15726 -91.91625 
L 131.426056 -91.91625 
L 130.694852 -91.91625 
L 129.963648 -91.91625 
L 129.232444 -91.91625 
L 128.50124 -91.91625 
L 127.770036 -91.91625 
L 127.038832 -91.91625 
L 126.307628 -91.91625 
L 125.576424 -91.91625 
L 124.84522 -91.91625 
L 124.114016 -91.91625 
L 123.382813 -91.91625 
L 122.651609 -91.91625 
L 121.920405 -91.91625 
L 121.189201 -91.91625 
L 120.457997 -91.91625 
L 119.726793 -91.91625 
L 118.995589 -91.91625 
L 118.264385 -91.91625 
L 117.533181 -91.91625 
L 116.801977 -91.91625 
L 116.070773 -91.91625 
L 115.339569 -91.91625 
L 114.608365 -91.91625 
L 113.877161 -91.91625 
L 113.145957 -91.91625 
L 112.414754 -91.91625 
L 111.68355 -91.91625 
L 110.952346 -91.91625 
L 110.221142 -91.91625 
L 109.489938 -91.91625 
L 108.758734 -91.91625 
L 108.02753 -91.91625 
L 107.296326 -91.91625 
L 106.565122 -91.91625 
L 105.833918 -91.91625 
L 105.102714 -91.91625 
L 104.37151 -91.91625 
L 103.640306 -91.91625 
L 102.909102 -91.91625 
L 102.177898 -91.91625 
L 101.446695 -91.91625 
L 100.715491 -91.91625 
L 99.984287 -91.91625 
L 99.253083 -91.91625 
L 98.521879 -91.91625 
L 97.790675 -91.91625 
L 97.059471 -91.91625 
L 96.328267 -91.91625 
L 95.597063 -91.91625 
L 94.865859 -91.91625 
L 94.134655 -91.91625 
L 93.403451 -91.91625 
L 92.672247 -91.91625 
L 91.941043 -91.91625 
L 91.20984 -91.91625 
L 90.478636 -91.91625 
L 89.747432 -91.91625 
L 89.016228 -91.91625 
L 88.285024 -91.91625 
L 87.55382 -91.91625 
L 86.822616 -91.91625 
L 86.091412 -91.91625 
L 85.360208 -91.91625 
L 84.629004 -91.91625 
L 83.8978 -91.91625 
L 83.166596 -91.91625 
L 82.435392 -91.91625 
L 81.704188 -91.91625 
L 80.972984 -91.91625 
L 80.241781 -91.91625 
L 79.510577 -91.91625 
L 78.779373 -91.91625 
L 78.048169 -91.91625 
L 77.316965 -91.91625 
L 76.585761 -91.91625 
L 75.854557 -91.91625 
L 75.123353 -91.91625 
L 74.392149 -91.91625 
L 73.660945 -91.91625 
L 72.929741 -91.91625 
L 72.198537 -91.91625 
L 71.467333 -91.91625 
L 70.736129 -91.91625 
L 70.004926 -91.91625 
L 69.273722 -91.91625 
z
" style="stroke: #1e90ff; stroke-opacity: 0.2"/>
    </defs>
    <g clip-path="url(#p22f52954a3)">
     <use xlink:href="#m5e4d68075c" x="0" y="153.47625" style="fill: #1e90ff; fill-opacity: 0.2; stroke: #1e90ff; stroke-opacity: 0.2"/>
    </g>
   </g>
   <g id="matplotlib.axis_1">
    <g id="xtick_1">
     <g id="line2d_1">
      <defs>
       <path id="mff9abf1340" d="M 0 0 
L 0 3.5 
" style="stroke: #000000; stroke-width: 0.8"/>
      </defs>
      <g>
       <use xlink:href="#mff9abf1340" x="69.273722" y="115.92" style="stroke: #000000; stroke-width: 0.8"/>
      </g>
     </g>
     <g id="text_1">
      <!-- 0 -->
      <g transform="translate(66.092472 130.518438)scale(0.1 -0.1)">
       <defs>
        <path id="DejaVuSans-30" d="M 2034 4250 
Q 1547 4250 1301 3770 
Q 1056 3291 1056 2328 
Q 1056 1369 1301 889 
Q 1547 409 2034 409 
Q 2525 409 2770 889 
Q 3016 1369 3016 2328 
Q 3016 3291 2770 3770 
Q 2525 4250 2034 4250 
z
M 2034 4750 
Q 2819 4750 3233 4129 
Q 3647 3509 3647 2328 
Q 3647 1150 3233 529 
Q 2819 -91 2034 -91 
Q 1250 -91 836 529 
Q 422 1150 422 2328 
Q 422 3509 836 4129 
Q 1250 4750 2034 4750 
z
" transform="scale(0.015625)"/>
       </defs>
       <use xlink:href="#DejaVuSans-30"/>
      </g>
     </g>
    </g>
    <g id="xtick_2">
     <g id="line2d_2">
      <g>
       <use xlink:href="#mff9abf1340" x="142.394115" y="115.92" style="stroke: #000000; stroke-width: 0.8"/>
      </g>
     </g>
     <g id="text_2">
      <!-- 100 -->
      <g transform="translate(132.850365 130.518438)scale(0.1 -0.1)">
       <defs>
        <path id="DejaVuSans-31" d="M 794 531 
L 1825 531 
L 1825 4091 
L 703 3866 
L 703 4441 
L 1819 4666 
L 2450 4666 
L 2450 531 
L 3481 531 
L 3481 0 
L 794 0 
L 794 531 
z
" transform="scale(0.015625)"/>
       </defs>
       <use xlink:href="#DejaVuSans-31"/>
       <use xlink:href="#DejaVuSans-30" x="63.623047"/>
       <use xlink:href="#DejaVuSans-30" x="127.246094"/>
      </g>
     </g>
    </g>
    <g id="xtick_3">
     <g id="line2d_3">
      <g>
       <use xlink:href="#mff9abf1340" x="215.514508" y="115.92" style="stroke: #000000; stroke-width: 0.8"/>
      </g>
     </g>
     <g id="text_3">
      <!-- 200 -->
      <g transform="translate(205.970758 130.518438)scale(0.1 -0.1)">
       <defs>
        <path id="DejaVuSans-32" d="M 1228 531 
L 3431 531 
L 3431 0 
L 469 0 
L 469 531 
Q 828 903 1448 1529 
Q 2069 2156 2228 2338 
Q 2531 2678 2651 2914 
Q 2772 3150 2772 3378 
Q 2772 3750 2511 3984 
Q 2250 4219 1831 4219 
Q 1534 4219 1204 4116 
Q 875 4013 500 3803 
L 500 4441 
Q 881 4594 1212 4672 
Q 1544 4750 1819 4750 
Q 2544 4750 2975 4387 
Q 3406 4025 3406 3419 
Q 3406 3131 3298 2873 
Q 3191 2616 2906 2266 
Q 2828 2175 2409 1742 
Q 1991 1309 1228 531 
z
" transform="scale(0.015625)"/>
       </defs>
       <use xlink:href="#DejaVuSans-32"/>
       <use xlink:href="#DejaVuSans-30" x="63.623047"/>
       <use xlink:href="#DejaVuSans-30" x="127.246094"/>
      </g>
     </g>
    </g>
    <g id="xtick_4">
     <g id="line2d_4">
      <g>
       <use xlink:href="#mff9abf1340" x="288.634901" y="115.92" style="stroke: #000000; stroke-width: 0.8"/>
      </g>
     </g>
     <g id="text_4">
      <!-- 300 -->
      <g transform="translate(279.091151 130.518438)scale(0.1 -0.1)">
       <defs>
        <path id="DejaVuSans-33" d="M 2597 2516 
Q 3050 2419 3304 2112 
Q 3559 1806 3559 1356 
Q 3559 666 3084 287 
Q 2609 -91 1734 -91 
Q 1441 -91 1130 -33 
Q 819 25 488 141 
L 488 750 
Q 750 597 1062 519 
Q 1375 441 1716 441 
Q 2309 441 2620 675 
Q 2931 909 2931 1356 
Q 2931 1769 2642 2001 
Q 2353 2234 1838 2234 
L 1294 2234 
L 1294 2753 
L 1863 2753 
Q 2328 2753 2575 2939 
Q 2822 3125 2822 3475 
Q 2822 3834 2567 4026 
Q 2313 4219 1838 4219 
Q 1578 4219 1281 4162 
Q 984 4106 628 3988 
L 628 4550 
Q 988 4650 1302 4700 
Q 1616 4750 1894 4750 
Q 2613 4750 3031 4423 
Q 3450 4097 3450 3541 
Q 3450 3153 3228 2886 
Q 3006 2619 2597 2516 
z
" transform="scale(0.015625)"/>
       </defs>
       <use xlink:href="#DejaVuSans-33"/>
       <use xlink:href="#DejaVuSans-30" x="63.623047"/>
       <use xlink:href="#DejaVuSans-30" x="127.246094"/>
      </g>
     </g>
    </g>
    <g id="xtick_5">
     <g id="line2d_5">
      <g>
       <use xlink:href="#mff9abf1340" x="361.755294" y="115.92" style="stroke: #000000; stroke-width: 0.8"/>
      </g>
     </g>
     <g id="text_5">
      <!-- 400 -->
      <g transform="translate(352.211544 130.518438)scale(0.1 -0.1)">
       <defs>
        <path id="DejaVuSans-34" d="M 2419 4116 
L 825 1625 
L 2419 1625 
L 2419 4116 
z
M 2253 4666 
L 3047 4666 
L 3047 1625 
L 3713 1625 
L 3713 1100 
L 3047 1100 
L 3047 0 
L 2419 0 
L 2419 1100 
L 313 1100 
L 313 1709 
L 2253 4666 
z
" transform="scale(0.015625)"/>
       </defs>
       <use xlink:href="#DejaVuSans-34"/>
       <use xlink:href="#DejaVuSans-30" x="63.623047"/>
       <use xlink:href="#DejaVuSans-30" x="127.246094"/>
      </g>
     </g>
    </g>
    <g id="xtick_6">
     <g id="line2d_6">
      <g>
       <use xlink:href="#mff9abf1340" x="434.875687" y="115.92" style="stroke: #000000; stroke-width: 0.8"/>
      </g>
     </g>
     <g id="text_6">
      <!-- 500 -->
      <g transform="translate(425.331937 130.518438)scale(0.1 -0.1)">
       <defs>
        <path id="DejaVuSans-35" d="M 691 4666 
L 3169 4666 
L 3169 4134 
L 1269 4134 
L 1269 2991 
Q 1406 3038 1543 3061 
Q 1681 3084 1819 3084 
Q 2600 3084 3056 2656 
Q 3513 2228 3513 1497 
Q 3513 744 3044 326 
Q 2575 -91 1722 -91 
Q 1428 -91 1123 -41 
Q 819 9 494 109 
L 494 744 
Q 775 591 1075 516 
Q 1375 441 1709 441 
Q 2250 441 2565 725 
Q 2881 1009 2881 1497 
Q 2881 1984 2565 2268 
Q 2250 2553 1709 2553 
Q 1456 2553 1204 2497 
Q 953 2441 691 2322 
L 691 4666 
z
" transform="scale(0.015625)"/>
       </defs>
       <use xlink:href="#DejaVuSans-35"/>
       <use xlink:href="#DejaVuSans-30" x="63.623047"/>
       <use xlink:href="#DejaVuSans-30" x="127.246094"/>
      </g>
     </g>
    </g>
    <g id="text_7">
     <!-- index -->
     <g transform="translate(258.502344 144.196562)scale(0.1 -0.1)">
      <defs>
       <path id="DejaVuSans-69" d="M 603 3500 
L 1178 3500 
L 1178 0 
L 603 0 
L 603 3500 
z
M 603 4863 
L 1178 4863 
L 1178 4134 
L 603 4134 
L 603 4863 
z
" transform="scale(0.015625)"/>
       <path id="DejaVuSans-6e" d="M 3513 2113 
L 3513 0 
L 2938 0 
L 2938 2094 
Q 2938 2591 2744 2837 
Q 2550 3084 2163 3084 
Q 1697 3084 1428 2787 
Q 1159 2491 1159 1978 
L 1159 0 
L 581 0 
L 581 3500 
L 1159 3500 
L 1159 2956 
Q 1366 3272 1645 3428 
Q 1925 3584 2291 3584 
Q 2894 3584 3203 3211 
Q 3513 2838 3513 2113 
z
" transform="scale(0.015625)"/>
       <path id="DejaVuSans-64" d="M 2906 2969 
L 2906 4863 
L 3481 4863 
L 3481 0 
L 2906 0 
L 2906 525 
Q 2725 213 2448 61 
Q 2172 -91 1784 -91 
Q 1150 -91 751 415 
Q 353 922 353 1747 
Q 353 2572 751 3078 
Q 1150 3584 1784 3584 
Q 2172 3584 2448 3432 
Q 2725 3281 2906 2969 
z
M 947 1747 
Q 947 1113 1208 752 
Q 1469 391 1925 391 
Q 2381 391 2643 752 
Q 2906 1113 2906 1747 
Q 2906 2381 2643 2742 
Q 2381 3103 1925 3103 
Q 1469 3103 1208 2742 
Q 947 2381 947 1747 
z
" transform="scale(0.015625)"/>
       <path id="DejaVuSans-65" d="M 3597 1894 
L 3597 1613 
L 953 1613 
Q 991 1019 1311 708 
Q 1631 397 2203 397 
Q 2534 397 2845 478 
Q 3156 559 3463 722 
L 3463 178 
Q 3153 47 2828 -22 
Q 2503 -91 2169 -91 
Q 1331 -91 842 396 
Q 353 884 353 1716 
Q 353 2575 817 3079 
Q 1281 3584 2069 3584 
Q 2775 3584 3186 3129 
Q 3597 2675 3597 1894 
z
M 3022 2063 
Q 3016 2534 2758 2815 
Q 2500 3097 2075 3097 
Q 1594 3097 1305 2825 
Q 1016 2553 972 2059 
L 3022 2063 
z
" transform="scale(0.015625)"/>
       <path id="DejaVuSans-78" d="M 3513 3500 
L 2247 1797 
L 3578 0 
L 2900 0 
L 1881 1375 
L 863 0 
L 184 0 
L 1544 1831 
L 300 3500 
L 978 3500 
L 1906 2253 
L 2834 3500 
L 3513 3500 
z
" transform="scale(0.015625)"/>
      </defs>
      <use xlink:href="#DejaVuSans-69"/>
      <use xlink:href="#DejaVuSans-6e" x="27.783203"/>
      <use xlink:href="#DejaVuSans-64" x="91.162109"/>
      <use xlink:href="#DejaVuSans-65" x="154.638672"/>
      <use xlink:href="#DejaVuSans-78" x="214.412109"/>
     </g>
    </g>
   </g>
   <g id="matplotlib.axis_2">
    <g id="ytick_1">
     <g id="line2d_7">
      <defs>
       <path id="mdefc13df0c" d="M 0 0 
L -3.5 0 
" style="stroke: #000000; stroke-width: 0.8"/>
      </defs>
      <g>
       <use xlink:href="#mdefc13df0c" x="48.982813" y="94.505455" style="stroke: #000000; stroke-width: 0.8"/>
      </g>
     </g>
     <g id="text_8">
      <!-- −20 -->
      <g transform="translate(20.878125 98.304673)scale(0.1 -0.1)">
       <defs>
        <path id="DejaVuSans-2212" d="M 678 2272 
L 4684 2272 
L 4684 1741 
L 678 1741 
L 678 2272 
z
" transform="scale(0.015625)"/>
       </defs>
       <use xlink:href="#DejaVuSans-2212"/>
       <use xlink:href="#DejaVuSans-32" x="83.789062"/>
       <use xlink:href="#DejaVuSans-30" x="147.412109"/>
      </g>
     </g>
    </g>
    <g id="ytick_2">
     <g id="line2d_8">
      <g>
       <use xlink:href="#mdefc13df0c" x="48.982813" y="61.56" style="stroke: #000000; stroke-width: 0.8"/>
      </g>
     </g>
     <g id="text_9">
      <!-- 0 -->
      <g transform="translate(35.620313 65.359219)scale(0.1 -0.1)">
       <use xlink:href="#DejaVuSans-30"/>
      </g>
     </g>
    </g>
    <g id="ytick_3">
     <g id="line2d_9">
      <g>
       <use xlink:href="#mdefc13df0c" x="48.982813" y="28.614545" style="stroke: #000000; stroke-width: 0.8"/>
      </g>
     </g>
     <g id="text_10">
      <!-- 20 -->
      <g transform="translate(29.257813 32.413764)scale(0.1 -0.1)">
       <use xlink:href="#DejaVuSans-32"/>
       <use xlink:href="#DejaVuSans-30" x="63.623047"/>
      </g>
     </g>
    </g>
    <g id="text_11">
     <!-- SSE signal -->
     <g transform="translate(14.798438 87.446719)rotate(-90)scale(0.1 -0.1)">
      <defs>
       <path id="DejaVuSans-53" d="M 3425 4513 
L 3425 3897 
Q 3066 4069 2747 4153 
Q 2428 4238 2131 4238 
Q 1616 4238 1336 4038 
Q 1056 3838 1056 3469 
Q 1056 3159 1242 3001 
Q 1428 2844 1947 2747 
L 2328 2669 
Q 3034 2534 3370 2195 
Q 3706 1856 3706 1288 
Q 3706 609 3251 259 
Q 2797 -91 1919 -91 
Q 1588 -91 1214 -16 
Q 841 59 441 206 
L 441 856 
Q 825 641 1194 531 
Q 1563 422 1919 422 
Q 2459 422 2753 634 
Q 3047 847 3047 1241 
Q 3047 1584 2836 1778 
Q 2625 1972 2144 2069 
L 1759 2144 
Q 1053 2284 737 2584 
Q 422 2884 422 3419 
Q 422 4038 858 4394 
Q 1294 4750 2059 4750 
Q 2388 4750 2728 4690 
Q 3069 4631 3425 4513 
z
" transform="scale(0.015625)"/>
       <path id="DejaVuSans-45" d="M 628 4666 
L 3578 4666 
L 3578 4134 
L 1259 4134 
L 1259 2753 
L 3481 2753 
L 3481 2222 
L 1259 2222 
L 1259 531 
L 3634 531 
L 3634 0 
L 628 0 
L 628 4666 
z
" transform="scale(0.015625)"/>
       <path id="DejaVuSans-20" transform="scale(0.015625)"/>
       <path id="DejaVuSans-73" d="M 2834 3397 
L 2834 2853 
Q 2591 2978 2328 3040 
Q 2066 3103 1784 3103 
Q 1356 3103 1142 2972 
Q 928 2841 928 2578 
Q 928 2378 1081 2264 
Q 1234 2150 1697 2047 
L 1894 2003 
Q 2506 1872 2764 1633 
Q 3022 1394 3022 966 
Q 3022 478 2636 193 
Q 2250 -91 1575 -91 
Q 1294 -91 989 -36 
Q 684 19 347 128 
L 347 722 
Q 666 556 975 473 
Q 1284 391 1588 391 
Q 1994 391 2212 530 
Q 2431 669 2431 922 
Q 2431 1156 2273 1281 
Q 2116 1406 1581 1522 
L 1381 1569 
Q 847 1681 609 1914 
Q 372 2147 372 2553 
Q 372 3047 722 3315 
Q 1072 3584 1716 3584 
Q 2034 3584 2315 3537 
Q 2597 3491 2834 3397 
z
" transform="scale(0.015625)"/>
       <path id="DejaVuSans-67" d="M 2906 1791 
Q 2906 2416 2648 2759 
Q 2391 3103 1925 3103 
Q 1463 3103 1205 2759 
Q 947 2416 947 1791 
Q 947 1169 1205 825 
Q 1463 481 1925 481 
Q 2391 481 2648 825 
Q 2906 1169 2906 1791 
z
M 3481 434 
Q 3481 -459 3084 -895 
Q 2688 -1331 1869 -1331 
Q 1566 -1331 1297 -1286 
Q 1028 -1241 775 -1147 
L 775 -588 
Q 1028 -725 1275 -790 
Q 1522 -856 1778 -856 
Q 2344 -856 2625 -561 
Q 2906 -266 2906 331 
L 2906 616 
Q 2728 306 2450 153 
Q 2172 0 1784 0 
Q 1141 0 747 490 
Q 353 981 353 1791 
Q 353 2603 747 3093 
Q 1141 3584 1784 3584 
Q 2172 3584 2450 3431 
Q 2728 3278 2906 2969 
L 2906 3500 
L 3481 3500 
L 3481 434 
z
" transform="scale(0.015625)"/>
       <path id="DejaVuSans-61" d="M 2194 1759 
Q 1497 1759 1228 1600 
Q 959 1441 959 1056 
Q 959 750 1161 570 
Q 1363 391 1709 391 
Q 2188 391 2477 730 
Q 2766 1069 2766 1631 
L 2766 1759 
L 2194 1759 
z
M 3341 1997 
L 3341 0 
L 2766 0 
L 2766 531 
Q 2569 213 2275 61 
Q 1981 -91 1556 -91 
Q 1019 -91 701 211 
Q 384 513 384 1019 
Q 384 1609 779 1909 
Q 1175 2209 1959 2209 
L 2766 2209 
L 2766 2266 
Q 2766 2663 2505 2880 
Q 2244 3097 1772 3097 
Q 1472 3097 1187 3025 
Q 903 2953 641 2809 
L 641 3341 
Q 956 3463 1253 3523 
Q 1550 3584 1831 3584 
Q 2591 3584 2966 3190 
Q 3341 2797 3341 1997 
z
" transform="scale(0.015625)"/>
       <path id="DejaVuSans-6c" d="M 603 4863 
L 1178 4863 
L 1178 0 
L 603 0 
L 603 4863 
z
" transform="scale(0.015625)"/>
      </defs>
      <use xlink:href="#DejaVuSans-53"/>
      <use xlink:href="#DejaVuSans-53" x="63.476562"/>
      <use xlink:href="#DejaVuSans-45" x="126.953125"/>
      <use xlink:href="#DejaVuSans-20" x="190.136719"/>
      <use xlink:href="#DejaVuSans-73" x="221.923828"/>
      <use xlink:href="#DejaVuSans-69" x="274.023438"/>
      <use xlink:href="#DejaVuSans-67" x="301.806641"/>
      <use xlink:href="#DejaVuSans-6e" x="365.283203"/>
      <use xlink:href="#DejaVuSans-61" x="428.662109"/>
      <use xlink:href="#DejaVuSans-6c" x="489.941406"/>
     </g>
    </g>
   </g>
   <g id="line2d_10">
    <path d="M 69.273722 61.56 
L 270.354803 61.56 
L 271.086007 78.032727 
L 276.935638 78.032727 
L 277.666842 61.56 
L 278.398046 78.032727 
L 279.12925 78.032727 
L 279.860454 61.56 
L 282.78527 61.56 
L 283.516473 78.032727 
L 291.559717 78.032727 
L 292.290921 61.56 
L 298.140552 61.56 
L 298.871756 78.032727 
L 311.302223 78.032727 
L 312.033427 61.56 
L 314.227039 61.56 
L 314.958242 78.032727 
L 318.614262 78.032727 
L 319.345466 61.56 
L 320.07667 61.56 
L 320.807874 78.032727 
L 334.700749 78.032727 
L 335.431953 61.56 
L 340.55038 61.56 
L 341.281584 45.087273 
L 344.937604 45.087273 
L 345.668808 61.56 
L 347.131215 61.56 
L 347.862419 45.087273 
L 352.249643 45.087273 
L 352.980847 61.56 
L 353.712051 61.56 
L 354.443255 78.032727 
L 355.174459 78.032727 
L 355.905663 61.56 
L 358.830478 61.56 
L 359.561682 45.087273 
L 361.02409 45.087273 
L 361.755294 61.56 
L 366.142518 61.56 
L 366.873722 45.087273 
L 369.067333 45.087273 
L 370.529741 78.032727 
L 371.260945 78.032727 
L 371.992149 61.56 
L 376.379373 61.56 
L 377.110577 45.087273 
L 381.4978 45.087273 
L 382.229004 61.56 
L 383.691412 61.56 
L 384.422616 78.032727 
L 385.885024 78.032727 
L 386.616228 61.56 
L 390.272247 61.56 
L 391.003451 78.032727 
L 391.734655 78.032727 
L 392.465859 61.56 
L 394.659471 61.56 
L 395.390675 78.032727 
L 397.584287 78.032727 
L 398.315491 61.56 
L 401.97151 61.56 
L 402.702714 45.087273 
L 403.433918 45.087273 
L 404.165122 61.56 
L 407.089938 61.56 
L 407.821142 45.087273 
L 410.745957 45.087273 
L 411.477161 61.56 
L 421.714016 61.56 
L 422.44522 45.087273 
L 425.370036 45.087273 
L 426.10124 61.56 
L 429.026056 61.56 
L 429.75726 78.032727 
L 434.144483 78.032727 
L 434.875687 61.56 
L 437.069299 61.56 
L 437.800503 45.087273 
L 444.381338 45.087273 
L 445.112542 61.56 
L 449.499766 61.56 
L 450.23097 45.087273 
L 450.962174 45.087273 
L 451.693378 61.56 
L 453.886989 61.56 
L 454.618193 45.087273 
L 458.274213 45.087273 
L 459.005417 61.56 
L 460.467825 61.56 
L 461.199029 45.087273 
L 464.123844 45.087273 
L 464.855048 61.56 
L 467.779864 61.56 
L 468.511068 45.087273 
L 474.360699 45.087273 
L 474.360699 45.087273 
" clip-path="url(#p22f52954a3)" style="fill: none; stroke: #808080; stroke-width: 1.5; stroke-linecap: square"/>
   </g>
   <g id="line2d_11">
    <path d="M 69.273722 61.56 
L 260.117948 61.56 
L 266.698783 76.385455 
L 267.429987 76.385455 
L 268.892395 79.68 
L 272.548414 79.68 
L 281.322862 99.447273 
L 282.054066 99.447273 
L 287.903697 86.269091 
L 288.634901 86.269091 
L 289.366105 87.916364 
L 290.828513 87.916364 
L 294.484532 96.152727 
L 301.065368 96.152727 
L 303.25898 91.210909 
L 303.990184 91.210909 
L 308.377407 101.094545 
L 323.001486 101.094545 
L 324.463894 104.389091 
L 325.926301 104.389091 
L 331.775933 91.210909 
L 334.700749 78.032727 
L 336.89436 73.090909 
L 342.012788 50.029091 
L 343.475196 46.734545 
L 344.937604 46.734545 
L 346.400012 43.44 
L 348.593623 43.44 
L 350.787235 38.498182 
L 352.249643 38.498182 
L 355.905663 46.734545 
L 356.636867 46.734545 
L 358.830478 41.792727 
L 359.561682 43.44 
L 361.02409 50.029091 
L 363.948906 56.618182 
L 365.411314 56.618182 
L 366.142518 54.970909 
L 366.873722 51.676364 
L 370.529741 43.44 
L 371.260945 43.44 
L 372.723353 46.734545 
L 373.454557 46.734545 
L 375.648169 51.676364 
L 377.841781 51.676364 
L 380.035392 56.618182 
L 380.766596 59.912727 
L 381.4978 61.56 
L 382.960208 58.265455 
L 384.422616 58.265455 
L 387.347432 64.854545 
L 388.078636 64.854545 
L 391.734655 73.090909 
L 395.390675 73.090909 
L 396.853083 69.796364 
L 397.584287 66.501818 
L 400.509102 59.912727 
L 401.97151 59.912727 
L 403.433918 56.618182 
L 406.358734 56.618182 
L 409.28355 50.029091 
L 411.477161 50.029091 
L 413.670773 45.087273 
L 418.789201 45.087273 
L 422.44522 61.56 
L 423.907628 64.854545 
L 426.832444 64.854545 
L 433.413279 50.029091 
L 434.144483 50.029091 
L 437.069299 56.618182 
L 439.262911 56.618182 
L 443.650134 46.734545 
L 445.843746 36.850909 
L 448.037358 31.909091 
L 448.768562 31.909091 
L 450.23097 35.203636 
L 453.886989 35.203636 
L 456.080601 40.145455 
L 457.543009 40.145455 
L 461.199029 31.909091 
L 462.661437 31.909091 
L 464.123844 28.614545 
L 465.586252 28.614545 
L 469.973476 38.498182 
L 472.167088 38.498182 
L 474.360699 43.44 
L 474.360699 43.44 
" clip-path="url(#p22f52954a3)" style="fill: none; stroke: #1e90ff; stroke-width: 1.5; stroke-linecap: square"/>
   </g>
   <g id="LineCollection_1">
    <path d="M 69.273722 61.56 
L 475.091903 61.56 
" clip-path="url(#p22f52954a3)" style="fill: none; stroke: #1f77b4; stroke-width: 1.5"/>
   </g>
   <g id="LineCollection_2">
    <path d="M 260.849152 94.505455 
L 260.849152 28.614545 
" clip-path="url(#p22f52954a3)" style="fill: none; stroke-dasharray: 3.7,1.6; stroke-dashoffset: 0; stroke: #808080"/>
   </g>
   <g id="LineCollection_3">
    <path d="M 339.819176 94.505455 
L 339.819176 28.614545 
" clip-path="url(#p22f52954a3)" style="fill: none; stroke-dasharray: 3.7,1.6; stroke-dashoffset: 0; stroke: #808080"/>
   </g>
   <g id="LineCollection_4">
    <path d="M 386.616228 94.505455 
L 386.616228 28.614545 
" clip-path="url(#p22f52954a3)" style="fill: none; stroke-dasharray: 3.7,1.6; stroke-dashoffset: 0; stroke: #808080"/>
   </g>
   <g id="LineCollection_5">
    <path d="M 400.509102 94.505455 
L 400.509102 28.614545 
" clip-path="url(#p22f52954a3)" style="fill: none; stroke-dasharray: 3.7,1.6; stroke-dashoffset: 0; stroke: #808080"/>
   </g>
   <g id="LineCollection_6">
    <path d="M 423.176424 94.505455 
L 423.176424 28.614545 
" clip-path="url(#p22f52954a3)" style="fill: none; stroke-dasharray: 3.7,1.6; stroke-dashoffset: 0; stroke: #808080"/>
   </g>
   <g id="LineCollection_7">
    <path d="M 429.026056 94.505455 
L 429.026056 28.614545 
" clip-path="url(#p22f52954a3)" style="fill: none; stroke-dasharray: 3.7,1.6; stroke-dashoffset: 0; stroke: #808080"/>
   </g>
   <g id="LineCollection_8">
    <path d="M 337.625564 110.978182 
L 337.625564 12.141818 
" clip-path="url(#p22f52954a3)" style="fill: none; stroke: #000000; stroke-width: 1.5"/>
   </g>
   <g id="patch_3">
    <path d="M 48.982813 115.92 
L 48.982813 7.2 
" style="fill: none; stroke: #000000; stroke-width: 0.8; stroke-linejoin: miter; stroke-linecap: square"/>
   </g>
   <g id="patch_4">
    <path d="M 495.382812 115.92 
L 495.382812 7.2 
" style="fill: none; stroke: #000000; stroke-width: 0.8; stroke-linejoin: miter; stroke-linecap: square"/>
   </g>
   <g id="patch_5">
    <path d="M 48.982813 115.92 
L 495.382812 115.92 
" style="fill: none; stroke: #000000; stroke-width: 0.8; stroke-linejoin: miter; stroke-linecap: square"/>
   </g>
   <g id="patch_6">
    <path d="M 48.982813 7.2 
L 495.382812 7.2 
" style="fill: none; stroke: #000000; stroke-width: 0.8; stroke-linejoin: miter; stroke-linecap: square"/>
   </g>
  </g>
 </g>
 <defs>
  <clipPath id="p22f52954a3">
   <rect x="48.982813" y="7.2" width="446.4" height="108.72"/>
  </clipPath>
 </defs>
</svg>
