<?xml version="1.0" encoding="utf-8" standalone="no"?>
<!DOCTYPE svg PUBLIC "-//W3C//DTD SVG 1.1//EN"
  "http://www.w3.org/Graphics/SVG/1.1/DTD/svg11.dtd">
<svg xmlns:xlink="http://www.w3.org/1999/xlink" width="502.582812pt" height="153.47625pt" viewBox="0 0 502.582812 153.47625" xmlns="http://www.w3.org/2000/svg" version="1.1">
 <metadata>
  <rdf:RDF xmlns:dc="http://purl.org/dc/elements/1.1/" xmlns:cc="http://creativecommons.org/ns#" xmlns:rdf="http://www.w3.org/1999/02/22-rdf-syntax-ns#">
   <cc:Work>
    <dc:type rdf:resource="http://purl.org/dc/dcmitype/StillImage"/>
    <dc:date>2023-02-09T17:46:03.178419</dc:date>
    <dc:format>image/svg+xml</dc:format>
    <dc:creator>
     <cc:Agent>
      <dc:title>Matplotlib v3.5.1, https://matplotlib.org/</dc:title>
     </cc:Agent>
    </dc:creator>
   </cc:Work>
  </rdf:RDF>
 </metadata>
 <defs>
  <style type="text/css">*{stroke-linejoin: round; stroke-linecap: butt}</style>
 </defs>
 <g id="figure_1">
  <g id="patch_1">
   <path d="M 0 153.47625 
L 502.582812 153.47625 
L 502.582812 0 
L 0 0 
z
" style="fill: #ffffff"/>
  </g>
  <g id="axes_1">
   <g id="patch_2">
    <path d="M 48.982813 115.92 
L 495.382812 115.92 
L 495.382812 7.2 
L 48.982813 7.2 
z
" style="fill: #ffffff"/>
   </g>
   <g id="PolyCollection_1">
    <defs>
     <path id="ma8fdd4428c" d="M 69.273722 -91.91625 
L 69.273722 -91.91625 
L 69.783543 -91.91625 
L 70.293365 -91.91625 
L 70.803187 -91.91625 
L 71.313009 -91.91625 
L 71.822831 -91.91625 
L 72.332653 -91.91625 
L 72.842474 -91.91625 
L 73.352296 -91.91625 
L 73.862118 -91.91625 
L 74.37194 -91.91625 
L 74.881762 -91.91625 
L 75.391584 -91.91625 
L 75.901405 -91.91625 
L 76.411227 -91.91625 
L 76.921049 -91.91625 
L 77.430871 -91.91625 
L 77.940693 -91.91625 
L 78.450515 -91.91625 
L 78.960336 -91.91625 
L 79.470158 -91.91625 
L 79.97998 -91.91625 
L 80.489802 -91.91625 
L 80.999624 -91.91625 
L 81.509446 -91.91625 
L 82.019268 -91.91625 
L 82.529089 -91.91625 
L 83.038911 -91.91625 
L 83.548733 -91.91625 
L 84.058555 -91.91625 
L 84.568377 -91.91625 
L 85.078199 -91.91625 
L 85.58802 -91.91625 
L 86.097842 -91.91625 
L 86.607664 -91.91625 
L 87.117486 -91.91625 
L 87.627308 -91.91625 
L 88.13713 -91.91625 
L 88.646951 -91.91625 
L 89.156773 -91.91625 
L 89.666595 -91.91625 
L 90.176417 -91.91625 
L 90.686239 -91.91625 
L 91.196061 -91.91625 
L 91.705882 -91.91625 
L 92.215704 -91.91625 
L 92.725526 -91.91625 
L 93.235348 -91.91625 
L 93.74517 -91.91625 
L 94.254992 -91.91625 
L 94.764813 -91.91625 
L 95.274635 -91.91625 
L 95.784457 -91.91625 
L 96.294279 -91.91625 
L 96.804101 -91.91625 
L 97.313923 -91.91625 
L 97.823744 -91.91625 
L 98.333566 -91.91625 
L 98.843388 -91.91625 
L 99.35321 -91.91625 
L 99.863032 -91.91625 
L 100.372854 -91.91625 
L 100.882675 -91.91625 
L 101.392497 -91.91625 
L 101.902319 -91.91625 
L 102.412141 -91.91625 
L 102.921963 -91.91625 
L 103.431785 -91.91625 
L 103.941606 -91.91625 
L 104.451428 -91.91625 
L 104.96125 -91.91625 
L 105.471072 -91.91625 
L 105.980894 -91.91625 
L 106.490716 -91.91625 
L 107.000537 -91.91625 
L 107.510359 -91.91625 
L 108.020181 -91.91625 
L 108.530003 -91.91625 
L 109.039825 -91.91625 
L 109.549647 -91.91625 
L 110.059469 -91.91625 
L 110.56929 -91.91625 
L 111.079112 -91.91625 
L 111.588934 -91.91625 
L 112.098756 -91.91625 
L 112.608578 -91.91625 
L 113.1184 -91.91625 
L 113.628221 -91.91625 
L 114.138043 -91.91625 
L 114.647865 -91.91625 
L 115.157687 -91.91625 
L 115.667509 -91.91625 
L 116.177331 -91.91625 
L 116.687152 -91.91625 
L 117.196974 -91.91625 
L 117.706796 -91.91625 
L 118.216618 -91.91625 
L 118.72644 -91.91625 
L 119.236262 -91.91625 
L 119.746083 -91.91625 
L 120.255905 -91.91625 
L 120.765727 -91.91625 
L 121.275549 -91.91625 
L 121.785371 -91.91625 
L 122.295193 -91.91625 
L 122.805014 -91.91625 
L 123.314836 -91.91625 
L 123.824658 -91.91625 
L 124.33448 -91.91625 
L 124.844302 -91.91625 
L 125.354124 -91.91625 
L 125.863945 -91.91625 
L 126.373767 -91.91625 
L 126.883589 -91.91625 
L 127.393411 -91.91625 
L 127.903233 -91.91625 
L 128.413055 -91.91625 
L 128.922876 -91.91625 
L 129.432698 -91.91625 
L 129.94252 -91.91625 
L 130.452342 -91.91625 
L 130.962164 -91.91625 
L 131.471986 -91.91625 
L 131.981807 -91.91625 
L 132.491629 -91.91625 
L 133.001451 -91.91625 
L 133.511273 -91.91625 
L 134.021095 -91.91625 
L 134.530917 -91.91625 
L 135.040738 -91.91625 
L 135.55056 -91.91625 
L 136.060382 -91.91625 
L 136.570204 -91.91625 
L 137.080026 -91.91625 
L 137.589848 -91.91625 
L 138.09967 -91.91625 
L 138.609491 -91.91625 
L 139.119313 -91.91625 
L 139.629135 -91.91625 
L 140.138957 -91.91625 
L 140.648779 -91.91625 
L 141.158601 -91.91625 
L 141.668422 -91.91625 
L 142.178244 -91.91625 
L 142.688066 -91.91625 
L 143.197888 -91.91625 
L 143.70771 -91.91625 
L 144.217532 -91.91625 
L 144.727353 -91.91625 
L 145.237175 -91.91625 
L 145.746997 -91.91625 
L 146.256819 -91.91625 
L 146.766641 -91.91625 
L 147.276463 -91.91625 
L 147.786284 -91.91625 
L 148.296106 -91.91625 
L 148.805928 -91.91625 
L 149.31575 -91.91625 
L 149.825572 -91.91625 
L 150.335394 -91.91625 
L 150.845215 -91.91625 
L 151.355037 -91.91625 
L 151.864859 -91.91625 
L 152.374681 -91.91625 
L 152.884503 -91.91625 
L 153.394325 -91.91625 
L 153.904146 -91.91625 
L 154.413968 -91.91625 
L 154.92379 -91.91625 
L 155.433612 -91.91625 
L 155.943434 -91.91625 
L 156.453256 -91.91625 
L 156.963077 -91.91625 
L 157.472899 -91.91625 
L 157.982721 -91.91625 
L 158.492543 -91.91625 
L 159.002365 -91.91625 
L 159.512187 -91.91625 
L 160.022008 -91.91625 
L 160.53183 -91.91625 
L 161.041652 -91.91625 
L 161.551474 -91.91625 
L 162.061296 -91.91625 
L 162.571118 -91.91625 
L 163.080939 -91.91625 
L 163.590761 -91.91625 
L 164.100583 -91.91625 
L 164.610405 -91.91625 
L 165.120227 -91.91625 
L 165.630049 -91.91625 
L 166.139871 -91.91625 
L 166.649692 -91.91625 
L 167.159514 -91.91625 
L 167.669336 -91.91625 
L 168.179158 -91.91625 
L 168.68898 -91.91625 
L 169.198802 -91.91625 
L 169.708623 -91.91625 
L 170.218445 -91.91625 
L 170.728267 -91.91625 
L 171.238089 -91.91625 
L 171.747911 -91.91625 
L 172.257733 -91.91625 
L 172.767554 -91.91625 
L 173.277376 -91.91625 
L 173.787198 -91.91625 
L 174.29702 -91.91625 
L 174.806842 -91.91625 
L 175.316664 -91.91625 
L 175.826485 -91.91625 
L 176.336307 -91.91625 
L 176.846129 -91.91625 
L 177.355951 -91.91625 
L 177.865773 -91.91625 
L 178.375595 -91.91625 
L 178.885416 -91.91625 
L 179.395238 -91.91625 
L 179.90506 -91.91625 
L 180.414882 -91.91625 
L 180.924704 -91.91625 
L 181.434526 -91.91625 
L 181.944347 -91.91625 
L 182.454169 -91.91625 
L 182.963991 -91.91625 
L 183.473813 -91.91625 
L 183.983635 -91.91625 
L 184.493457 -91.91625 
L 185.003278 -91.91625 
L 185.5131 -91.91625 
L 186.022922 -91.91625 
L 186.532744 -91.91625 
L 187.042566 -91.91625 
L 187.552388 -91.91625 
L 188.062209 -91.91625 
L 188.572031 -91.91625 
L 189.081853 -91.91625 
L 189.591675 -91.91625 
L 190.101497 -91.91625 
L 190.611319 -91.91625 
L 191.121141 -91.91625 
L 191.630962 -91.91625 
L 192.140784 -91.91625 
L 192.650606 -91.91625 
L 193.160428 -91.91625 
L 193.67025 -91.91625 
L 194.180072 -91.91625 
L 194.689893 -91.91625 
L 195.199715 -91.91625 
L 195.709537 -91.91625 
L 196.219359 -91.91625 
L 196.729181 -91.91625 
L 197.239003 -91.91625 
L 197.748824 -91.91625 
L 198.258646 -91.91625 
L 198.768468 -91.91625 
L 199.27829 -91.91625 
L 199.788112 -91.91625 
L 200.297934 -91.91625 
L 200.807755 -91.91625 
L 201.317577 -91.91625 
L 201.827399 -91.91625 
L 202.337221 -91.91625 
L 202.847043 -91.91625 
L 203.356865 -91.91625 
L 203.866686 -91.91625 
L 204.376508 -91.91625 
L 204.88633 -91.91625 
L 205.396152 -91.91625 
L 205.905974 -91.91625 
L 206.415796 -91.91625 
L 206.925617 -91.91625 
L 207.435439 -91.91625 
L 207.945261 -91.91625 
L 208.455083 -91.91625 
L 208.964905 -91.91625 
L 209.474727 -91.91625 
L 209.984548 -91.91625 
L 210.49437 -91.91625 
L 211.004192 -91.91625 
L 211.514014 -91.91625 
L 212.023836 -91.91625 
L 212.533658 -91.91625 
L 213.043479 -91.91625 
L 213.553301 -91.91625 
L 214.063123 -91.91625 
L 214.572945 -91.91625 
L 215.082767 -91.91625 
L 215.592589 -91.91625 
L 216.10241 -91.91625 
L 216.612232 -91.91625 
L 217.122054 -91.91625 
L 217.631876 -91.91625 
L 218.141698 -91.91625 
L 218.65152 -91.91625 
L 219.161342 -91.91625 
L 219.671163 -91.91625 
L 220.180985 -91.91625 
L 220.690807 -91.91625 
L 221.200629 -91.91625 
L 221.710451 -91.91625 
L 222.220273 -91.91625 
L 222.730094 -91.91625 
L 223.239916 -91.91625 
L 223.749738 -91.91625 
L 224.25956 -91.91625 
L 224.769382 -91.91625 
L 225.279204 -91.91625 
L 225.789025 -91.91625 
L 226.298847 -91.91625 
L 226.808669 -91.91625 
L 227.318491 -91.91625 
L 227.828313 -91.91625 
L 228.338135 -91.91625 
L 228.847956 -91.91625 
L 229.357778 -91.91625 
L 229.8676 -91.91625 
L 230.377422 -91.91625 
L 230.887244 -91.91625 
L 231.397066 -91.91625 
L 231.906887 -91.91625 
L 232.416709 -91.91625 
L 232.926531 -91.91625 
L 233.436353 -91.91625 
L 233.946175 -91.91625 
L 234.455997 -91.91625 
L 234.965818 -91.91625 
L 235.47564 -91.91625 
L 235.985462 -91.91625 
L 236.495284 -91.91625 
L 237.005106 -91.91625 
L 237.514928 -91.91625 
L 238.024749 -91.91625 
L 238.534571 -91.91625 
L 239.044393 -91.91625 
L 239.554215 -91.91625 
L 240.064037 -91.91625 
L 240.573859 -91.91625 
L 241.08368 -91.91625 
L 241.593502 -91.91625 
L 242.103324 -91.91625 
L 242.613146 -91.91625 
L 243.122968 -91.91625 
L 243.63279 -91.91625 
L 244.142611 -91.91625 
L 244.652433 -91.91625 
L 245.162255 -91.91625 
L 245.672077 -91.91625 
L 246.181899 -91.91625 
L 246.691721 -91.91625 
L 247.201543 -91.91625 
L 247.711364 -91.91625 
L 248.221186 -91.91625 
L 248.731008 -91.91625 
L 249.24083 -91.91625 
L 249.750652 -91.91625 
L 250.260474 -91.91625 
L 250.770295 -91.91625 
L 251.280117 -91.91625 
L 251.789939 -91.91625 
L 252.299761 -91.91625 
L 252.809583 -91.91625 
L 253.319405 -91.91625 
L 253.829226 -91.91625 
L 254.339048 -91.91625 
L 254.84887 -91.91625 
L 255.358692 -91.91625 
L 255.868514 -91.91625 
L 256.378336 -91.91625 
L 256.888157 -91.91625 
L 257.397979 -91.91625 
L 257.907801 -91.91625 
L 258.417623 -91.91625 
L 258.927445 -91.91625 
L 259.437267 -91.91625 
L 259.947088 -91.91625 
L 260.45691 -91.91625 
L 260.966732 -91.91625 
L 261.476554 -91.91625 
L 261.986376 -91.91625 
L 262.496198 -91.91625 
L 263.006019 -91.91625 
L 263.515841 -91.91625 
L 264.025663 -91.91625 
L 264.535485 -91.91625 
L 265.045307 -91.91625 
L 265.555129 -91.91625 
L 266.06495 -91.91625 
L 266.574772 -91.91625 
L 267.084594 -91.91625 
L 267.594416 -91.91625 
L 268.104238 -91.91625 
L 268.61406 -91.91625 
L 269.123881 -91.91625 
L 269.633703 -91.91625 
L 270.143525 -91.91625 
L 270.653347 -91.91625 
L 271.163169 -91.91625 
L 271.672991 -91.91625 
L 272.182813 -91.91625 
L 272.692634 -91.91625 
L 273.202456 -91.91625 
L 273.712278 -91.91625 
L 274.2221 -91.91625 
L 274.731922 -91.91625 
L 275.241744 -91.91625 
L 275.751565 -91.91625 
L 276.261387 -91.91625 
L 276.771209 -91.91625 
L 277.281031 -91.91625 
L 277.790853 -91.91625 
L 278.300675 -91.91625 
L 278.810496 -91.91625 
L 279.320318 -91.91625 
L 279.83014 -91.91625 
L 280.339962 -91.91625 
L 280.849784 -91.91625 
L 281.359606 -91.91625 
L 281.869427 -91.91625 
L 282.379249 -91.91625 
L 282.889071 -91.91625 
L 283.398893 -91.91625 
L 283.908715 -91.91625 
L 284.418537 -91.91625 
L 284.928358 -91.91625 
L 285.43818 -91.91625 
L 285.948002 -91.91625 
L 286.457824 -91.91625 
L 286.967646 -91.91625 
L 287.477468 -91.91625 
L 287.987289 -91.91625 
L 288.497111 -91.91625 
L 289.006933 -91.91625 
L 289.516755 -91.91625 
L 290.026577 -91.91625 
L 290.536399 -91.91625 
L 291.04622 -91.91625 
L 291.556042 -91.91625 
L 292.065864 -91.91625 
L 292.575686 -91.91625 
L 293.085508 -91.91625 
L 293.59533 -91.91625 
L 294.105151 -91.91625 
L 294.614973 -91.91625 
L 295.124795 -91.91625 
L 295.634617 -91.91625 
L 296.144439 -91.91625 
L 296.654261 -91.91625 
L 297.164082 -91.91625 
L 297.673904 -91.91625 
L 298.183726 -91.91625 
L 298.693548 -91.91625 
L 299.20337 -91.91625 
L 299.713192 -91.91625 
L 300.223014 -91.91625 
L 300.732835 -91.91625 
L 301.242657 -91.91625 
L 301.752479 -91.91625 
L 302.262301 -91.91625 
L 302.772123 -91.91625 
L 303.281945 -91.91625 
L 303.791766 -91.91625 
L 304.301588 -91.91625 
L 304.81141 -91.91625 
L 305.321232 -91.91625 
L 305.831054 -91.91625 
L 306.340876 -91.91625 
L 306.850697 -91.91625 
L 307.360519 -91.91625 
L 307.870341 -91.91625 
L 308.380163 -91.91625 
L 308.889985 -91.91625 
L 309.399807 -91.91625 
L 309.909628 -91.91625 
L 310.41945 -91.91625 
L 310.929272 -91.91625 
L 311.439094 -91.91625 
L 311.948916 -91.91625 
L 312.458738 -91.91625 
L 312.968559 -91.91625 
L 313.478381 -91.91625 
L 313.988203 -91.91625 
L 314.498025 -91.91625 
L 315.007847 -91.91625 
L 315.517669 -91.91625 
L 316.02749 -91.91625 
L 316.537312 -91.91625 
L 317.047134 -91.91625 
L 317.556956 -91.91625 
L 318.066778 -91.91625 
L 318.5766 -91.91625 
L 319.086421 -91.91625 
L 319.596243 -91.91625 
L 320.106065 -91.91625 
L 320.615887 -91.91625 
L 321.125709 -91.91625 
L 321.635531 -91.91625 
L 322.145352 -91.91625 
L 322.655174 -91.91625 
L 323.164996 -91.91625 
L 323.674818 -91.91625 
L 324.18464 -91.91625 
L 324.694462 -91.91625 
L 325.204283 -91.91625 
L 325.714105 -91.91625 
L 326.223927 -91.91625 
L 326.733749 -91.91625 
L 327.243571 -91.91625 
L 327.753393 -91.91625 
L 328.263215 -91.91625 
L 328.773036 -91.91625 
L 329.282858 -91.91625 
L 329.79268 -91.91625 
L 330.302502 -91.91625 
L 330.812324 -91.91625 
L 331.322146 -91.91625 
L 331.831967 -91.91625 
L 332.341789 -91.91625 
L 332.851611 -91.91625 
L 333.361433 -91.91625 
L 333.871255 -91.91625 
L 334.381077 -91.91625 
L 334.890898 -91.91625 
L 335.40072 -91.91625 
L 335.910542 -91.91625 
L 336.420364 -91.91625 
L 336.930186 -91.91625 
L 337.440008 -91.91625 
L 337.949829 -91.91625 
L 338.459651 -90.268977 
L 338.969473 -88.621705 
L 339.479295 -86.974432 
L 339.989117 -85.327159 
L 340.498939 -85.327159 
L 341.00876 -85.327159 
L 341.518582 -85.327159 
L 342.028404 -85.327159 
L 342.538226 -85.327159 
L 343.048048 -85.327159 
L 343.55787 -85.327159 
L 344.067691 -85.327159 
L 344.577513 -85.327159 
L 345.087335 -85.327159 
L 345.597157 -85.327159 
L 346.106979 -85.327159 
L 346.616801 -85.327159 
L 347.126622 -85.327159 
L 347.636444 -85.327159 
L 348.146266 -85.327159 
L 348.656088 -85.327159 
L 349.16591 -83.679886 
L 349.675732 -82.032614 
L 350.185553 -80.385341 
L 350.695375 -78.738068 
L 351.205197 -78.738068 
L 351.715019 -78.738068 
L 352.224841 -78.738068 
L 352.734663 -78.738068 
L 353.244484 -77.090795 
L 353.754306 -77.090795 
L 354.264128 -77.090795 
L 354.77395 -77.090795 
L 355.283772 -77.090795 
L 355.793594 -75.443523 
L 356.303416 -73.79625 
L 356.813237 -72.148977 
L 357.323059 -70.501705 
L 357.832881 -70.501705 
L 358.342703 -70.501705 
L 358.852525 -70.501705 
L 359.362347 -68.854432 
L 359.872168 -67.207159 
L 360.38199 -65.559886 
L 360.891812 -63.912614 
L 361.401634 -62.265341 
L 361.911456 -60.618068 
L 362.421278 -58.970795 
L 362.931099 -57.323523 
L 363.440921 -55.67625 
L 363.950743 -54.028977 
L 364.460565 -54.028977 
L 364.970387 -54.028977 
L 365.480209 -54.028977 
L 365.99003 -54.028977 
L 366.499852 -52.381705 
L 367.009674 -50.734432 
L 367.519496 -49.087159 
L 368.029318 -47.439886 
L 368.53914 -47.439886 
L 369.048961 -47.439886 
L 369.558783 -47.439886 
L 370.068605 -47.439886 
L 370.578427 -49.087159 
L 371.088249 -50.734432 
L 371.598071 -52.381705 
L 372.107892 -54.028977 
L 372.617714 -55.67625 
L 373.127536 -54.028977 
L 373.637358 -52.381705 
L 374.14718 -50.734432 
L 374.657002 -50.734432 
L 375.166823 -50.734432 
L 375.676645 -50.734432 
L 376.186467 -50.734432 
L 376.696289 -50.734432 
L 377.206111 -50.734432 
L 377.715933 -50.734432 
L 378.225754 -50.734432 
L 378.735576 -50.734432 
L 379.245398 -50.734432 
L 379.75522 -50.734432 
L 380.265042 -50.734432 
L 380.774864 -50.734432 
L 381.284686 -50.734432 
L 381.794507 -50.734432 
L 382.304329 -50.734432 
L 382.814151 -50.734432 
L 383.323973 -50.734432 
L 383.833795 -52.381705 
L 384.343617 -52.381705 
L 384.853438 -52.381705 
L 385.36326 -54.028977 
L 385.873082 -54.028977 
L 386.382904 -54.028977 
L 386.892726 -54.028977 
L 387.402548 -54.028977 
L 387.912369 -54.028977 
L 388.422191 -57.323523 
L 388.932013 -60.618068 
L 389.441835 -63.912614 
L 389.951657 -67.207159 
L 390.461479 -68.854432 
L 390.9713 -70.501705 
L 391.481122 -72.148977 
L 391.990944 -73.79625 
L 392.500766 -77.090795 
L 393.010588 -80.385341 
L 393.52041 -83.679886 
L 394.030231 -86.974432 
L 394.540053 -90.268977 
L 395.049875 -93.563523 
L 395.559697 -96.858068 
L 396.069519 -100.152614 
L 396.579341 -103.447159 
L 397.089162 -105.094432 
L 397.598984 -106.741705 
L 398.108806 -108.388977 
L 398.618628 -110.03625 
L 399.12845 -110.03625 
L 399.638272 -111.683523 
L 400.148093 -113.330795 
L 400.657915 -113.330795 
L 401.167737 -114.978068 
L 401.677559 -116.625341 
L 402.187381 -118.272614 
L 402.697203 -119.919886 
L 403.207024 -121.567159 
L 403.716846 -119.919886 
L 404.226668 -118.272614 
L 404.73649 -116.625341 
L 405.246312 -114.978068 
L 405.756134 -114.978068 
L 406.265955 -114.978068 
L 406.775777 -114.978068 
L 407.285599 -114.978068 
L 407.795421 -114.978068 
L 408.305243 -114.978068 
L 408.815065 -114.978068 
L 409.324887 -114.978068 
L 409.834708 -114.978068 
L 410.34453 -113.330795 
L 410.854352 -111.683523 
L 411.364174 -108.388977 
L 411.873996 -105.094432 
L 412.383818 -105.094432 
L 412.893639 -105.094432 
L 413.403461 -105.094432 
L 413.913283 -105.094432 
L 414.423105 -105.094432 
L 414.932927 -106.741705 
L 415.442749 -108.388977 
L 415.95257 -110.03625 
L 416.462392 -110.03625 
L 416.972214 -110.03625 
L 417.482036 -110.03625 
L 417.991858 -110.03625 
L 418.50168 -110.03625 
L 419.011501 -111.683523 
L 419.521323 -111.683523 
L 420.031145 -111.683523 
L 420.540967 -111.683523 
L 421.050789 -111.683523 
L 421.560611 -111.683523 
L 422.070432 -111.683523 
L 422.580254 -111.683523 
L 423.090076 -110.03625 
L 423.599898 -108.388977 
L 424.10972 -106.741705 
L 424.619542 -105.094432 
L 425.129363 -103.447159 
L 425.639185 -103.447159 
L 426.149007 -103.447159 
L 426.658829 -106.741705 
L 427.168651 -110.03625 
L 427.678473 -111.683523 
L 428.188294 -113.330795 
L 428.698116 -114.978068 
L 429.207938 -116.625341 
L 429.71776 -118.272614 
L 430.227582 -118.272614 
L 430.737404 -118.272614 
L 431.247225 -118.272614 
L 431.757047 -118.272614 
L 432.266869 -118.272614 
L 432.776691 -116.625341 
L 433.286513 -114.978068 
L 433.796335 -113.330795 
L 434.306156 -111.683523 
L 434.815978 -111.683523 
L 435.3258 -111.683523 
L 435.835622 -111.683523 
L 436.345444 -111.683523 
L 436.855266 -111.683523 
L 437.365088 -111.683523 
L 437.874909 -111.683523 
L 438.384731 -111.683523 
L 438.894553 -113.330795 
L 439.404375 -114.978068 
L 439.914197 -116.625341 
L 440.424019 -118.272614 
L 440.93384 -119.919886 
L 441.443662 -119.919886 
L 441.953484 -118.272614 
L 442.463306 -116.625341 
L 442.973128 -114.978068 
L 443.48295 -113.330795 
L 443.992771 -111.683523 
L 444.502593 -110.03625 
L 445.012415 -108.388977 
L 445.522237 -106.741705 
L 446.032059 -106.741705 
L 446.541881 -106.741705 
L 447.051702 -106.741705 
L 447.561524 -106.741705 
L 448.071346 -108.388977 
L 448.581168 -110.03625 
L 449.09099 -111.683523 
L 449.600812 -111.683523 
L 450.110633 -111.683523 
L 450.620455 -111.683523 
L 451.130277 -111.683523 
L 451.640099 -111.683523 
L 452.149921 -113.330795 
L 452.659743 -114.978068 
L 453.169564 -114.978068 
L 453.679386 -114.978068 
L 454.189208 -113.330795 
L 454.69903 -111.683523 
L 455.208852 -111.683523 
L 455.718674 -111.683523 
L 456.228495 -111.683523 
L 456.738317 -113.330795 
L 457.248139 -114.978068 
L 457.757961 -114.978068 
L 458.267783 -114.978068 
L 458.777605 -114.978068 
L 459.287426 -114.978068 
L 459.797248 -116.625341 
L 460.30707 -118.272614 
L 460.816892 -119.919886 
L 461.326714 -119.919886 
L 461.836536 -119.919886 
L 462.346357 -118.272614 
L 462.856179 -116.625341 
L 463.366001 -114.978068 
L 463.875823 -113.330795 
L 464.385645 -111.683523 
L 464.895467 -113.330795 
L 465.405289 -114.978068 
L 465.91511 -116.625341 
L 466.424932 -118.272614 
L 466.934754 -119.919886 
L 467.444576 -119.919886 
L 467.954398 -118.272614 
L 468.46422 -118.272614 
L 468.974041 -118.272614 
L 469.483863 -118.272614 
L 469.993685 -118.272614 
L 470.503507 -116.625341 
L 471.013329 -114.978068 
L 471.523151 -113.330795 
L 472.032972 -111.683523 
L 472.542794 -110.03625 
L 473.052616 -110.03625 
L 473.562438 -110.03625 
L 474.07226 -110.03625 
L 474.582082 -110.03625 
L 474.582082 -91.91625 
L 474.582082 -91.91625 
L 474.07226 -91.91625 
L 473.562438 -91.91625 
L 473.052616 -91.91625 
L 472.542794 -91.91625 
L 472.032972 -91.91625 
L 471.523151 -91.91625 
L 471.013329 -91.91625 
L 470.503507 -91.91625 
L 469.993685 -91.91625 
L 469.483863 -91.91625 
L 468.974041 -91.91625 
L 468.46422 -91.91625 
L 467.954398 -91.91625 
L 467.444576 -91.91625 
L 466.934754 -91.91625 
L 466.424932 -91.91625 
L 465.91511 -91.91625 
L 465.405289 -91.91625 
L 464.895467 -91.91625 
L 464.385645 -91.91625 
L 463.875823 -91.91625 
L 463.366001 -91.91625 
L 462.856179 -91.91625 
L 462.346357 -91.91625 
L 461.836536 -91.91625 
L 461.326714 -91.91625 
L 460.816892 -91.91625 
L 460.30707 -91.91625 
L 459.797248 -91.91625 
L 459.287426 -91.91625 
L 458.777605 -91.91625 
L 458.267783 -91.91625 
L 457.757961 -91.91625 
L 457.248139 -91.91625 
L 456.738317 -91.91625 
L 456.228495 -91.91625 
L 455.718674 -91.91625 
L 455.208852 -91.91625 
L 454.69903 -91.91625 
L 454.189208 -91.91625 
L 453.679386 -91.91625 
L 453.169564 -91.91625 
L 452.659743 -91.91625 
L 452.149921 -91.91625 
L 451.640099 -91.91625 
L 451.130277 -91.91625 
L 450.620455 -91.91625 
L 450.110633 -91.91625 
L 449.600812 -91.91625 
L 449.09099 -91.91625 
L 448.581168 -91.91625 
L 448.071346 -91.91625 
L 447.561524 -91.91625 
L 447.051702 -91.91625 
L 446.541881 -91.91625 
L 446.032059 -91.91625 
L 445.522237 -91.91625 
L 445.012415 -91.91625 
L 444.502593 -91.91625 
L 443.992771 -91.91625 
L 443.48295 -91.91625 
L 442.973128 -91.91625 
L 442.463306 -91.91625 
L 441.953484 -91.91625 
L 441.443662 -91.91625 
L 440.93384 -91.91625 
L 440.424019 -91.91625 
L 439.914197 -91.91625 
L 439.404375 -91.91625 
L 438.894553 -91.91625 
L 438.384731 -91.91625 
L 437.874909 -91.91625 
L 437.365088 -91.91625 
L 436.855266 -91.91625 
L 436.345444 -91.91625 
L 435.835622 -91.91625 
L 435.3258 -91.91625 
L 434.815978 -91.91625 
L 434.306156 -91.91625 
L 433.796335 -91.91625 
L 433.286513 -91.91625 
L 432.776691 -91.91625 
L 432.266869 -91.91625 
L 431.757047 -91.91625 
L 431.247225 -91.91625 
L 430.737404 -91.91625 
L 430.227582 -91.91625 
L 429.71776 -91.91625 
L 429.207938 -91.91625 
L 428.698116 -91.91625 
L 428.188294 -91.91625 
L 427.678473 -91.91625 
L 427.168651 -91.91625 
L 426.658829 -91.91625 
L 426.149007 -91.91625 
L 425.639185 -91.91625 
L 425.129363 -91.91625 
L 424.619542 -91.91625 
L 424.10972 -91.91625 
L 423.599898 -91.91625 
L 423.090076 -91.91625 
L 422.580254 -91.91625 
L 422.070432 -91.91625 
L 421.560611 -91.91625 
L 421.050789 -91.91625 
L 420.540967 -91.91625 
L 420.031145 -91.91625 
L 419.521323 -91.91625 
L 419.011501 -91.91625 
L 418.50168 -91.91625 
L 417.991858 -91.91625 
L 417.482036 -91.91625 
L 416.972214 -91.91625 
L 416.462392 -91.91625 
L 415.95257 -91.91625 
L 415.442749 -91.91625 
L 414.932927 -91.91625 
L 414.423105 -91.91625 
L 413.913283 -91.91625 
L 413.403461 -91.91625 
L 412.893639 -91.91625 
L 412.383818 -91.91625 
L 411.873996 -91.91625 
L 411.364174 -91.91625 
L 410.854352 -91.91625 
L 410.34453 -91.91625 
L 409.834708 -91.91625 
L 409.324887 -91.91625 
L 408.815065 -91.91625 
L 408.305243 -91.91625 
L 407.795421 -91.91625 
L 407.285599 -91.91625 
L 406.775777 -91.91625 
L 406.265955 -91.91625 
L 405.756134 -91.91625 
L 405.246312 -91.91625 
L 404.73649 -91.91625 
L 404.226668 -91.91625 
L 403.716846 -91.91625 
L 403.207024 -91.91625 
L 402.697203 -91.91625 
L 402.187381 -91.91625 
L 401.677559 -91.91625 
L 401.167737 -91.91625 
L 400.657915 -91.91625 
L 400.148093 -91.91625 
L 399.638272 -91.91625 
L 399.12845 -91.91625 
L 398.618628 -91.91625 
L 398.108806 -91.91625 
L 397.598984 -91.91625 
L 397.089162 -91.91625 
L 396.579341 -91.91625 
L 396.069519 -91.91625 
L 395.559697 -91.91625 
L 395.049875 -91.91625 
L 394.540053 -91.91625 
L 394.030231 -91.91625 
L 393.52041 -91.91625 
L 393.010588 -91.91625 
L 392.500766 -91.91625 
L 391.990944 -91.91625 
L 391.481122 -91.91625 
L 390.9713 -91.91625 
L 390.461479 -91.91625 
L 389.951657 -91.91625 
L 389.441835 -91.91625 
L 388.932013 -91.91625 
L 388.422191 -91.91625 
L 387.912369 -91.91625 
L 387.402548 -91.91625 
L 386.892726 -91.91625 
L 386.382904 -91.91625 
L 385.873082 -91.91625 
L 385.36326 -91.91625 
L 384.853438 -91.91625 
L 384.343617 -91.91625 
L 383.833795 -91.91625 
L 383.323973 -91.91625 
L 382.814151 -91.91625 
L 382.304329 -91.91625 
L 381.794507 -91.91625 
L 381.284686 -91.91625 
L 380.774864 -91.91625 
L 380.265042 -91.91625 
L 379.75522 -91.91625 
L 379.245398 -91.91625 
L 378.735576 -91.91625 
L 378.225754 -91.91625 
L 377.715933 -91.91625 
L 377.206111 -91.91625 
L 376.696289 -91.91625 
L 376.186467 -91.91625 
L 375.676645 -91.91625 
L 375.166823 -91.91625 
L 374.657002 -91.91625 
L 374.14718 -91.91625 
L 373.637358 -91.91625 
L 373.127536 -91.91625 
L 372.617714 -91.91625 
L 372.107892 -91.91625 
L 371.598071 -91.91625 
L 371.088249 -91.91625 
L 370.578427 -91.91625 
L 370.068605 -91.91625 
L 369.558783 -91.91625 
L 369.048961 -91.91625 
L 368.53914 -91.91625 
L 368.029318 -91.91625 
L 367.519496 -91.91625 
L 367.009674 -91.91625 
L 366.499852 -91.91625 
L 365.99003 -91.91625 
L 365.480209 -91.91625 
L 364.970387 -91.91625 
L 364.460565 -91.91625 
L 363.950743 -91.91625 
L 363.440921 -91.91625 
L 362.931099 -91.91625 
L 362.421278 -91.91625 
L 361.911456 -91.91625 
L 361.401634 -91.91625 
L 360.891812 -91.91625 
L 360.38199 -91.91625 
L 359.872168 -91.91625 
L 359.362347 -91.91625 
L 358.852525 -91.91625 
L 358.342703 -91.91625 
L 357.832881 -91.91625 
L 357.323059 -91.91625 
L 356.813237 -91.91625 
L 356.303416 -91.91625 
L 355.793594 -91.91625 
L 355.283772 -91.91625 
L 354.77395 -91.91625 
L 354.264128 -91.91625 
L 353.754306 -91.91625 
L 353.244484 -91.91625 
L 352.734663 -91.91625 
L 352.224841 -91.91625 
L 351.715019 -91.91625 
L 351.205197 -91.91625 
L 350.695375 -91.91625 
L 350.185553 -91.91625 
L 349.675732 -91.91625 
L 349.16591 -91.91625 
L 348.656088 -91.91625 
L 348.146266 -91.91625 
L 347.636444 -91.91625 
L 347.126622 -91.91625 
L 346.616801 -91.91625 
L 346.106979 -91.91625 
L 345.597157 -91.91625 
L 345.087335 -91.91625 
L 344.577513 -91.91625 
L 344.067691 -91.91625 
L 343.55787 -91.91625 
L 343.048048 -91.91625 
L 342.538226 -91.91625 
L 342.028404 -91.91625 
L 341.518582 -91.91625 
L 341.00876 -91.91625 
L 340.498939 -91.91625 
L 339.989117 -91.91625 
L 339.479295 -91.91625 
L 338.969473 -91.91625 
L 338.459651 -91.91625 
L 337.949829 -91.91625 
L 337.440008 -91.91625 
L 336.930186 -91.91625 
L 336.420364 -91.91625 
L 335.910542 -91.91625 
L 335.40072 -91.91625 
L 334.890898 -91.91625 
L 334.381077 -91.91625 
L 333.871255 -91.91625 
L 333.361433 -91.91625 
L 332.851611 -91.91625 
L 332.341789 -91.91625 
L 331.831967 -91.91625 
L 331.322146 -91.91625 
L 330.812324 -91.91625 
L 330.302502 -91.91625 
L 329.79268 -91.91625 
L 329.282858 -91.91625 
L 328.773036 -91.91625 
L 328.263215 -91.91625 
L 327.753393 -91.91625 
L 327.243571 -91.91625 
L 326.733749 -91.91625 
L 326.223927 -91.91625 
L 325.714105 -91.91625 
L 325.204283 -91.91625 
L 324.694462 -91.91625 
L 324.18464 -91.91625 
L 323.674818 -91.91625 
L 323.164996 -91.91625 
L 322.655174 -91.91625 
L 322.145352 -91.91625 
L 321.635531 -91.91625 
L 321.125709 -91.91625 
L 320.615887 -91.91625 
L 320.106065 -91.91625 
L 319.596243 -91.91625 
L 319.086421 -91.91625 
L 318.5766 -91.91625 
L 318.066778 -91.91625 
L 317.556956 -91.91625 
L 317.047134 -91.91625 
L 316.537312 -91.91625 
L 316.02749 -91.91625 
L 315.517669 -91.91625 
L 315.007847 -91.91625 
L 314.498025 -91.91625 
L 313.988203 -91.91625 
L 313.478381 -91.91625 
L 312.968559 -91.91625 
L 312.458738 -91.91625 
L 311.948916 -91.91625 
L 311.439094 -91.91625 
L 310.929272 -91.91625 
L 310.41945 -91.91625 
L 309.909628 -91.91625 
L 309.399807 -91.91625 
L 308.889985 -91.91625 
L 308.380163 -91.91625 
L 307.870341 -91.91625 
L 307.360519 -91.91625 
L 306.850697 -91.91625 
L 306.340876 -91.91625 
L 305.831054 -91.91625 
L 305.321232 -91.91625 
L 304.81141 -91.91625 
L 304.301588 -91.91625 
L 303.791766 -91.91625 
L 303.281945 -91.91625 
L 302.772123 -91.91625 
L 302.262301 -91.91625 
L 301.752479 -91.91625 
L 301.242657 -91.91625 
L 300.732835 -91.91625 
L 300.223014 -91.91625 
L 299.713192 -91.91625 
L 299.20337 -91.91625 
L 298.693548 -91.91625 
L 298.183726 -91.91625 
L 297.673904 -91.91625 
L 297.164082 -91.91625 
L 296.654261 -91.91625 
L 296.144439 -91.91625 
L 295.634617 -91.91625 
L 295.124795 -91.91625 
L 294.614973 -91.91625 
L 294.105151 -91.91625 
L 293.59533 -91.91625 
L 293.085508 -91.91625 
L 292.575686 -91.91625 
L 292.065864 -91.91625 
L 291.556042 -91.91625 
L 291.04622 -91.91625 
L 290.536399 -91.91625 
L 290.026577 -91.91625 
L 289.516755 -91.91625 
L 289.006933 -91.91625 
L 288.497111 -91.91625 
L 287.987289 -91.91625 
L 287.477468 -91.91625 
L 286.967646 -91.91625 
L 286.457824 -91.91625 
L 285.948002 -91.91625 
L 285.43818 -91.91625 
L 284.928358 -91.91625 
L 284.418537 -91.91625 
L 283.908715 -91.91625 
L 283.398893 -91.91625 
L 282.889071 -91.91625 
L 282.379249 -91.91625 
L 281.869427 -91.91625 
L 281.359606 -91.91625 
L 280.849784 -91.91625 
L 280.339962 -91.91625 
L 279.83014 -91.91625 
L 279.320318 -91.91625 
L 278.810496 -91.91625 
L 278.300675 -91.91625 
L 277.790853 -91.91625 
L 277.281031 -91.91625 
L 276.771209 -91.91625 
L 276.261387 -91.91625 
L 275.751565 -91.91625 
L 275.241744 -91.91625 
L 274.731922 -91.91625 
L 274.2221 -91.91625 
L 273.712278 -91.91625 
L 273.202456 -91.91625 
L 272.692634 -91.91625 
L 272.182813 -91.91625 
L 271.672991 -91.91625 
L 271.163169 -91.91625 
L 270.653347 -91.91625 
L 270.143525 -91.91625 
L 269.633703 -91.91625 
L 269.123881 -91.91625 
L 268.61406 -91.91625 
L 268.104238 -91.91625 
L 267.594416 -91.91625 
L 267.084594 -91.91625 
L 266.574772 -91.91625 
L 266.06495 -91.91625 
L 265.555129 -91.91625 
L 265.045307 -91.91625 
L 264.535485 -91.91625 
L 264.025663 -91.91625 
L 263.515841 -91.91625 
L 263.006019 -91.91625 
L 262.496198 -91.91625 
L 261.986376 -91.91625 
L 261.476554 -91.91625 
L 260.966732 -91.91625 
L 260.45691 -91.91625 
L 259.947088 -91.91625 
L 259.437267 -91.91625 
L 258.927445 -91.91625 
L 258.417623 -91.91625 
L 257.907801 -91.91625 
L 257.397979 -91.91625 
L 256.888157 -91.91625 
L 256.378336 -91.91625 
L 255.868514 -91.91625 
L 255.358692 -91.91625 
L 254.84887 -91.91625 
L 254.339048 -91.91625 
L 253.829226 -91.91625 
L 253.319405 -91.91625 
L 252.809583 -91.91625 
L 252.299761 -91.91625 
L 251.789939 -91.91625 
L 251.280117 -91.91625 
L 250.770295 -91.91625 
L 250.260474 -91.91625 
L 249.750652 -91.91625 
L 249.24083 -91.91625 
L 248.731008 -91.91625 
L 248.221186 -91.91625 
L 247.711364 -91.91625 
L 247.201543 -91.91625 
L 246.691721 -91.91625 
L 246.181899 -91.91625 
L 245.672077 -91.91625 
L 245.162255 -91.91625 
L 244.652433 -91.91625 
L 244.142611 -91.91625 
L 243.63279 -91.91625 
L 243.122968 -91.91625 
L 242.613146 -91.91625 
L 242.103324 -91.91625 
L 241.593502 -91.91625 
L 241.08368 -91.91625 
L 240.573859 -91.91625 
L 240.064037 -91.91625 
L 239.554215 -91.91625 
L 239.044393 -91.91625 
L 238.534571 -91.91625 
L 238.024749 -91.91625 
L 237.514928 -91.91625 
L 237.005106 -91.91625 
L 236.495284 -91.91625 
L 235.985462 -91.91625 
L 235.47564 -91.91625 
L 234.965818 -91.91625 
L 234.455997 -91.91625 
L 233.946175 -91.91625 
L 233.436353 -91.91625 
L 232.926531 -91.91625 
L 232.416709 -91.91625 
L 231.906887 -91.91625 
L 231.397066 -91.91625 
L 230.887244 -91.91625 
L 230.377422 -91.91625 
L 229.8676 -91.91625 
L 229.357778 -91.91625 
L 228.847956 -91.91625 
L 228.338135 -91.91625 
L 227.828313 -91.91625 
L 227.318491 -91.91625 
L 226.808669 -91.91625 
L 226.298847 -91.91625 
L 225.789025 -91.91625 
L 225.279204 -91.91625 
L 224.769382 -91.91625 
L 224.25956 -91.91625 
L 223.749738 -91.91625 
L 223.239916 -91.91625 
L 222.730094 -91.91625 
L 222.220273 -91.91625 
L 221.710451 -91.91625 
L 221.200629 -91.91625 
L 220.690807 -91.91625 
L 220.180985 -91.91625 
L 219.671163 -91.91625 
L 219.161342 -91.91625 
L 218.65152 -91.91625 
L 218.141698 -91.91625 
L 217.631876 -91.91625 
L 217.122054 -91.91625 
L 216.612232 -91.91625 
L 216.10241 -91.91625 
L 215.592589 -91.91625 
L 215.082767 -91.91625 
L 214.572945 -91.91625 
L 214.063123 -91.91625 
L 213.553301 -91.91625 
L 213.043479 -91.91625 
L 212.533658 -91.91625 
L 212.023836 -91.91625 
L 211.514014 -91.91625 
L 211.004192 -91.91625 
L 210.49437 -91.91625 
L 209.984548 -91.91625 
L 209.474727 -91.91625 
L 208.964905 -91.91625 
L 208.455083 -91.91625 
L 207.945261 -91.91625 
L 207.435439 -91.91625 
L 206.925617 -91.91625 
L 206.415796 -91.91625 
L 205.905974 -91.91625 
L 205.396152 -91.91625 
L 204.88633 -91.91625 
L 204.376508 -91.91625 
L 203.866686 -91.91625 
L 203.356865 -91.91625 
L 202.847043 -91.91625 
L 202.337221 -91.91625 
L 201.827399 -91.91625 
L 201.317577 -91.91625 
L 200.807755 -91.91625 
L 200.297934 -91.91625 
L 199.788112 -91.91625 
L 199.27829 -91.91625 
L 198.768468 -91.91625 
L 198.258646 -91.91625 
L 197.748824 -91.91625 
L 197.239003 -91.91625 
L 196.729181 -91.91625 
L 196.219359 -91.91625 
L 195.709537 -91.91625 
L 195.199715 -91.91625 
L 194.689893 -91.91625 
L 194.180072 -91.91625 
L 193.67025 -91.91625 
L 193.160428 -91.91625 
L 192.650606 -91.91625 
L 192.140784 -91.91625 
L 191.630962 -91.91625 
L 191.121141 -91.91625 
L 190.611319 -91.91625 
L 190.101497 -91.91625 
L 189.591675 -91.91625 
L 189.081853 -91.91625 
L 188.572031 -91.91625 
L 188.062209 -91.91625 
L 187.552388 -91.91625 
L 187.042566 -91.91625 
L 186.532744 -91.91625 
L 186.022922 -91.91625 
L 185.5131 -91.91625 
L 185.003278 -91.91625 
L 184.493457 -91.91625 
L 183.983635 -91.91625 
L 183.473813 -91.91625 
L 182.963991 -91.91625 
L 182.454169 -91.91625 
L 181.944347 -91.91625 
L 181.434526 -91.91625 
L 180.924704 -91.91625 
L 180.414882 -91.91625 
L 179.90506 -91.91625 
L 179.395238 -91.91625 
L 178.885416 -91.91625 
L 178.375595 -91.91625 
L 177.865773 -91.91625 
L 177.355951 -91.91625 
L 176.846129 -91.91625 
L 176.336307 -91.91625 
L 175.826485 -91.91625 
L 175.316664 -91.91625 
L 174.806842 -91.91625 
L 174.29702 -91.91625 
L 173.787198 -91.91625 
L 173.277376 -91.91625 
L 172.767554 -91.91625 
L 172.257733 -91.91625 
L 171.747911 -91.91625 
L 171.238089 -91.91625 
L 170.728267 -91.91625 
L 170.218445 -91.91625 
L 169.708623 -91.91625 
L 169.198802 -91.91625 
L 168.68898 -91.91625 
L 168.179158 -91.91625 
L 167.669336 -91.91625 
L 167.159514 -91.91625 
L 166.649692 -91.91625 
L 166.139871 -91.91625 
L 165.630049 -91.91625 
L 165.120227 -91.91625 
L 164.610405 -91.91625 
L 164.100583 -91.91625 
L 163.590761 -91.91625 
L 163.080939 -91.91625 
L 162.571118 -91.91625 
L 162.061296 -91.91625 
L 161.551474 -91.91625 
L 161.041652 -91.91625 
L 160.53183 -91.91625 
L 160.022008 -91.91625 
L 159.512187 -91.91625 
L 159.002365 -91.91625 
L 158.492543 -91.91625 
L 157.982721 -91.91625 
L 157.472899 -91.91625 
L 156.963077 -91.91625 
L 156.453256 -91.91625 
L 155.943434 -91.91625 
L 155.433612 -91.91625 
L 154.92379 -91.91625 
L 154.413968 -91.91625 
L 153.904146 -91.91625 
L 153.394325 -91.91625 
L 152.884503 -91.91625 
L 152.374681 -91.91625 
L 151.864859 -91.91625 
L 151.355037 -91.91625 
L 150.845215 -91.91625 
L 150.335394 -91.91625 
L 149.825572 -91.91625 
L 149.31575 -91.91625 
L 148.805928 -91.91625 
L 148.296106 -91.91625 
L 147.786284 -91.91625 
L 147.276463 -91.91625 
L 146.766641 -91.91625 
L 146.256819 -91.91625 
L 145.746997 -91.91625 
L 145.237175 -91.91625 
L 144.727353 -91.91625 
L 144.217532 -91.91625 
L 143.70771 -91.91625 
L 143.197888 -91.91625 
L 142.688066 -91.91625 
L 142.178244 -91.91625 
L 141.668422 -91.91625 
L 141.158601 -91.91625 
L 140.648779 -91.91625 
L 140.138957 -91.91625 
L 139.629135 -91.91625 
L 139.119313 -91.91625 
L 138.609491 -91.91625 
L 138.09967 -91.91625 
L 137.589848 -91.91625 
L 137.080026 -91.91625 
L 136.570204 -91.91625 
L 136.060382 -91.91625 
L 135.55056 -91.91625 
L 135.040738 -91.91625 
L 134.530917 -91.91625 
L 134.021095 -91.91625 
L 133.511273 -91.91625 
L 133.001451 -91.91625 
L 132.491629 -91.91625 
L 131.981807 -91.91625 
L 131.471986 -91.91625 
L 130.962164 -91.91625 
L 130.452342 -91.91625 
L 129.94252 -91.91625 
L 129.432698 -91.91625 
L 128.922876 -91.91625 
L 128.413055 -91.91625 
L 127.903233 -91.91625 
L 127.393411 -91.91625 
L 126.883589 -91.91625 
L 126.373767 -91.91625 
L 125.863945 -91.91625 
L 125.354124 -91.91625 
L 124.844302 -91.91625 
L 124.33448 -91.91625 
L 123.824658 -91.91625 
L 123.314836 -91.91625 
L 122.805014 -91.91625 
L 122.295193 -91.91625 
L 121.785371 -91.91625 
L 121.275549 -91.91625 
L 120.765727 -91.91625 
L 120.255905 -91.91625 
L 119.746083 -91.91625 
L 119.236262 -91.91625 
L 118.72644 -91.91625 
L 118.216618 -91.91625 
L 117.706796 -91.91625 
L 117.196974 -91.91625 
L 116.687152 -91.91625 
L 116.177331 -91.91625 
L 115.667509 -91.91625 
L 115.157687 -91.91625 
L 114.647865 -91.91625 
L 114.138043 -91.91625 
L 113.628221 -91.91625 
L 113.1184 -91.91625 
L 112.608578 -91.91625 
L 112.098756 -91.91625 
L 111.588934 -91.91625 
L 111.079112 -91.91625 
L 110.56929 -91.91625 
L 110.059469 -91.91625 
L 109.549647 -91.91625 
L 109.039825 -91.91625 
L 108.530003 -91.91625 
L 108.020181 -91.91625 
L 107.510359 -91.91625 
L 107.000537 -91.91625 
L 106.490716 -91.91625 
L 105.980894 -91.91625 
L 105.471072 -91.91625 
L 104.96125 -91.91625 
L 104.451428 -91.91625 
L 103.941606 -91.91625 
L 103.431785 -91.91625 
L 102.921963 -91.91625 
L 102.412141 -91.91625 
L 101.902319 -91.91625 
L 101.392497 -91.91625 
L 100.882675 -91.91625 
L 100.372854 -91.91625 
L 99.863032 -91.91625 
L 99.35321 -91.91625 
L 98.843388 -91.91625 
L 98.333566 -91.91625 
L 97.823744 -91.91625 
L 97.313923 -91.91625 
L 96.804101 -91.91625 
L 96.294279 -91.91625 
L 95.784457 -91.91625 
L 95.274635 -91.91625 
L 94.764813 -91.91625 
L 94.254992 -91.91625 
L 93.74517 -91.91625 
L 93.235348 -91.91625 
L 92.725526 -91.91625 
L 92.215704 -91.91625 
L 91.705882 -91.91625 
L 91.196061 -91.91625 
L 90.686239 -91.91625 
L 90.176417 -91.91625 
L 89.666595 -91.91625 
L 89.156773 -91.91625 
L 88.646951 -91.91625 
L 88.13713 -91.91625 
L 87.627308 -91.91625 
L 87.117486 -91.91625 
L 86.607664 -91.91625 
L 86.097842 -91.91625 
L 85.58802 -91.91625 
L 85.078199 -91.91625 
L 84.568377 -91.91625 
L 84.058555 -91.91625 
L 83.548733 -91.91625 
L 83.038911 -91.91625 
L 82.529089 -91.91625 
L 82.019268 -91.91625 
L 81.509446 -91.91625 
L 80.999624 -91.91625 
L 80.489802 -91.91625 
L 79.97998 -91.91625 
L 79.470158 -91.91625 
L 78.960336 -91.91625 
L 78.450515 -91.91625 
L 77.940693 -91.91625 
L 77.430871 -91.91625 
L 76.921049 -91.91625 
L 76.411227 -91.91625 
L 75.901405 -91.91625 
L 75.391584 -91.91625 
L 74.881762 -91.91625 
L 74.37194 -91.91625 
L 73.862118 -91.91625 
L 73.352296 -91.91625 
L 72.842474 -91.91625 
L 72.332653 -91.91625 
L 71.822831 -91.91625 
L 71.313009 -91.91625 
L 70.803187 -91.91625 
L 70.293365 -91.91625 
L 69.783543 -91.91625 
L 69.273722 -91.91625 
z
" style="stroke: #1e90ff; stroke-opacity: 0.2"/>
    </defs>
    <g clip-path="url(#p094b3bcd74)">
     <use xlink:href="#ma8fdd4428c" x="0" y="153.47625" style="fill: #1e90ff; fill-opacity: 0.2; stroke: #1e90ff; stroke-opacity: 0.2"/>
    </g>
   </g>
   <g id="matplotlib.axis_1">
    <g id="xtick_1">
     <g id="line2d_1">
      <defs>
       <path id="mf73b5bc1df" d="M 0 0 
L 0 3.5 
" style="stroke: #000000; stroke-width: 0.8"/>
      </defs>
      <g>
       <use xlink:href="#mf73b5bc1df" x="69.273722" y="115.92" style="stroke: #000000; stroke-width: 0.8"/>
      </g>
     </g>
     <g id="text_1">
      <!-- 0 -->
      <g transform="translate(66.092472 130.518438)scale(0.1 -0.1)">
       <defs>
        <path id="DejaVuSans-30" d="M 2034 4250 
Q 1547 4250 1301 3770 
Q 1056 3291 1056 2328 
Q 1056 1369 1301 889 
Q 1547 409 2034 409 
Q 2525 409 2770 889 
Q 3016 1369 3016 2328 
Q 3016 3291 2770 3770 
Q 2525 4250 2034 4250 
z
M 2034 4750 
Q 2819 4750 3233 4129 
Q 3647 3509 3647 2328 
Q 3647 1150 3233 529 
Q 2819 -91 2034 -91 
Q 1250 -91 836 529 
Q 422 1150 422 2328 
Q 422 3509 836 4129 
Q 1250 4750 2034 4750 
z
" transform="scale(0.015625)"/>
       </defs>
       <use xlink:href="#DejaVuSans-30"/>
      </g>
     </g>
    </g>
    <g id="xtick_2">
     <g id="line2d_2">
      <g>
       <use xlink:href="#mf73b5bc1df" x="120.255905" y="115.92" style="stroke: #000000; stroke-width: 0.8"/>
      </g>
     </g>
     <g id="text_2">
      <!-- 100 -->
      <g transform="translate(110.712155 130.518438)scale(0.1 -0.1)">
       <defs>
        <path id="DejaVuSans-31" d="M 794 531 
L 1825 531 
L 1825 4091 
L 703 3866 
L 703 4441 
L 1819 4666 
L 2450 4666 
L 2450 531 
L 3481 531 
L 3481 0 
L 794 0 
L 794 531 
z
" transform="scale(0.015625)"/>
       </defs>
       <use xlink:href="#DejaVuSans-31"/>
       <use xlink:href="#DejaVuSans-30" x="63.623047"/>
       <use xlink:href="#DejaVuSans-30" x="127.246094"/>
      </g>
     </g>
    </g>
    <g id="xtick_3">
     <g id="line2d_3">
      <g>
       <use xlink:href="#mf73b5bc1df" x="171.238089" y="115.92" style="stroke: #000000; stroke-width: 0.8"/>
      </g>
     </g>
     <g id="text_3">
      <!-- 200 -->
      <g transform="translate(161.694339 130.518438)scale(0.1 -0.1)">
       <defs>
        <path id="DejaVuSans-32" d="M 1228 531 
L 3431 531 
L 3431 0 
L 469 0 
L 469 531 
Q 828 903 1448 1529 
Q 2069 2156 2228 2338 
Q 2531 2678 2651 2914 
Q 2772 3150 2772 3378 
Q 2772 3750 2511 3984 
Q 2250 4219 1831 4219 
Q 1534 4219 1204 4116 
Q 875 4013 500 3803 
L 500 4441 
Q 881 4594 1212 4672 
Q 1544 4750 1819 4750 
Q 2544 4750 2975 4387 
Q 3406 4025 3406 3419 
Q 3406 3131 3298 2873 
Q 3191 2616 2906 2266 
Q 2828 2175 2409 1742 
Q 1991 1309 1228 531 
z
" transform="scale(0.015625)"/>
       </defs>
       <use xlink:href="#DejaVuSans-32"/>
       <use xlink:href="#DejaVuSans-30" x="63.623047"/>
       <use xlink:href="#DejaVuSans-30" x="127.246094"/>
      </g>
     </g>
    </g>
    <g id="xtick_4">
     <g id="line2d_4">
      <g>
       <use xlink:href="#mf73b5bc1df" x="222.220273" y="115.92" style="stroke: #000000; stroke-width: 0.8"/>
      </g>
     </g>
     <g id="text_4">
      <!-- 300 -->
      <g transform="translate(212.676523 130.518438)scale(0.1 -0.1)">
       <defs>
        <path id="DejaVuSans-33" d="M 2597 2516 
Q 3050 2419 3304 2112 
Q 3559 1806 3559 1356 
Q 3559 666 3084 287 
Q 2609 -91 1734 -91 
Q 1441 -91 1130 -33 
Q 819 25 488 141 
L 488 750 
Q 750 597 1062 519 
Q 1375 441 1716 441 
Q 2309 441 2620 675 
Q 2931 909 2931 1356 
Q 2931 1769 2642 2001 
Q 2353 2234 1838 2234 
L 1294 2234 
L 1294 2753 
L 1863 2753 
Q 2328 2753 2575 2939 
Q 2822 3125 2822 3475 
Q 2822 3834 2567 4026 
Q 2313 4219 1838 4219 
Q 1578 4219 1281 4162 
Q 984 4106 628 3988 
L 628 4550 
Q 988 4650 1302 4700 
Q 1616 4750 1894 4750 
Q 2613 4750 3031 4423 
Q 3450 4097 3450 3541 
Q 3450 3153 3228 2886 
Q 3006 2619 2597 2516 
z
" transform="scale(0.015625)"/>
       </defs>
       <use xlink:href="#DejaVuSans-33"/>
       <use xlink:href="#DejaVuSans-30" x="63.623047"/>
       <use xlink:href="#DejaVuSans-30" x="127.246094"/>
      </g>
     </g>
    </g>
    <g id="xtick_5">
     <g id="line2d_5">
      <g>
       <use xlink:href="#mf73b5bc1df" x="273.202456" y="115.92" style="stroke: #000000; stroke-width: 0.8"/>
      </g>
     </g>
     <g id="text_5">
      <!-- 400 -->
      <g transform="translate(263.658706 130.518438)scale(0.1 -0.1)">
       <defs>
        <path id="DejaVuSans-34" d="M 2419 4116 
L 825 1625 
L 2419 1625 
L 2419 4116 
z
M 2253 4666 
L 3047 4666 
L 3047 1625 
L 3713 1625 
L 3713 1100 
L 3047 1100 
L 3047 0 
L 2419 0 
L 2419 1100 
L 313 1100 
L 313 1709 
L 2253 4666 
z
" transform="scale(0.015625)"/>
       </defs>
       <use xlink:href="#DejaVuSans-34"/>
       <use xlink:href="#DejaVuSans-30" x="63.623047"/>
       <use xlink:href="#DejaVuSans-30" x="127.246094"/>
      </g>
     </g>
    </g>
    <g id="xtick_6">
     <g id="line2d_6">
      <g>
       <use xlink:href="#mf73b5bc1df" x="324.18464" y="115.92" style="stroke: #000000; stroke-width: 0.8"/>
      </g>
     </g>
     <g id="text_6">
      <!-- 500 -->
      <g transform="translate(314.64089 130.518438)scale(0.1 -0.1)">
       <defs>
        <path id="DejaVuSans-35" d="M 691 4666 
L 3169 4666 
L 3169 4134 
L 1269 4134 
L 1269 2991 
Q 1406 3038 1543 3061 
Q 1681 3084 1819 3084 
Q 2600 3084 3056 2656 
Q 3513 2228 3513 1497 
Q 3513 744 3044 326 
Q 2575 -91 1722 -91 
Q 1428 -91 1123 -41 
Q 819 9 494 109 
L 494 744 
Q 775 591 1075 516 
Q 1375 441 1709 441 
Q 2250 441 2565 725 
Q 2881 1009 2881 1497 
Q 2881 1984 2565 2268 
Q 2250 2553 1709 2553 
Q 1456 2553 1204 2497 
Q 953 2441 691 2322 
L 691 4666 
z
" transform="scale(0.015625)"/>
       </defs>
       <use xlink:href="#DejaVuSans-35"/>
       <use xlink:href="#DejaVuSans-30" x="63.623047"/>
       <use xlink:href="#DejaVuSans-30" x="127.246094"/>
      </g>
     </g>
    </g>
    <g id="xtick_7">
     <g id="line2d_7">
      <g>
       <use xlink:href="#mf73b5bc1df" x="375.166823" y="115.92" style="stroke: #000000; stroke-width: 0.8"/>
      </g>
     </g>
     <g id="text_7">
      <!-- 600 -->
      <g transform="translate(365.623073 130.518438)scale(0.1 -0.1)">
       <defs>
        <path id="DejaVuSans-36" d="M 2113 2584 
Q 1688 2584 1439 2293 
Q 1191 2003 1191 1497 
Q 1191 994 1439 701 
Q 1688 409 2113 409 
Q 2538 409 2786 701 
Q 3034 994 3034 1497 
Q 3034 2003 2786 2293 
Q 2538 2584 2113 2584 
z
M 3366 4563 
L 3366 3988 
Q 3128 4100 2886 4159 
Q 2644 4219 2406 4219 
Q 1781 4219 1451 3797 
Q 1122 3375 1075 2522 
Q 1259 2794 1537 2939 
Q 1816 3084 2150 3084 
Q 2853 3084 3261 2657 
Q 3669 2231 3669 1497 
Q 3669 778 3244 343 
Q 2819 -91 2113 -91 
Q 1303 -91 875 529 
Q 447 1150 447 2328 
Q 447 3434 972 4092 
Q 1497 4750 2381 4750 
Q 2619 4750 2861 4703 
Q 3103 4656 3366 4563 
z
" transform="scale(0.015625)"/>
       </defs>
       <use xlink:href="#DejaVuSans-36"/>
       <use xlink:href="#DejaVuSans-30" x="63.623047"/>
       <use xlink:href="#DejaVuSans-30" x="127.246094"/>
      </g>
     </g>
    </g>
    <g id="xtick_8">
     <g id="line2d_8">
      <g>
       <use xlink:href="#mf73b5bc1df" x="426.149007" y="115.92" style="stroke: #000000; stroke-width: 0.8"/>
      </g>
     </g>
     <g id="text_8">
      <!-- 700 -->
      <g transform="translate(416.605257 130.518438)scale(0.1 -0.1)">
       <defs>
        <path id="DejaVuSans-37" d="M 525 4666 
L 3525 4666 
L 3525 4397 
L 1831 0 
L 1172 0 
L 2766 4134 
L 525 4134 
L 525 4666 
z
" transform="scale(0.015625)"/>
       </defs>
       <use xlink:href="#DejaVuSans-37"/>
       <use xlink:href="#DejaVuSans-30" x="63.623047"/>
       <use xlink:href="#DejaVuSans-30" x="127.246094"/>
      </g>
     </g>
    </g>
    <g id="xtick_9">
     <g id="line2d_9">
      <g>
       <use xlink:href="#mf73b5bc1df" x="477.131191" y="115.92" style="stroke: #000000; stroke-width: 0.8"/>
      </g>
     </g>
     <g id="text_9">
      <!-- 800 -->
      <g transform="translate(467.587441 130.518438)scale(0.1 -0.1)">
       <defs>
        <path id="DejaVuSans-38" d="M 2034 2216 
Q 1584 2216 1326 1975 
Q 1069 1734 1069 1313 
Q 1069 891 1326 650 
Q 1584 409 2034 409 
Q 2484 409 2743 651 
Q 3003 894 3003 1313 
Q 3003 1734 2745 1975 
Q 2488 2216 2034 2216 
z
M 1403 2484 
Q 997 2584 770 2862 
Q 544 3141 544 3541 
Q 544 4100 942 4425 
Q 1341 4750 2034 4750 
Q 2731 4750 3128 4425 
Q 3525 4100 3525 3541 
Q 3525 3141 3298 2862 
Q 3072 2584 2669 2484 
Q 3125 2378 3379 2068 
Q 3634 1759 3634 1313 
Q 3634 634 3220 271 
Q 2806 -91 2034 -91 
Q 1263 -91 848 271 
Q 434 634 434 1313 
Q 434 1759 690 2068 
Q 947 2378 1403 2484 
z
M 1172 3481 
Q 1172 3119 1398 2916 
Q 1625 2713 2034 2713 
Q 2441 2713 2670 2916 
Q 2900 3119 2900 3481 
Q 2900 3844 2670 4047 
Q 2441 4250 2034 4250 
Q 1625 4250 1398 4047 
Q 1172 3844 1172 3481 
z
" transform="scale(0.015625)"/>
       </defs>
       <use xlink:href="#DejaVuSans-38"/>
       <use xlink:href="#DejaVuSans-30" x="63.623047"/>
       <use xlink:href="#DejaVuSans-30" x="127.246094"/>
      </g>
     </g>
    </g>
    <g id="text_10">
     <!-- index -->
     <g transform="translate(258.502344 144.196562)scale(0.1 -0.1)">
      <defs>
       <path id="DejaVuSans-69" d="M 603 3500 
L 1178 3500 
L 1178 0 
L 603 0 
L 603 3500 
z
M 603 4863 
L 1178 4863 
L 1178 4134 
L 603 4134 
L 603 4863 
z
" transform="scale(0.015625)"/>
       <path id="DejaVuSans-6e" d="M 3513 2113 
L 3513 0 
L 2938 0 
L 2938 2094 
Q 2938 2591 2744 2837 
Q 2550 3084 2163 3084 
Q 1697 3084 1428 2787 
Q 1159 2491 1159 1978 
L 1159 0 
L 581 0 
L 581 3500 
L 1159 3500 
L 1159 2956 
Q 1366 3272 1645 3428 
Q 1925 3584 2291 3584 
Q 2894 3584 3203 3211 
Q 3513 2838 3513 2113 
z
" transform="scale(0.015625)"/>
       <path id="DejaVuSans-64" d="M 2906 2969 
L 2906 4863 
L 3481 4863 
L 3481 0 
L 2906 0 
L 2906 525 
Q 2725 213 2448 61 
Q 2172 -91 1784 -91 
Q 1150 -91 751 415 
Q 353 922 353 1747 
Q 353 2572 751 3078 
Q 1150 3584 1784 3584 
Q 2172 3584 2448 3432 
Q 2725 3281 2906 2969 
z
M 947 1747 
Q 947 1113 1208 752 
Q 1469 391 1925 391 
Q 2381 391 2643 752 
Q 2906 1113 2906 1747 
Q 2906 2381 2643 2742 
Q 2381 3103 1925 3103 
Q 1469 3103 1208 2742 
Q 947 2381 947 1747 
z
" transform="scale(0.015625)"/>
       <path id="DejaVuSans-65" d="M 3597 1894 
L 3597 1613 
L 953 1613 
Q 991 1019 1311 708 
Q 1631 397 2203 397 
Q 2534 397 2845 478 
Q 3156 559 3463 722 
L 3463 178 
Q 3153 47 2828 -22 
Q 2503 -91 2169 -91 
Q 1331 -91 842 396 
Q 353 884 353 1716 
Q 353 2575 817 3079 
Q 1281 3584 2069 3584 
Q 2775 3584 3186 3129 
Q 3597 2675 3597 1894 
z
M 3022 2063 
Q 3016 2534 2758 2815 
Q 2500 3097 2075 3097 
Q 1594 3097 1305 2825 
Q 1016 2553 972 2059 
L 3022 2063 
z
" transform="scale(0.015625)"/>
       <path id="DejaVuSans-78" d="M 3513 3500 
L 2247 1797 
L 3578 0 
L 2900 0 
L 1881 1375 
L 863 0 
L 184 0 
L 1544 1831 
L 300 3500 
L 978 3500 
L 1906 2253 
L 2834 3500 
L 3513 3500 
z
" transform="scale(0.015625)"/>
      </defs>
      <use xlink:href="#DejaVuSans-69"/>
      <use xlink:href="#DejaVuSans-6e" x="27.783203"/>
      <use xlink:href="#DejaVuSans-64" x="91.162109"/>
      <use xlink:href="#DejaVuSans-65" x="154.638672"/>
      <use xlink:href="#DejaVuSans-78" x="214.412109"/>
     </g>
    </g>
   </g>
   <g id="matplotlib.axis_2">
    <g id="ytick_1">
     <g id="line2d_10">
      <defs>
       <path id="mc3491f94bb" d="M 0 0 
L -3.5 0 
" style="stroke: #000000; stroke-width: 0.8"/>
      </defs>
      <g>
       <use xlink:href="#mc3491f94bb" x="48.982813" y="94.505455" style="stroke: #000000; stroke-width: 0.8"/>
      </g>
     </g>
     <g id="text_11">
      <!-- 20 -->
      <g transform="translate(20.878125 98.304673)scale(0.1 -0.1)">
       <defs>
        <path id="DejaVuSans-2212" d="M 678 2272 
L 4684 2272 
L 4684 1741 
L 678 1741 
L 678 2272 
z
" transform="scale(0.015625)"/>
       </defs>
       <use xlink:href="#DejaVuSans-2212"/>
       <use xlink:href="#DejaVuSans-32" x="83.789062"/>
       <use xlink:href="#DejaVuSans-30" x="147.412109"/>
      </g>
     </g>
    </g>
    <g id="ytick_2">
     <g id="line2d_11">
      <g>
       <use xlink:href="#mc3491f94bb" x="48.982813" y="61.56" style="stroke: #000000; stroke-width: 0.8"/>
      </g>
     </g>
     <g id="text_12">
      <!-- 0 -->
      <g transform="translate(35.620313 65.359219)scale(0.1 -0.1)">
       <use xlink:href="#DejaVuSans-30"/>
      </g>
     </g>
    </g>
    <g id="ytick_3">
     <g id="line2d_12">
      <g>
       <use xlink:href="#mc3491f94bb" x="48.982813" y="28.614545" style="stroke: #000000; stroke-width: 0.8"/>
      </g>
     </g>
     <g id="text_13">
      <!-- 20 -->
      <g transform="translate(29.257813 32.413764)scale(0.1 -0.1)">
       <use xlink:href="#DejaVuSans-32"/>
       <use xlink:href="#DejaVuSans-30" x="63.623047"/>
      </g>
     </g>
    </g>
    <g id="text_14">
     <!-- SSE signal -->
     <g transform="translate(14.798438 87.446719)rotate(-90)scale(0.1 -0.1)">
      <defs>
       <path id="DejaVuSans-53" d="M 3425 4513 
L 3425 3897 
Q 3066 4069 2747 4153 
Q 2428 4238 2131 4238 
Q 1616 4238 1336 4038 
Q 1056 3838 1056 3469 
Q 1056 3159 1242 3001 
Q 1428 2844 1947 2747 
L 2328 2669 
Q 3034 2534 3370 2195 
Q 3706 1856 3706 1288 
Q 3706 609 3251 259 
Q 2797 -91 1919 -91 
Q 1588 -91 1214 -16 
Q 841 59 441 206 
L 441 856 
Q 825 641 1194 531 
Q 1563 422 1919 422 
Q 2459 422 2753 634 
Q 3047 847 3047 1241 
Q 3047 1584 2836 1778 
Q 2625 1972 2144 2069 
L 1759 2144 
Q 1053 2284 737 2584 
Q 422 2884 422 3419 
Q 422 4038 858 4394 
Q 1294 4750 2059 4750 
Q 2388 4750 2728 4690 
Q 3069 4631 3425 4513 
z
" transform="scale(0.015625)"/>
       <path id="DejaVuSans-45" d="M 628 4666 
L 3578 4666 
L 3578 4134 
L 1259 4134 
L 1259 2753 
L 3481 2753 
L 3481 2222 
L 1259 2222 
L 1259 531 
L 3634 531 
L 3634 0 
L 628 0 
L 628 4666 
z
" transform="scale(0.015625)"/>
       <path id="DejaVuSans-20" transform="scale(0.015625)"/>
       <path id="DejaVuSans-73" d="M 2834 3397 
L 2834 2853 
Q 2591 2978 2328 3040 
Q 2066 3103 1784 3103 
Q 1356 3103 1142 2972 
Q 928 2841 928 2578 
Q 928 2378 1081 2264 
Q 1234 2150 1697 2047 
L 1894 2003 
Q 2506 1872 2764 1633 
Q 3022 1394 3022 966 
Q 3022 478 2636 193 
Q 2250 -91 1575 -91 
Q 1294 -91 989 -36 
Q 684 19 347 128 
L 347 722 
Q 666 556 975 473 
Q 1284 391 1588 391 
Q 1994 391 2212 530 
Q 2431 669 2431 922 
Q 2431 1156 2273 1281 
Q 2116 1406 1581 1522 
L 1381 1569 
Q 847 1681 609 1914 
Q 372 2147 372 2553 
Q 372 3047 722 3315 
Q 1072 3584 1716 3584 
Q 2034 3584 2315 3537 
Q 2597 3491 2834 3397 
z
" transform="scale(0.015625)"/>
       <path id="DejaVuSans-67" d="M 2906 1791 
Q 2906 2416 2648 2759 
Q 2391 3103 1925 3103 
Q 1463 3103 1205 2759 
Q 947 2416 947 1791 
Q 947 1169 1205 825 
Q 1463 481 1925 481 
Q 2391 481 2648 825 
Q 2906 1169 2906 1791 
z
M 3481 434 
Q 3481 -459 3084 -895 
Q 2688 -1331 1869 -1331 
Q 1566 -1331 1297 -1286 
Q 1028 -1241 775 -1147 
L 775 -588 
Q 1028 -725 1275 -790 
Q 1522 -856 1778 -856 
Q 2344 -856 2625 -561 
Q 2906 -266 2906 331 
L 2906 616 
Q 2728 306 2450 153 
Q 2172 0 1784 0 
Q 1141 0 747 490 
Q 353 981 353 1791 
Q 353 2603 747 3093 
Q 1141 3584 1784 3584 
Q 2172 3584 2450 3431 
Q 2728 3278 2906 2969 
L 2906 3500 
L 3481 3500 
L 3481 434 
z
" transform="scale(0.015625)"/>
       <path id="DejaVuSans-61" d="M 2194 1759 
Q 1497 1759 1228 1600 
Q 959 1441 959 1056 
Q 959 750 1161 570 
Q 1363 391 1709 391 
Q 2188 391 2477 730 
Q 2766 1069 2766 1631 
L 2766 1759 
L 2194 1759 
z
M 3341 1997 
L 3341 0 
L 2766 0 
L 2766 531 
Q 2569 213 2275 61 
Q 1981 -91 1556 -91 
Q 1019 -91 701 211 
Q 384 513 384 1019 
Q 384 1609 779 1909 
Q 1175 2209 1959 2209 
L 2766 2209 
L 2766 2266 
Q 2766 2663 2505 2880 
Q 2244 3097 1772 3097 
Q 1472 3097 1187 3025 
Q 903 2953 641 2809 
L 641 3341 
Q 956 3463 1253 3523 
Q 1550 3584 1831 3584 
Q 2591 3584 2966 3190 
Q 3341 2797 3341 1997 
z
" transform="scale(0.015625)"/>
       <path id="DejaVuSans-6c" d="M 603 4863 
L 1178 4863 
L 1178 0 
L 603 0 
L 603 4863 
z
" transform="scale(0.015625)"/>
      </defs>
      <use xlink:href="#DejaVuSans-53"/>
      <use xlink:href="#DejaVuSans-53" x="63.476562"/>
      <use xlink:href="#DejaVuSans-45" x="126.953125"/>
      <use xlink:href="#DejaVuSans-20" x="190.136719"/>
      <use xlink:href="#DejaVuSans-73" x="221.923828"/>
      <use xlink:href="#DejaVuSans-69" x="274.023438"/>
      <use xlink:href="#DejaVuSans-67" x="301.806641"/>
      <use xlink:href="#DejaVuSans-6e" x="365.283203"/>
      <use xlink:href="#DejaVuSans-61" x="428.662109"/>
      <use xlink:href="#DejaVuSans-6c" x="489.941406"/>
     </g>
    </g>
   </g>
   <g id="line2d_13">
    <path d="M 69.273722 61.56 
L 345.087335 61.56 
L 345.597157 78.032727 
L 347.126622 78.032727 
L 347.636444 61.56 
L 355.793594 61.56 
L 356.303416 78.032727 
L 357.832881 78.032727 
L 358.342703 61.56 
L 359.872168 61.56 
L 360.38199 78.032727 
L 364.460565 78.032727 
L 364.970387 61.56 
L 365.99003 61.56 
L 366.499852 78.032727 
L 377.206111 78.032727 
L 377.715933 61.56 
L 379.75522 61.56 
L 380.265042 78.032727 
L 390.461479 78.032727 
L 390.9713 61.56 
L 391.481122 78.032727 
L 391.990944 78.032727 
L 392.500766 61.56 
L 395.049875 61.56 
L 395.559697 45.087273 
L 397.089162 45.087273 
L 397.598984 61.56 
L 399.12845 61.56 
L 399.638272 45.087273 
L 403.716846 45.087273 
L 404.226668 61.56 
L 407.795421 61.56 
L 408.305243 45.087273 
L 410.34453 45.087273 
L 410.854352 61.56 
L 414.423105 61.56 
L 414.932927 45.087273 
L 416.972214 45.087273 
L 417.482036 61.56 
L 417.991858 61.56 
L 418.50168 78.032727 
L 419.011501 78.032727 
L 419.521323 61.56 
L 421.560611 61.56 
L 422.070432 45.087273 
L 426.149007 45.087273 
L 426.658829 61.56 
L 433.286513 61.56 
L 433.796335 45.087273 
L 439.404375 45.087273 
L 439.914197 61.56 
L 445.522237 61.56 
L 446.032059 45.087273 
L 448.071346 45.087273 
L 448.581168 61.56 
L 452.659743 61.56 
L 453.169564 45.087273 
L 456.228495 45.087273 
L 456.738317 61.56 
L 458.777605 61.56 
L 459.287426 45.087273 
L 459.797248 45.087273 
L 460.30707 61.56 
L 461.836536 61.56 
L 462.346357 45.087273 
L 464.385645 45.087273 
L 464.895467 61.56 
L 466.424932 61.56 
L 466.934754 45.087273 
L 468.974041 45.087273 
L 469.483863 61.56 
L 471.523151 61.56 
L 472.032972 45.087273 
L 474.582082 45.087273 
L 474.582082 45.087273 
" clip-path="url(#p094b3bcd74)" style="fill: none; stroke: #808080; stroke-width: 1.5; stroke-linecap: square"/>
   </g>
   <g id="line2d_14">
    <path d="M 69.273722 61.56 
L 337.949829 61.56 
L 339.989117 68.149091 
L 348.656088 68.149091 
L 350.695375 74.738182 
L 352.734663 74.738182 
L 353.244484 76.385455 
L 355.283772 76.385455 
L 357.323059 82.974545 
L 358.852525 82.974545 
L 363.950743 99.447273 
L 365.99003 99.447273 
L 368.029318 106.036364 
L 370.068605 106.036364 
L 372.617714 97.8 
L 374.14718 102.741818 
L 383.323973 102.741818 
L 383.833795 101.094545 
L 384.853438 101.094545 
L 385.36326 99.447273 
L 387.912369 99.447273 
L 389.951657 86.269091 
L 391.990944 79.68 
L 396.579341 50.029091 
L 398.618628 43.44 
L 399.12845 43.44 
L 400.148093 40.145455 
L 400.657915 40.145455 
L 403.207024 31.909091 
L 405.246312 38.498182 
L 409.834708 38.498182 
L 410.854352 41.792727 
L 411.873996 48.381818 
L 414.423105 48.381818 
L 415.95257 43.44 
L 418.50168 43.44 
L 419.011501 41.792727 
L 422.580254 41.792727 
L 425.129363 50.029091 
L 426.149007 50.029091 
L 427.168651 43.44 
L 429.71776 35.203636 
L 432.266869 35.203636 
L 434.306156 41.792727 
L 438.384731 41.792727 
L 440.93384 33.556364 
L 441.443662 33.556364 
L 445.522237 46.734545 
L 447.561524 46.734545 
L 449.09099 41.792727 
L 451.640099 41.792727 
L 452.659743 38.498182 
L 453.679386 38.498182 
L 454.69903 41.792727 
L 456.228495 41.792727 
L 457.248139 38.498182 
L 459.287426 38.498182 
L 460.816892 33.556364 
L 461.836536 33.556364 
L 464.385645 41.792727 
L 466.934754 33.556364 
L 467.444576 33.556364 
L 467.954398 35.203636 
L 469.993685 35.203636 
L 472.542794 43.44 
L 474.582082 43.44 
L 474.582082 43.44 
" clip-path="url(#p094b3bcd74)" style="fill: none; stroke: #1e90ff; stroke-width: 1.5; stroke-linecap: square"/>
   </g>
   <g id="LineCollection_1">
    <path d="M 69.273722 61.56 
L 475.091903 61.56 
" clip-path="url(#p094b3bcd74)" style="fill: none; stroke: #1f77b4; stroke-width: 1.5"/>
   </g>
   <g id="LineCollection_2">
    <path d="M 338.459651 94.505455 
L 338.459651 28.614545 
" clip-path="url(#p094b3bcd74)" style="fill: none; stroke-dasharray: 3.7,1.6; stroke-dashoffset: 0; stroke: #808080"/>
   </g>
   <g id="LineCollection_3">
    <path d="M 395.049875 94.505455 
L 395.049875 28.614545 
" clip-path="url(#p094b3bcd74)" style="fill: none; stroke-dasharray: 3.7,1.6; stroke-dashoffset: 0; stroke: #808080"/>
   </g>
   <g id="LineCollection_4">
    <path d="M 393.52041 110.978182 
L 393.52041 12.141818 
" clip-path="url(#p094b3bcd74)" style="fill: none; stroke: #000000; stroke-width: 1.5"/>
   </g>
   <g id="patch_3">
    <path d="M 48.982813 115.92 
L 48.982813 7.2 
" style="fill: none; stroke: #000000; stroke-width: 0.8; stroke-linejoin: miter; stroke-linecap: square"/>
   </g>
   <g id="patch_4">
    <path d="M 495.382812 115.92 
L 495.382812 7.2 
" style="fill: none; stroke: #000000; stroke-width: 0.8; stroke-linejoin: miter; stroke-linecap: square"/>
   </g>
   <g id="patch_5">
    <path d="M 48.982813 115.92 
L 495.382812 115.92 
" style="fill: none; stroke: #000000; stroke-width: 0.8; stroke-linejoin: miter; stroke-linecap: square"/>
   </g>
   <g id="patch_6">
    <path d="M 48.982813 7.2 
L 495.382812 7.2 
" style="fill: none; stroke: #000000; stroke-width: 0.8; stroke-linejoin: miter; stroke-linecap: square"/>
   </g>
  </g>
 </g>
 <defs>
  <clipPath id="p094b3bcd74">
   <rect x="48.982813" y="7.2" width="446.4" height="108.72"/>
  </clipPath>
 </defs>
</svg>
